<svg width="156" height="120" viewBox="0 0 156 120" fill="none" xmlns="http://www.w3.org/2000/svg">
<g clip-path="url(#clip0_76_301)">
<path d="M97.0444 80.7928C97.5797 76.7369 95.9195 73.5046 91.8691 72.4276C85.4796 70.7304 78.8345 74.1422 79.4165 81.3944C79.7733 85.8343 84.4809 87.1213 87.1463 89.5453C89.1688 91.385 88.0276 94.3964 85.1391 93.9438C84.4297 93.8328 83.555 92.8461 83.555 92.1563V90.4711H76.973C76.7315 90.4711 76.7946 91.9006 76.8109 92.1552C77.2221 98.6415 83.1003 100.717 88.7989 99.464C95.3527 98.0225 97.9344 90.3471 93.1333 85.5188C91.5732 83.95 88.1614 82.416 87.0974 80.8961C86.0334 79.3763 87.1202 77.1993 89.0383 77.4321C90.7006 77.6345 90.6865 79.4883 90.7344 80.7938H97.0444V80.7928ZM45.6936 72.5287H39.4379C39.303 72.6147 39.2954 72.754 39.2551 72.8899C37.9202 77.4615 37.373 83.0241 36.3035 87.773C35.8607 89.7389 35.4528 92.7971 33.1017 93.2725C29.9445 93.9112 28.8783 91.8789 29.4038 89.0328L32.5088 72.7746C32.548 72.6865 32.4054 72.5287 32.3663 72.5287H26.2738L26.1313 72.7126C25.0564 79.0292 23.4811 85.2566 22.6248 91.608C22.3333 98.4033 27.6435 100.294 33.5489 99.5913C38.9527 98.9483 40.9371 96.012 42.1806 91.0379C43.4959 85.7744 44.5023 79.6754 45.4444 74.2923C45.4879 74.0432 45.7708 72.6082 45.6936 72.5298V72.5287ZM54.9411 72.5287H48.5766L43.3001 99.1703H58.0961L59.2928 93.2987H51.0245L54.9411 72.5298V72.5287ZM71.5866 72.5287H65.0589L59.9456 99.1703H74.6872L75.9384 93.2987H67.67L71.5866 72.5298V72.5287ZM115.975 72.5287H101.342L96.0653 99.1703H110.97L112.058 93.2987H103.79L104.552 88.8414L112.918 88.8294L114.016 82.8598H105.748L106.632 78.5244L114.893 78.4635L115.974 72.5298L115.975 72.5287ZM124.134 72.5287H117.063L122.059 89.1188L120.218 99.1703H126.745C127.261 95.8858 127.918 92.6002 128.606 89.3396L139.235 72.8867L139.366 72.5287H132.132L126.257 82.9686L124.135 72.5287H124.134ZM44.7144 104.716H40.5802V119.83H44.7144V104.716ZM71.8042 104.716H67.3436C67.4034 105.094 67.6743 105.523 67.8691 105.876C69.3617 108.586 71.0176 111.225 72.5657 113.904V119.83H76.5367C76.5487 119.83 76.6999 119.679 76.6999 119.667V113.795L81.7534 105.036L81.8132 104.716H77.6247L74.6872 110.153L71.8042 104.716ZM107.815 104.716H103.681V119.83H114.234V116.351H107.815V104.716ZM130.009 104.716H119.347V119.83H130.335V116.351H123.481V113.85H128.921V110.588H123.481V108.087H130.009V104.717V104.716Z" fill="#FDFDFD"/>
<path d="M105.422 1.82717e-05C108.825 0.90845 108.082 4.80655 104.702 4.88161C104.259 4.89141 103.876 4.70537 103.326 4.80981C102.622 4.94363 99.5173 6.35578 98.746 6.75505C97.9714 7.15541 98.8831 7.51878 98.0181 7.88977C100.147 13.3469 102.322 18.7899 104.444 24.2481C105.017 25.7244 105.615 27.1844 106.176 28.5726C106.315 28.9164 106.189 29.5551 106.728 29.6845C106.671 29.7085 106.507 29.629 106.512 29.7378L108.143 33.5989C108.379 34.8979 109.161 36.2296 109.666 37.5133C109.71 37.6254 109.7 37.831 109.769 38.0051C110.415 39.6414 111.056 41.2809 111.731 42.9052C111.916 43.0227 112.584 42.4874 112.855 42.3873C115.889 41.2733 118.704 44.3837 117.193 47.2657C115.786 49.9485 111.721 49.6113 110.833 46.7326C110.645 46.1233 110.738 45.352 110.563 44.9364C110.298 44.3043 109.64 44.845 109.357 44.2934C108.679 42.7094 108.12 41.0742 107.491 39.4716C106.896 37.9572 106.3 36.5266 105.75 35.122C105.201 33.7175 104.644 32.4414 104.118 31.0988C103.414 29.3026 102.763 27.464 102.051 25.6624C101.388 23.9804 100.764 22.2778 100.104 20.5926C100.06 20.4805 100.162 20.4065 99.9318 20.4435L79.2555 43.3904C79.187 43.5438 79.521 44.7667 79.806 44.8069C80.7884 44.6089 81.8535 44.684 82.8359 44.5687C83.6377 44.4751 84.779 44.0606 85.4731 44.0497C85.7657 44.0454 88.3148 44.7264 88.3496 44.8722C88.2952 45.1768 88.4627 45.9928 88.2386 46.1625C88.1298 46.2452 85.7668 46.7391 85.571 46.7391C84.9128 46.7391 84.0457 46.1984 83.2863 46.206C82.2256 46.2169 80.9233 46.7532 79.8256 46.7793C79.5079 46.8958 79.5743 47.3668 79.4763 47.6258C77.3342 53.2657 70.2288 53.0905 68.3119 47.5333C66.5026 47.5355 64.6934 47.4691 62.8874 47.4104C62.2368 47.3897 61.4861 47.3016 60.8747 47.3016H58.59C58.0559 47.3016 57.2823 47.2091 56.6861 47.1928C55.6374 47.1634 54.5799 47.22 53.5311 47.1928L53.4441 47.1188L53.3135 47.1928C53.2406 47.1906 53.1688 47.1949 53.0959 47.1928H52.9871C52.9512 47.1928 52.9142 47.1928 52.8783 47.1928C51.4357 47.1558 49.905 47.01 48.4178 46.9752C46.4791 46.9295 44.5469 46.998 42.6147 46.862C41.5148 49.1141 38.2977 49.5405 36.7311 47.5094C34.8522 45.0745 36.8192 41.5638 39.8655 41.876C40.3311 41.9239 41.1297 42.3949 41.4517 42.2459C42.7986 40.9643 44.0562 39.5859 45.3715 38.276C46.4236 37.2272 47.4756 36.1752 48.5266 35.122C49.4851 34.1625 50.4326 33.1126 51.3552 32.1857C52.6803 30.8551 54.1447 29.5191 55.4894 28.1625C58.0972 25.5308 60.6789 22.8718 63.3313 20.2825C63.5228 20.1824 63.253 19.3817 63.2127 19.3534C63.1572 19.3143 62.9407 19.472 62.8417 19.4524C62.7373 19.4328 62.3336 18.1828 62.3336 17.988C62.3336 17.7933 62.548 17.8477 62.5654 17.7607C62.6154 17.4963 61.6754 14.8667 61.5035 14.3772C60.9726 12.8638 60.5113 11.4658 59.6149 10.1168C58.268 10.6793 57.1779 11.1275 55.6667 10.9676C53.8738 10.7783 51.8176 9.34109 50.7666 7.92676C50.4588 7.51335 49.4524 5.8847 50.0464 5.48542C50.3271 5.29721 52.2332 5.79766 52.7293 5.85641C55.8963 6.23501 59.2232 5.89884 62.3935 5.86511C63.7088 5.85097 65.3712 5.75414 66.6452 5.86511C67.7799 5.96412 68.7754 6.65387 67.9507 7.83103C67.0956 9.05061 65.2265 8.4827 63.9351 8.60238C63.625 8.63066 61.8452 8.97445 61.7984 9.18878C63.3161 11.5485 63.8589 14.4544 64.8468 17.0709C64.9034 17.1133 65.3113 16.8914 65.3886 16.961C65.4658 17.0307 66.0337 18.8769 65.3908 18.6452C65.6236 18.8954 65.6073 19.7745 65.9783 19.7842L96.2861 11.2515C96.445 11.1471 96.3797 11.1123 96.3481 10.9774C96.3046 10.7968 95.6486 9.10174 95.5801 9.02232C95.3973 8.81126 94.9686 8.9886 94.7565 8.72858C94.6651 8.61652 93.699 6.29485 93.6413 6.06747C93.3933 5.08615 93.8002 5.38098 93.9938 5.09376C94.0395 5.02631 93.7958 4.73692 94.0123 4.4138C94.1353 4.23102 95.6584 3.60763 95.9162 3.59131C96.4069 3.56085 96.3449 3.87853 96.5799 3.99385C96.7452 4.07545 97.0999 4.13093 97.2914 4.10809L101.606 2.59476C101.553 1.20328 102.669 0.335104 103.902 -0.0043335H105.425L105.422 1.82717e-05ZM94.651 16.528L67.6678 22.9991L73.3795 40.0167C73.4709 40.1277 74.8276 40.2071 75.1801 40.2832C75.7121 40.3975 76.3899 40.8968 76.7587 40.4541L94.6499 19.0825V16.5269L94.651 16.528ZM62.8831 44.8004C64.6597 44.8254 66.4417 44.7286 68.2096 44.9037C68.2814 44.227 68.6013 43.4535 68.9549 42.8758C69.1909 42.4907 70.2571 41.455 70.2843 41.2602C70.3061 41.1025 70.2571 40.9436 70.2071 40.7957L64.0798 23.4865L63.8067 23.5931C61.6537 25.7385 59.4941 27.8785 57.3346 30.0098C55.9202 31.4056 54.5592 32.7993 53.2004 34.1418C52.528 34.8055 50.7884 36.8007 50.2629 37.187C48.8649 38.2151 48.3775 38.9734 47.2167 40.1233C47.196 40.144 47.0045 40.1625 46.8881 40.2789C45.5326 41.6247 44.1748 42.9737 42.8649 44.363C44.8243 44.3326 46.7826 44.4229 48.7398 44.4729C50.1465 44.5088 51.5674 44.5491 52.9828 44.5817C54.3982 44.6143 55.7418 44.5545 57.117 44.5817C58.9958 44.6187 60.9585 44.7721 62.8831 44.7993V44.8004Z" fill="#020203"/>
<path d="M0 98.6263L4.99801 72.5766C8.20091 72.6125 11.5572 72.3644 14.746 72.5244C17.6867 72.6723 20.5958 73.5807 21.6185 76.6379C22.8859 80.4293 20.9005 83.8509 17.4071 85.361C18.8094 86.3467 19.9572 87.4085 20.4468 89.1177C21.9231 94.2712 17.9989 99.0353 12.7822 99.1681H0V98.6252V98.6263ZM8.92112 82.6411C10.7434 82.9349 14.0323 82.5911 14.351 80.2944C14.5403 78.928 14.0529 78.1392 12.7289 77.802C12.3514 77.7062 10.2016 77.4658 10.0058 77.5833C9.67942 77.7791 9.11043 81.9905 8.92004 82.6411H8.92112ZM6.85403 93.0799H10.0635C10.515 93.0799 11.7857 92.6426 12.1784 92.3662C13.225 91.6297 13.5579 89.8444 13.0085 88.7238C12.2796 87.2388 9.33563 87.39 7.94742 87.539L6.85512 93.0799H6.85403Z" fill="#1A3FD0"/>
<path d="M155.249 72.5287V73.0727L154.146 78.495L145.79 78.5146L145.023 82.8588H153.291L152.102 88.7924L143.837 88.8501L143.064 93.2976H151.224L150.136 99.1692H135.34L140.507 72.6365L155.249 72.5287Z" fill="#1A3FD0"/>
<path d="M56.3554 119.939C52.9382 119.503 50.1639 116.175 49.9376 112.815C49.4002 104.838 59.6051 101.443 64.1864 107.708L61.0956 109.824C59.4517 107.286 55.4502 107.439 54.421 110.448C53.7857 112.306 54.2122 115.134 56.1487 116.067C58.0852 117.001 60.309 116.255 61.4132 114.412L64.3877 116.26C64.6782 116.752 62.969 118.371 62.548 118.677C61.7712 119.242 60.4657 119.829 59.5115 119.937C58.8283 120.014 57.0288 120.023 56.3565 119.937L56.3554 119.939Z" fill="#020203"/>
<path d="M90.7344 119.939C85.6558 119.332 82.9371 113.361 85.0357 108.862C87.3422 103.916 94.6292 102.866 98.0791 107.107C98.3358 107.422 98.623 107.639 98.2814 107.964C98.078 108.158 95.6453 109.847 95.48 109.818C94.5432 108.483 93.1801 107.922 91.5514 108.087C87.5021 108.5 87.3378 116.214 91.9811 116.462C93.5336 116.545 95.0317 115.842 95.6878 114.389C96.0685 114.664 98.6655 116.088 98.7655 116.259C98.9146 116.513 98.4141 117.159 98.239 117.379C97.2598 118.611 95.4647 119.748 93.8894 119.937C93.2083 120.019 91.4154 120.019 90.7344 119.937V119.939Z" fill="#020203"/>
<path d="M102.049 25.6624C102.76 27.4651 103.412 29.3026 104.116 31.0988C96.5962 36.4798 94.2767 46.6781 99.0234 54.7278C104.243 63.5793 116.174 66.0446 124.539 60.0468C134.444 52.9447 134.333 38.0159 124.278 31.1184C118.846 27.3922 112.701 27.1528 106.727 29.6845C106.187 29.555 106.313 28.9164 106.174 28.5726C105.614 27.1844 105.016 25.7244 104.442 24.248C105.118 24.1012 105.727 23.7432 106.378 23.518C119.889 18.8399 134.459 26.9831 137.267 40.9708C140.537 57.266 126.459 71.7193 110.08 68.796C95.0731 66.1175 86.5338 50.0148 92.783 36.0261C94.6651 31.8136 98.017 27.9057 102.05 25.6613L102.049 25.6624Z" fill="#1A3FD0"/>
<path d="M55.485 28.1635C54.1404 29.5213 52.676 30.8562 51.3509 32.1867C49.0009 30.2524 46.4051 28.7815 43.41 28.108C26.9538 24.4069 15.1333 43.472 25.7875 56.5958C35.2287 68.2248 54.4656 63.1115 56.8656 48.409C56.9375 47.9662 57.2388 47.3004 56.6818 47.1927C57.278 47.209 58.0515 47.3015 58.5857 47.3015H60.8704C61.4818 47.3015 62.2325 47.3885 62.8831 47.4103C62.5034 50.9711 61.4176 54.4547 59.5561 57.514C50.3761 72.606 28.3006 72.569 19.2381 57.378C8.91351 40.0721 23.8749 18.6451 43.6471 22.2168C48.0903 23.0197 52.1886 25.1108 55.485 28.1635Z" fill="#1A3FD0"/>
<path d="M45.6936 72.5287C45.7708 72.6071 45.4879 74.0421 45.4444 74.2912C44.5023 79.6743 43.4959 85.7733 42.1806 91.0368C40.9371 96.012 38.9527 98.9472 33.5489 99.5902C27.6424 100.293 22.3333 98.4033 22.6248 91.6069C23.4811 85.2555 25.0564 79.027 26.1313 72.7115L26.2738 72.5276H32.3663C32.4054 72.5276 32.5491 72.6865 32.5088 72.7735L29.4038 89.0317C28.8783 91.8778 29.9445 93.9101 33.1017 93.2714C35.4528 92.796 35.8597 89.7389 36.3035 87.7719C37.373 83.0241 37.9213 77.4604 39.2551 72.8888C39.2954 72.7528 39.3019 72.6136 39.4379 72.5276H45.6936V72.5287Z" fill="#1A3FD0"/>
<path d="M97.0444 80.7927H90.7344C90.6854 79.4861 90.7006 77.6323 89.0383 77.431C87.1202 77.1982 86.0334 79.3752 87.0974 80.895C88.1614 82.4149 91.5732 83.9489 93.1333 85.5177C97.9344 90.346 95.3527 98.0225 88.7989 99.4629C83.0992 100.716 77.2221 98.6404 76.8109 92.1541C76.7946 91.8995 76.7315 90.47 76.973 90.47H83.555V92.1552C83.555 92.845 84.4297 93.8317 85.1391 93.9427C88.0276 94.3953 89.1688 91.3839 87.1463 89.5442C84.4809 87.1202 79.7733 85.8343 79.4165 81.3933C78.8345 74.1411 85.4796 70.7293 91.8691 72.4265C95.9195 73.5024 97.5797 76.7347 97.0444 80.7917V80.7927Z" fill="#1A3FD0"/>
<path d="M115.975 72.5287L114.894 78.4624L106.632 78.5233L105.748 82.8588H114.016L112.918 88.8283L104.552 88.8403L103.79 93.2976H112.058L110.97 99.1692H96.0653L101.342 72.5287H115.975Z" fill="#1A3FD0"/>
<path d="M124.134 72.5287L126.256 82.9686L132.131 72.5287H139.365L139.234 72.8867L128.605 89.3396C127.918 92.6002 127.261 95.8847 126.744 99.1703H120.216L122.058 89.1188L117.061 72.5287H124.133H124.134Z" fill="#1A3FD0"/>
<path d="M54.9411 72.5287L51.0245 93.2976H59.2928L58.0961 99.1692H43.3001L48.5766 72.5287H54.9411Z" fill="#1A3FD0"/>
<path d="M71.5866 72.5287L67.67 93.2976H75.9383L74.6872 99.1692H59.9456L65.0589 72.5287H71.5866Z" fill="#1A3FD0"/>
<path d="M130.009 104.716V108.086H123.481V110.587H128.921V113.85H123.481V116.35H130.335V119.83H119.347V104.716H130.009Z" fill="#020203"/>
<path d="M71.8042 104.716L74.6872 110.153L77.6247 104.716H81.8132L81.7534 105.036L76.6999 113.795V119.667C76.6999 119.679 76.5487 119.83 76.5367 119.83H72.5657V113.904C71.0176 111.225 69.3617 108.586 67.8691 105.876C67.6743 105.523 67.4034 105.094 67.3436 104.716H71.8042Z" fill="#020203"/>
<path d="M107.815 104.716V116.35H114.234V119.83H103.681V104.716H107.815Z" fill="#020203"/>
<path d="M44.7144 104.716H40.5802V119.83H44.7144V104.716Z" fill="#020203"/>
<path d="M105.748 35.1231C106.297 36.5277 106.894 37.9583 107.489 39.4727C107.094 39.551 106.817 40.0559 106.594 40.3724C103.051 45.4107 105.485 52.6379 111.32 54.5092C118.536 56.8221 125.284 50.1835 123.125 42.9291C121.433 37.249 114.846 34.7761 109.665 37.5155C109.16 36.2317 108.378 34.9001 108.141 33.6011C109.074 33.0114 110.279 32.6361 111.362 32.4152C121.371 30.3732 129.962 39.2802 127.345 49.2598C124.973 58.3017 114.102 62.1084 106.431 56.7851C99.0735 51.6805 98.684 40.6129 105.748 35.122V35.1231Z" fill="#1A3FD0"/>
<path d="M48.5222 35.1231C47.4713 36.1752 46.4192 37.2283 45.3672 38.2771C42.693 35.6867 38.1694 35.3973 34.9588 37.1706C28.7456 40.6042 28.5084 49.5318 34.5628 53.2613C39.5946 56.3608 46.4671 53.9391 48.2731 48.3024C48.4025 47.8977 48.6419 47.3625 48.4134 46.9752C49.9006 47.01 51.4314 47.1558 52.874 47.1927C52.342 51.8785 48.94 56.1378 44.6045 57.9014C37.4165 60.8257 29.0959 57.118 26.6056 49.7973C22.8729 38.8243 33.55 28.5628 44.3869 32.6774C45.9536 33.2725 47.1688 34.181 48.5233 35.122L48.5222 35.1231Z" fill="#1A3FD0"/>
<path d="M62.883 44.8004C60.9585 44.7743 58.9958 44.6198 57.117 44.5828C56.9777 40.7456 55.5014 37.1684 53.2004 34.144C54.5592 32.8014 55.9202 31.4078 57.3345 30.012L59.5985 33.241C61.6439 36.7246 62.9081 40.7304 62.883 44.8004Z" fill="#1A3FD0"/>
<path d="M50.2629 37.1891C51.9155 39.2507 52.8729 41.9347 52.9828 44.5838C51.5674 44.5512 50.1465 44.5109 48.7398 44.475C48.5744 42.8932 48.0011 41.4854 47.2167 40.1254C48.3775 38.9766 48.8649 38.2172 50.2629 37.1891Z" fill="#1A3FD0"/>
<path d="M53.5267 47.1928C53.4539 47.1906 53.3821 47.1949 53.3092 47.1928L53.4397 47.1188L53.5267 47.1928Z" fill="#1A3FD0"/>
<path d="M30.952 104.716C34.0994 105.09 35.6823 108.252 33.8905 110.915L32.6394 111.892C35.8401 112.627 36.1208 117.16 33.5423 118.832C32.8646 119.271 31.3055 119.831 30.5168 119.831H23.0644V104.717H30.952V104.716ZM27.0898 110.587H29.5376C29.7226 110.587 30.284 110.226 30.4036 110.039C30.6745 109.618 30.6691 108.757 30.3558 108.356C30.2306 108.196 29.6954 107.868 29.5387 107.868H27.0908V110.587H27.0898ZM27.0898 116.568H30.0816C30.1142 116.568 30.6136 116.342 30.6778 116.293C31.2468 115.866 31.2849 114.478 30.8345 113.966C30.7387 113.857 30.1839 113.522 30.0816 113.522H27.0898V116.568Z" fill="#020203"/>
</g>
<defs>
<clipPath id="clip0_76_301">
<rect width="155.249" height="120" fill="white"/>
</clipPath>
</defs>
</svg>
