<svg width="1361" height="476" viewBox="0 0 1361 476" fill="none" xmlns="http://www.w3.org/2000/svg">
<g clip-path="url(#clip0_113_1363)">
<path d="M525.149 361.126L525.005 358.787L522.701 358.355C512.308 356.424 507.555 355.201 503.991 346.337C503.451 344.994 501.879 340.185 501.663 339.045V48.9934L498.699 48.9574H498.278C489.17 48.9574 480.421 51.9318 471.948 54.8223C468.323 56.0576 464.579 57.3289 460.943 58.3124C455.83 59.6917 450.55 60.891 445.437 62.0424C439.364 63.4097 433.076 64.8249 426.967 66.5999L424.783 67.2356L424.807 69.5144L424.891 80.3086L428.023 80.1407C428.563 80.1167 429.091 80.0927 429.607 80.0927C440.637 80.0927 446.553 86.4133 447.717 99.4143L447.657 336.587C445.881 350.307 441.609 356.28 432.968 357.204C431.756 357.336 430.592 357.396 429.487 357.396C415.026 357.396 411.462 346.254 410.405 328.287C407.873 285.098 409.025 239.811 410.153 196.01C411.186 155.736 412.254 114.082 410.453 74.0239V73.952C408.905 52.0638 400.216 33.3538 385.335 19.8251C371.257 7.03998 352.499 -0.0122337 332.493 -0.0122337C320.468 -0.0122337 308.419 2.47043 296.682 7.37579C279.352 14.6199 265.191 27.0212 253.405 45.2754C243.12 61.2148 235.859 79.517 228.839 97.2075L227.363 100.913L227.315 101.009L156.867 298.735L91.4726 114.934C88.8564 102.82 89.1084 95.6363 92.3127 90.9229C95.193 86.7011 100.738 84.0386 109.787 82.5634L112.307 82.1556V79.601L112.283 72.2729V71.4453L111.851 70.7377C110.555 68.5909 108.79 68.279 107.854 68.279C106.498 68.279 105.442 68.9027 104.782 69.3704C97.7133 69.5264 90.1165 69.5983 81.5716 69.5983C71.6706 69.5983 61.6016 69.5024 51.8566 69.4064C42.0996 69.3105 32.0185 69.2145 22.0935 69.2145C15.1328 69.2145 8.88014 69.2625 2.97554 69.3585L0.0112305 69.4064L0.0952391 80.7283L0.119242 83.6548L3.04754 83.7027C15.5168 83.9186 21.6855 91.7144 28.0941 105.111L129.205 375.542L148.346 376.585L149.127 374.534C163.528 336.563 177.161 297.572 190.363 259.864C202.88 224.099 215.817 187.099 229.379 151.083C230.711 147.556 232.079 143.754 233.543 139.737C245.1 107.906 260.918 64.3212 288.317 51.2362C296.514 47.3143 305.287 45.2514 313.688 45.2514C324.969 45.2514 335.338 48.9934 342.899 55.7698C351.047 63.0858 355.74 73.6282 356.472 86.2694L356.496 340.353C355.8 351.771 347.099 357.743 338.842 357.743C331.761 357.743 325.761 353.474 322.82 346.337C322.064 344.526 320.78 341.144 320.492 340.149V161.853L317.612 161.733C317.132 161.709 316.652 161.709 316.172 161.709C308.239 161.709 300.714 164.263 293.429 166.734C290.129 167.849 286.721 169.013 283.384 169.876L283.108 169.948C272.127 172.815 260.774 175.777 249.433 177.576L248.533 177.72L245.316 180.707L245.112 181.606C244.512 184.257 244.044 187.615 245.773 189.978C247.441 192.256 250.129 192.484 252.505 192.688C253.849 192.808 255.242 192.916 256.586 193.348C266.223 196.394 267.195 212.166 267.723 220.633C269.883 255.45 270.135 309.098 266.355 339.945C264.903 351.831 259.814 356.892 247.597 358.619L245.064 358.979L244.8 372.831H525.881L525.173 361.174L525.149 361.126ZM107.866 71.2774C107.83 71.2774 107.806 71.2774 107.77 71.2774C107.794 71.2774 107.818 71.2774 107.83 71.2774H107.866ZM18.1451 72.2249C19.4652 72.2249 20.7734 72.2129 22.0935 72.2129C23.1856 72.2129 24.2777 72.2129 25.3698 72.2249C22.9576 72.2249 20.5573 72.2249 18.1451 72.2249ZM131.305 372.651L30.8304 103.924L131.305 372.639V372.651ZM262.25 70.9296C263.918 68.6029 265.659 66.3721 267.459 64.2612C265.659 66.3721 263.93 68.5909 262.25 70.9296ZM286.997 48.5137C286.373 48.8135 285.749 49.1253 285.137 49.4612C285.749 49.1373 286.373 48.8135 286.997 48.5137ZM332.169 3.01014C332.265 3.01014 332.373 3.01014 332.469 3.01014C332.601 3.01014 332.733 3.01014 332.865 3.01014C332.625 3.01014 332.397 3.01014 332.157 3.01014H332.169ZM315.704 164.695C315.848 164.695 315.992 164.683 316.136 164.683C316.58 164.683 317.012 164.683 317.456 164.707C316.868 164.683 316.292 164.683 315.704 164.695ZM359.232 342.631C359.34 341.912 359.424 341.168 359.46 340.413C359.412 341.168 359.34 341.912 359.232 342.631ZM497.246 51.9918C497.594 51.9918 497.942 51.9558 498.291 51.9558C498.423 51.9558 498.555 51.9558 498.675 51.9558C498.194 51.9558 497.726 51.9678 497.246 51.9798V51.9918ZM515.128 359.818C516.712 360.25 518.429 360.61 520.265 360.958C518.429 360.598 516.712 360.238 515.128 359.818Z" fill="url(#paint0_linear_113_1363)"/>
<path d="M525.149 361.126L525.005 358.787L522.701 358.355C512.308 356.424 507.555 355.201 503.991 346.337C503.451 344.994 501.879 340.185 501.663 339.045V48.9934L498.699 48.9574H498.278C489.17 48.9574 480.421 51.9318 471.948 54.8223C468.323 56.0576 464.579 57.3289 460.943 58.3124C455.83 59.6917 450.55 60.891 445.437 62.0424C439.364 63.4097 433.076 64.8249 426.967 66.5999L424.783 67.2356L424.807 69.5144L424.891 80.3086L428.023 80.1407C428.563 80.1167 429.091 80.0927 429.607 80.0927C440.637 80.0927 446.553 86.4133 447.717 99.4143L447.657 336.587C445.881 350.307 441.609 356.28 432.968 357.204C431.756 357.336 430.592 357.396 429.487 357.396C415.026 357.396 411.462 346.254 410.405 328.287C407.873 285.098 409.025 239.811 410.153 196.01C411.186 155.736 412.254 114.082 410.453 74.0239V73.952C408.905 52.0638 400.216 33.3538 385.335 19.8251C371.257 7.03998 352.499 -0.0122337 332.493 -0.0122337C320.468 -0.0122337 308.419 2.47043 296.682 7.37579C279.352 14.6199 265.191 27.0212 253.405 45.2754C243.12 61.2148 235.859 79.517 228.839 97.2075L227.363 100.913L227.315 101.009L156.867 298.735L91.4726 114.934C88.8564 102.82 89.1084 95.6363 92.3127 90.9229C95.193 86.7011 100.738 84.0386 109.787 82.5634L112.307 82.1556V79.601L112.283 72.2729V71.4453L111.851 70.7377C110.555 68.5909 108.79 68.279 107.854 68.279C106.498 68.279 105.442 68.9027 104.782 69.3704C97.7133 69.5264 90.1165 69.5983 81.5716 69.5983C71.6706 69.5983 61.6016 69.5024 51.8566 69.4064C42.0996 69.3105 32.0185 69.2145 22.0935 69.2145C15.1328 69.2145 8.88014 69.2625 2.97554 69.3585L0.0112305 69.4064L0.0952391 80.7283L0.119242 83.6548L3.04754 83.7027C15.5168 83.9186 21.6855 91.7144 28.0941 105.111L129.205 375.542L148.346 376.585L149.127 374.534C163.528 336.563 177.161 297.572 190.363 259.864C202.88 224.099 215.817 187.099 229.379 151.083C230.711 147.556 232.079 143.754 233.543 139.737C245.1 107.906 260.918 64.3212 288.317 51.2362C296.514 47.3143 305.287 45.2514 313.688 45.2514C324.969 45.2514 335.338 48.9934 342.899 55.7698C351.047 63.0858 355.74 73.6282 356.472 86.2694L356.496 340.353C355.8 351.771 347.099 357.743 338.842 357.743C331.761 357.743 325.761 353.474 322.82 346.337C322.064 344.526 320.78 341.144 320.492 340.149V161.853L317.612 161.733C317.132 161.709 316.652 161.709 316.172 161.709C308.239 161.709 300.714 164.263 293.429 166.734C290.129 167.849 286.721 169.013 283.384 169.876L283.108 169.948C272.127 172.815 260.774 175.777 249.433 177.576L248.533 177.72L245.316 180.707L245.112 181.606C244.512 184.257 244.044 187.615 245.773 189.978C247.441 192.256 250.129 192.484 252.505 192.688C253.849 192.808 255.242 192.916 256.586 193.348C266.223 196.394 267.195 212.166 267.723 220.633C269.883 255.45 270.135 309.098 266.355 339.945C264.903 351.831 259.814 356.892 247.597 358.619L245.064 358.979L244.8 372.831H525.881L525.173 361.174L525.149 361.126ZM107.866 71.2774C107.83 71.2774 107.806 71.2774 107.77 71.2774C107.794 71.2774 107.818 71.2774 107.83 71.2774H107.866ZM18.1451 72.2249C19.4652 72.2249 20.7734 72.2129 22.0935 72.2129C23.1856 72.2129 24.2777 72.2129 25.3698 72.2249C22.9576 72.2249 20.5573 72.2249 18.1451 72.2249ZM131.305 372.651L30.8304 103.924L131.305 372.639V372.651ZM262.25 70.9296C263.918 68.6029 265.659 66.3721 267.459 64.2612C265.659 66.3721 263.93 68.5909 262.25 70.9296ZM286.997 48.5137C286.373 48.8135 285.749 49.1253 285.137 49.4612C285.749 49.1373 286.373 48.8135 286.997 48.5137ZM332.169 3.01014C332.265 3.01014 332.373 3.01014 332.469 3.01014C332.601 3.01014 332.733 3.01014 332.865 3.01014C332.625 3.01014 332.397 3.01014 332.157 3.01014H332.169ZM315.704 164.695C315.848 164.695 315.992 164.683 316.136 164.683C316.58 164.683 317.012 164.683 317.456 164.707C316.868 164.683 316.292 164.683 315.704 164.695ZM359.232 342.631C359.34 341.912 359.424 341.168 359.46 340.413C359.412 341.168 359.34 341.912 359.232 342.631ZM497.246 51.9918C497.594 51.9918 497.942 51.9558 498.291 51.9558C498.423 51.9558 498.555 51.9558 498.675 51.9558C498.194 51.9558 497.726 51.9678 497.246 51.9798V51.9918ZM515.128 359.818C516.712 360.25 518.429 360.61 520.265 360.958C518.429 360.598 516.712 360.238 515.128 359.818Z" fill="url(#paint1_linear_113_1363)"/>
<path d="M1190.84 160.474C1189.6 160.378 1188.35 160.318 1187.11 160.318C1169.21 160.318 1153.02 171.28 1141.53 191.189L1141.47 191.297L1141.42 191.417L1137.74 199.249V164.444L1137.27 163.712C1136.51 162.513 1134.92 161.086 1131.59 161.086C1129.4 161.086 1127.06 161.685 1125.51 162.081L1125.31 162.129C1117.73 164.06 1110.18 166.567 1102.87 168.989C1091.44 172.779 1079.62 176.701 1067.62 178.452L1065.19 178.812L1065.06 181.259L1064.51 191.285L1067.36 191.561C1079.32 192.737 1084.33 196.874 1085.88 206.841C1091.08 240.423 1079.15 285.063 1057.51 312.996C1043.86 330.602 1027.05 340.881 1008.88 342.692C1006.19 342.956 1003.55 343.1 1001.01 343.1C985.167 343.1 972.037 337.883 961.98 327.592C947.519 312.78 939.454 286.982 939.67 256.482H1062.13V231.296C1062.13 218.343 1056.93 204.202 1047.48 191.489C1038.33 179.184 1026.11 169.697 1013.96 165.451C1001.85 161.23 990.039 159.083 978.866 159.083C952.367 159.083 929.433 170.884 912.559 193.192C897.534 213.054 888.713 239.44 887.717 267.492C886.745 295.066 893.633 320.984 907.123 340.449C922.556 362.733 945.803 375.578 974.318 377.593C977.09 377.785 979.862 377.893 982.562 377.893C1008.4 377.893 1031.16 368.826 1050.21 350.944C1064.49 337.535 1077.05 318.765 1087.57 295.09C1087.48 300.715 1087.08 306.352 1086.7 311.857C1086.48 314.867 1086.27 317.973 1086.1 321.044C1085.94 323.97 1085.9 326.896 1085.88 329.727C1085.72 345.247 1085.62 356.473 1067.35 358.619L1064.75 358.931L1064.48 372.844H1171.75L1170.2 360.406L1169.89 357.876L1167.35 357.78C1152.98 357.228 1144.63 354.877 1141.58 344.095C1137.52 329.703 1138.88 266.341 1140.08 247.031C1140.39 242.066 1141.67 229.377 1146.97 218.895C1151.76 209.396 1158.38 204.574 1166.65 204.574C1167.97 204.574 1169.36 204.694 1170.79 204.934C1172.97 205.306 1175.58 207.321 1178.1 209.264C1180.8 211.351 1183.58 213.497 1186.55 214.181C1188.62 214.649 1190.68 214.889 1192.64 214.889C1199.46 214.889 1205.63 211.998 1210.02 206.733C1213.96 202.02 1216.29 195.759 1216.55 189.115C1217.09 175.958 1209.35 162.009 1190.86 160.498L1190.84 160.474ZM978.854 162.057C978.986 162.057 979.118 162.057 979.25 162.057C978.794 162.057 978.338 162.057 977.882 162.057C978.206 162.057 978.518 162.045 978.842 162.045L978.854 162.057ZM949.595 199.573C956.544 184.617 966.373 177.037 978.818 177.037C980.654 177.037 982.574 177.205 984.531 177.541C991.239 178.68 996.952 182.902 1001.52 190.062C1010.37 203.927 1012.43 225.419 1009.39 238.096C1009.16 238.228 1008.92 238.36 1008.73 238.456H940.978C941.434 224.687 944.591 210.355 949.607 199.561L949.595 199.573ZM974.534 374.571C976.202 374.691 977.834 374.763 979.454 374.799C977.834 374.751 976.202 374.679 974.534 374.571ZM982.562 374.859C981.998 374.859 981.434 374.835 980.858 374.823C981.926 374.835 982.97 374.823 984.015 374.823C983.522 374.823 983.055 374.859 982.55 374.859H982.562ZM1131.5 164.084C1131.5 164.084 1131.57 164.084 1131.59 164.084C1131.62 164.084 1131.65 164.084 1131.69 164.084C1131.63 164.084 1131.56 164.084 1131.5 164.084ZM1186.91 163.316C1186.98 163.316 1187.04 163.316 1187.11 163.316C1187.45 163.316 1187.8 163.328 1188.13 163.34C1187.72 163.34 1187.32 163.316 1186.91 163.328V163.316ZM1192.62 211.854C1192.36 211.854 1192.09 211.842 1191.83 211.83C1192.09 211.83 1192.36 211.854 1192.62 211.854Z" fill="url(#paint2_linear_113_1363)"/>
<path d="M1190.84 160.474C1189.6 160.378 1188.35 160.318 1187.11 160.318C1169.21 160.318 1153.02 171.28 1141.53 191.189L1141.47 191.297L1141.42 191.417L1137.74 199.249V164.444L1137.27 163.712C1136.51 162.513 1134.92 161.086 1131.59 161.086C1129.4 161.086 1127.06 161.685 1125.51 162.081L1125.31 162.129C1117.73 164.06 1110.18 166.567 1102.87 168.989C1091.44 172.779 1079.62 176.701 1067.62 178.452L1065.19 178.812L1065.06 181.259L1064.51 191.285L1067.36 191.561C1079.32 192.737 1084.33 196.874 1085.88 206.841C1091.08 240.423 1079.15 285.063 1057.51 312.996C1043.86 330.602 1027.05 340.881 1008.88 342.692C1006.19 342.956 1003.55 343.1 1001.01 343.1C985.167 343.1 972.037 337.883 961.98 327.592C947.519 312.78 939.454 286.982 939.67 256.482H1062.13V231.296C1062.13 218.343 1056.93 204.202 1047.48 191.489C1038.33 179.184 1026.11 169.697 1013.96 165.451C1001.85 161.23 990.039 159.083 978.866 159.083C952.367 159.083 929.433 170.884 912.559 193.192C897.534 213.054 888.713 239.44 887.717 267.492C886.745 295.066 893.633 320.984 907.123 340.449C922.556 362.733 945.803 375.578 974.318 377.593C977.09 377.785 979.862 377.893 982.562 377.893C1008.4 377.893 1031.16 368.826 1050.21 350.944C1064.49 337.535 1077.05 318.765 1087.57 295.09C1087.48 300.715 1087.08 306.352 1086.7 311.857C1086.48 314.867 1086.27 317.973 1086.1 321.044C1085.94 323.97 1085.9 326.896 1085.88 329.727C1085.72 345.247 1085.62 356.473 1067.35 358.619L1064.75 358.931L1064.48 372.844H1171.75L1170.2 360.406L1169.89 357.876L1167.35 357.78C1152.98 357.228 1144.63 354.877 1141.58 344.095C1137.52 329.703 1138.88 266.341 1140.08 247.031C1140.39 242.066 1141.67 229.377 1146.97 218.895C1151.76 209.396 1158.38 204.574 1166.65 204.574C1167.97 204.574 1169.36 204.694 1170.79 204.934C1172.97 205.306 1175.58 207.321 1178.1 209.264C1180.8 211.351 1183.58 213.497 1186.55 214.181C1188.62 214.649 1190.68 214.889 1192.64 214.889C1199.46 214.889 1205.63 211.998 1210.02 206.733C1213.96 202.02 1216.29 195.759 1216.55 189.115C1217.09 175.958 1209.35 162.009 1190.86 160.498L1190.84 160.474ZM978.854 162.057C978.986 162.057 979.118 162.057 979.25 162.057C978.794 162.057 978.338 162.057 977.882 162.057C978.206 162.057 978.518 162.045 978.842 162.045L978.854 162.057ZM949.595 199.573C956.544 184.617 966.373 177.037 978.818 177.037C980.654 177.037 982.574 177.205 984.531 177.541C991.239 178.68 996.952 182.902 1001.52 190.062C1010.37 203.927 1012.43 225.419 1009.39 238.096C1009.16 238.228 1008.92 238.36 1008.73 238.456H940.978C941.434 224.687 944.591 210.355 949.607 199.561L949.595 199.573ZM974.534 374.571C976.202 374.691 977.834 374.763 979.454 374.799C977.834 374.751 976.202 374.679 974.534 374.571ZM982.562 374.859C981.998 374.859 981.434 374.835 980.858 374.823C981.926 374.835 982.97 374.823 984.015 374.823C983.522 374.823 983.055 374.859 982.55 374.859H982.562ZM1131.5 164.084C1131.5 164.084 1131.57 164.084 1131.59 164.084C1131.62 164.084 1131.65 164.084 1131.69 164.084C1131.63 164.084 1131.56 164.084 1131.5 164.084ZM1186.91 163.316C1186.98 163.316 1187.04 163.316 1187.11 163.316C1187.45 163.316 1187.8 163.328 1188.13 163.34C1187.72 163.34 1187.32 163.316 1186.91 163.328V163.316ZM1192.62 211.854C1192.36 211.854 1192.09 211.842 1191.83 211.83C1192.09 211.83 1192.36 211.854 1192.62 211.854Z" fill="url(#paint3_linear_113_1363)"/>
<path d="M859.298 345.198C839.964 338.938 815.913 338.914 794.683 338.902C783.714 338.902 773.345 338.89 764.812 338.014C760.54 337.583 753.891 335.556 752.043 333.685C750.11 331.73 749.282 329.319 749.534 326.321C749.954 321.151 754.299 313.008 760.936 307.695C771.749 310.885 782.826 312.492 793.903 312.492C808.208 312.492 821.986 309.662 833.759 304.3C846.852 298.34 857.461 289.417 865.298 277.807C882.916 251.673 881.596 213.845 862.226 189.834C861.458 188.875 859.922 187.411 857.977 185.564C856.153 183.825 853.081 180.899 851.629 179.16C851.737 179.04 851.833 178.932 851.941 178.812C855.229 175.19 859.322 170.68 863.426 170.129C863.918 170.057 864.422 170.033 864.926 170.033C868.131 170.033 871.131 171.4 874.311 172.863C877.816 174.458 881.428 176.113 885.664 176.113H885.772C895.145 176.053 902.55 168.593 903.786 157.967C904.386 152.774 903.378 147.593 900.954 143.371C898.146 138.502 893.681 135.203 888.029 133.836C885.484 133.224 882.916 132.913 880.396 132.913C861.134 132.913 845.496 151.167 837.863 170.201C823.666 163.676 808.16 160.246 792.811 160.246C767.536 160.246 744.41 169.589 729.36 185.876C715.103 201.312 708.574 222.085 710.494 245.952C712.115 266.233 723.312 283.827 744.662 299.587C728.292 307.731 715.571 324.678 713.603 341.708C713.567 341.984 713.567 342.26 713.531 342.536L713.243 341.037L709.57 343.232C704.806 346.086 700.809 347.537 697.689 347.537C695.589 347.537 693.969 346.89 692.588 345.51C687.02 339.909 687.116 324.294 687.188 312.888C687.2 310.717 687.212 308.666 687.188 306.783C687.104 299.899 687.356 291.347 687.62 282.304C688.568 250.198 689.756 210.235 678.379 189.594C668.106 170.932 644.548 160.222 613.764 160.222C584.817 160.222 556.687 169.841 542.093 184.725C532.048 194.967 528.052 211.183 532.792 222.456C536.188 230.552 543.365 235.002 552.978 235.002C554.31 235.002 555.714 234.918 557.143 234.738C573.812 232.723 576.165 219.674 578.229 208.16C578.949 204.19 579.681 200.077 580.977 196.598C585.489 184.473 595.33 176.941 606.648 176.941C617.689 176.941 627.074 184.461 631.13 196.55C634.347 206.145 636.207 232.807 634.995 242.953C634.959 243.241 634.935 243.529 634.923 243.817C634.923 243.901 634.923 243.985 634.899 244.069C626.174 247.967 614.977 251.229 603.155 254.671C585.898 259.696 568.064 264.878 553.146 273.129C535.6 282.82 525.639 295.005 522.687 310.381C516.686 341.636 534.064 369.126 564.019 375.746C569.78 377.017 575.54 377.665 581.133 377.665C602.435 377.665 621.841 368.478 637.587 351.015C639.939 358.499 644.091 364.736 649.768 369.27C656.645 374.775 665.634 377.677 675.751 377.677C676.987 377.677 678.247 377.629 679.507 377.545C689.492 376.861 702.73 372.064 709.786 362.877C712.018 359.975 713.435 356.808 714.071 353.486C715.979 362.817 721.644 370.889 730.68 376.861L730.788 376.933L730.896 376.993L738.625 381.203C727.5 385.689 718.187 392.057 711.442 399.829C703.798 408.632 699.801 419.043 700.173 429.129C700.917 449.123 717.755 465.014 745.214 471.646C756.999 474.489 770.537 475.988 784.362 475.988C802.904 475.988 821.062 473.326 836.891 468.288C855.073 462.507 869.475 453.92 879.7 442.778C892.637 428.686 898.29 411.103 896.501 390.534C894.497 367.482 882.34 352.646 859.31 345.186L859.298 345.198ZM885.724 173.103C885.724 173.103 885.664 173.103 885.64 173.103C885.184 173.103 884.728 173.079 884.284 173.031C884.764 173.079 885.244 173.103 885.724 173.103ZM880.36 135.899C880.456 135.899 880.552 135.899 880.66 135.899C880.228 135.899 879.808 135.899 879.376 135.923C879.7 135.923 880.024 135.887 880.36 135.887V135.899ZM793.891 309.494C793.639 309.494 793.375 309.482 793.123 309.482C793.795 309.482 794.455 309.482 795.127 309.482C794.719 309.482 794.299 309.494 793.891 309.494ZM792.775 163.232C793.075 163.232 793.387 163.232 793.687 163.244C793.279 163.244 792.871 163.244 792.463 163.244C792.571 163.244 792.667 163.244 792.775 163.244V163.232ZM762.22 217.455C764.056 204.79 771.569 180.155 786.894 177.541C788.85 177.205 790.783 177.037 792.619 177.037C800.312 177.037 814.317 180.395 821.602 202.859C824.842 212.862 826.618 228.645 826.138 243.085C825.538 260.788 821.722 275.552 815.373 284.667C810.333 291.899 803.66 295.749 795.511 296.085C795.067 296.109 794.635 296.109 794.203 296.109C786.51 296.109 780.005 293.111 774.881 287.186C760.671 270.779 759.567 235.709 762.22 217.467V217.455ZM552.954 232.015C552.774 232.015 552.606 232.003 552.438 231.991C552.894 231.991 553.362 231.991 553.842 231.991C553.542 231.991 553.242 232.015 552.954 232.015ZM578.145 195.555C577.725 196.682 577.365 197.858 577.041 199.069C577.365 197.87 577.725 196.694 578.145 195.555C578.469 194.667 578.829 193.816 579.201 192.976C578.829 193.804 578.469 194.667 578.145 195.555ZM613.092 163.244C613.308 163.244 613.524 163.244 613.74 163.244C613.944 163.244 614.136 163.244 614.34 163.244C613.92 163.244 613.5 163.244 613.092 163.244ZM573.62 326.668C573.26 325.349 572.96 324.066 572.72 322.795C572.972 324.066 573.272 325.349 573.62 326.668C573.656 326.776 573.692 326.884 573.716 326.992C573.68 326.884 573.644 326.776 573.62 326.668ZM581.097 374.667C581.097 374.667 581.085 374.667 581.073 374.667C581.109 374.667 581.145 374.667 581.181 374.667C581.157 374.667 581.121 374.667 581.097 374.667ZM634.887 329.859C627.506 340.053 615.012 346.602 602.783 346.602C589.642 346.602 580.077 339.046 576.525 325.889C573.464 314.519 574.472 304.36 579.537 295.689C587.578 281.909 605.7 271.306 634.887 263.343V329.859ZM675.715 374.691C675.715 374.691 675.655 374.691 675.631 374.691C675.727 374.691 675.823 374.691 675.907 374.691C675.847 374.691 675.775 374.691 675.715 374.691ZM784.338 473.002C784.278 473.002 784.218 473.002 784.158 473.002C785.082 473.002 785.994 473.002 786.918 472.99C786.054 472.99 785.19 473.014 784.338 473.014V473.002ZM839.496 447.36C829.355 453.584 812.649 457.446 795.919 457.446C783.306 457.446 772.133 455.263 764.464 451.293C752.307 445.009 744.746 433.975 743.714 421.022C742.658 407.733 748.622 394.816 759.699 386.264L831.191 388.675C845.172 390.15 854.713 397.682 857.365 409.34C860.546 423.324 853.201 438.952 839.496 447.348V447.36Z" fill="url(#paint4_linear_113_1363)"/>
<path d="M859.298 345.198C839.964 338.938 815.913 338.914 794.683 338.902C783.714 338.902 773.345 338.89 764.812 338.014C760.54 337.583 753.891 335.556 752.043 333.685C750.11 331.73 749.282 329.319 749.534 326.321C749.954 321.151 754.299 313.008 760.936 307.695C771.749 310.885 782.826 312.492 793.903 312.492C808.208 312.492 821.986 309.662 833.759 304.3C846.852 298.34 857.461 289.417 865.298 277.807C882.916 251.673 881.596 213.845 862.226 189.834C861.458 188.875 859.922 187.411 857.977 185.564C856.153 183.825 853.081 180.899 851.629 179.16C851.737 179.04 851.833 178.932 851.941 178.812C855.229 175.19 859.322 170.68 863.426 170.129C863.918 170.057 864.422 170.033 864.926 170.033C868.131 170.033 871.131 171.4 874.311 172.863C877.816 174.458 881.428 176.113 885.664 176.113H885.772C895.145 176.053 902.55 168.593 903.786 157.967C904.386 152.774 903.378 147.593 900.954 143.371C898.146 138.502 893.681 135.203 888.029 133.836C885.484 133.224 882.916 132.913 880.396 132.913C861.134 132.913 845.496 151.167 837.863 170.201C823.666 163.676 808.16 160.246 792.811 160.246C767.536 160.246 744.41 169.589 729.36 185.876C715.103 201.312 708.574 222.085 710.494 245.952C712.115 266.233 723.312 283.827 744.662 299.587C728.292 307.731 715.571 324.678 713.603 341.708C713.567 341.984 713.567 342.26 713.531 342.536L713.243 341.037L709.57 343.232C704.806 346.086 700.809 347.537 697.689 347.537C695.589 347.537 693.969 346.89 692.588 345.51C687.02 339.909 687.116 324.294 687.188 312.888C687.2 310.717 687.212 308.666 687.188 306.783C687.104 299.899 687.356 291.347 687.62 282.304C688.568 250.198 689.756 210.235 678.379 189.594C668.106 170.932 644.548 160.222 613.764 160.222C584.817 160.222 556.687 169.841 542.093 184.725C532.048 194.967 528.052 211.183 532.792 222.456C536.188 230.552 543.365 235.002 552.978 235.002C554.31 235.002 555.714 234.918 557.143 234.738C573.812 232.723 576.165 219.674 578.229 208.16C578.949 204.19 579.681 200.077 580.977 196.598C585.489 184.473 595.33 176.941 606.648 176.941C617.689 176.941 627.074 184.461 631.13 196.55C634.347 206.145 636.207 232.807 634.995 242.953C634.959 243.241 634.935 243.529 634.923 243.817C634.923 243.901 634.923 243.985 634.899 244.069C626.174 247.967 614.977 251.229 603.155 254.671C585.898 259.696 568.064 264.878 553.146 273.129C535.6 282.82 525.639 295.005 522.687 310.381C516.686 341.636 534.064 369.126 564.019 375.746C569.78 377.017 575.54 377.665 581.133 377.665C602.435 377.665 621.841 368.478 637.587 351.015C639.939 358.499 644.091 364.736 649.768 369.27C656.645 374.775 665.634 377.677 675.751 377.677C676.987 377.677 678.247 377.629 679.507 377.545C689.492 376.861 702.73 372.064 709.786 362.877C712.018 359.975 713.435 356.808 714.071 353.486C715.979 362.817 721.644 370.889 730.68 376.861L730.788 376.933L730.896 376.993L738.625 381.203C727.5 385.689 718.187 392.057 711.442 399.829C703.798 408.632 699.801 419.043 700.173 429.129C700.917 449.123 717.755 465.014 745.214 471.646C756.999 474.489 770.537 475.988 784.362 475.988C802.904 475.988 821.062 473.326 836.891 468.288C855.073 462.507 869.475 453.92 879.7 442.778C892.637 428.686 898.29 411.103 896.501 390.534C894.497 367.482 882.34 352.646 859.31 345.186L859.298 345.198ZM885.724 173.103C885.724 173.103 885.664 173.103 885.64 173.103C885.184 173.103 884.728 173.079 884.284 173.031C884.764 173.079 885.244 173.103 885.724 173.103ZM880.36 135.899C880.456 135.899 880.552 135.899 880.66 135.899C880.228 135.899 879.808 135.899 879.376 135.923C879.7 135.923 880.024 135.887 880.36 135.887V135.899ZM793.891 309.494C793.639 309.494 793.375 309.482 793.123 309.482C793.795 309.482 794.455 309.482 795.127 309.482C794.719 309.482 794.299 309.494 793.891 309.494ZM792.775 163.232C793.075 163.232 793.387 163.232 793.687 163.244C793.279 163.244 792.871 163.244 792.463 163.244C792.571 163.244 792.667 163.244 792.775 163.244V163.232ZM762.22 217.455C764.056 204.79 771.569 180.155 786.894 177.541C788.85 177.205 790.783 177.037 792.619 177.037C800.312 177.037 814.317 180.395 821.602 202.859C824.842 212.862 826.618 228.645 826.138 243.085C825.538 260.788 821.722 275.552 815.373 284.667C810.333 291.899 803.66 295.749 795.511 296.085C795.067 296.109 794.635 296.109 794.203 296.109C786.51 296.109 780.005 293.111 774.881 287.186C760.671 270.779 759.567 235.709 762.22 217.467V217.455ZM552.954 232.015C552.774 232.015 552.606 232.003 552.438 231.991C552.894 231.991 553.362 231.991 553.842 231.991C553.542 231.991 553.242 232.015 552.954 232.015ZM578.145 195.555C577.725 196.682 577.365 197.858 577.041 199.069C577.365 197.87 577.725 196.694 578.145 195.555C578.469 194.667 578.829 193.816 579.201 192.976C578.829 193.804 578.469 194.667 578.145 195.555ZM613.092 163.244C613.308 163.244 613.524 163.244 613.74 163.244C613.944 163.244 614.136 163.244 614.34 163.244C613.92 163.244 613.5 163.244 613.092 163.244ZM573.62 326.668C573.26 325.349 572.96 324.066 572.72 322.795C572.972 324.066 573.272 325.349 573.62 326.668C573.656 326.776 573.692 326.884 573.716 326.992C573.68 326.884 573.644 326.776 573.62 326.668ZM581.097 374.667C581.097 374.667 581.085 374.667 581.073 374.667C581.109 374.667 581.145 374.667 581.181 374.667C581.157 374.667 581.121 374.667 581.097 374.667ZM634.887 329.859C627.506 340.053 615.012 346.602 602.783 346.602C589.642 346.602 580.077 339.046 576.525 325.889C573.464 314.519 574.472 304.36 579.537 295.689C587.578 281.909 605.7 271.306 634.887 263.343V329.859ZM675.715 374.691C675.715 374.691 675.655 374.691 675.631 374.691C675.727 374.691 675.823 374.691 675.907 374.691C675.847 374.691 675.775 374.691 675.715 374.691ZM784.338 473.002C784.278 473.002 784.218 473.002 784.158 473.002C785.082 473.002 785.994 473.002 786.918 472.99C786.054 472.99 785.19 473.014 784.338 473.014V473.002ZM839.496 447.36C829.355 453.584 812.649 457.446 795.919 457.446C783.306 457.446 772.133 455.263 764.464 451.293C752.307 445.009 744.746 433.975 743.714 421.022C742.658 407.733 748.622 394.816 759.699 386.264L831.191 388.675C845.172 390.15 854.713 397.682 857.365 409.34C860.546 423.324 853.201 438.952 839.496 447.348V447.36Z" fill="url(#paint5_linear_113_1363)"/>
<path d="M1304.11 245.412C1295.77 241.622 1287.14 237.701 1279.48 233.095C1267.63 225.971 1256.55 212.658 1261 196.623C1264.27 184.845 1275.15 176.929 1288.09 176.929C1292.61 176.929 1297.34 177.853 1302.13 179.652C1316.38 185.025 1325.68 203.135 1329.03 210.667C1329.88 212.574 1330.44 214.733 1330.99 216.82C1332.47 222.373 1334.29 229.293 1342.5 229.293C1343.75 229.293 1345.13 229.125 1346.62 228.777L1348.95 228.238V174.315L1347.41 173.451C1332.3 165.008 1312.48 160.174 1293.05 160.174C1267.47 160.174 1245.11 168.366 1231.72 182.65C1220.71 194.38 1215.73 209.6 1216.91 227.878C1219.24 263.978 1246.18 276.152 1272.25 287.93C1282.01 292.343 1292.09 296.901 1300.5 302.646C1315.31 312.768 1318.87 328.887 1315.82 340.377C1312.69 352.227 1303.24 359.663 1289.89 360.766C1288.51 360.886 1287.13 360.934 1285.8 360.934C1271.95 360.934 1260.01 354.77 1250.3 342.596C1242.57 332.917 1236.2 319.221 1231.86 303.005L1231.35 301.062L1229.36 300.799L1216.95 299.179V360.035L1218.37 360.91C1235.72 371.621 1258.93 377.749 1282.05 377.749C1308.23 377.749 1330.33 369.929 1344.3 355.729C1355.7 344.131 1361.32 328.876 1361 310.369C1360.3 270.911 1331.75 257.922 1304.14 245.364L1304.11 245.412ZM1342.64 226.295C1342.64 226.295 1342.55 226.295 1342.52 226.295C1342.47 226.295 1342.44 226.295 1342.4 226.295C1342.48 226.295 1342.56 226.295 1342.64 226.295ZM1293.05 163.197C1293.12 163.197 1293.19 163.197 1293.26 163.197C1293.18 163.197 1293.09 163.197 1293.01 163.197C1293.01 163.197 1293.03 163.197 1293.05 163.197ZM1282.04 374.799C1281.97 374.799 1281.91 374.799 1281.84 374.799C1282.13 374.799 1282.41 374.799 1282.7 374.799C1282.49 374.799 1282.26 374.799 1282.04 374.799ZM1357.84 307.071C1357.91 308.175 1357.96 309.314 1357.97 310.465C1357.97 310.465 1357.97 310.465 1357.97 310.477C1357.97 310.477 1357.97 310.477 1357.97 310.465C1357.95 309.314 1357.91 308.175 1357.84 307.071Z" fill="url(#paint6_linear_113_1363)"/>
<path d="M1304.11 245.412C1295.77 241.622 1287.14 237.701 1279.48 233.095C1267.63 225.971 1256.55 212.658 1261 196.623C1264.27 184.845 1275.15 176.929 1288.09 176.929C1292.61 176.929 1297.34 177.853 1302.13 179.652C1316.38 185.025 1325.68 203.135 1329.03 210.667C1329.88 212.574 1330.44 214.733 1330.99 216.82C1332.47 222.373 1334.29 229.293 1342.5 229.293C1343.75 229.293 1345.13 229.125 1346.62 228.777L1348.95 228.238V174.315L1347.41 173.451C1332.3 165.008 1312.48 160.174 1293.05 160.174C1267.47 160.174 1245.11 168.366 1231.72 182.65C1220.71 194.38 1215.73 209.6 1216.91 227.878C1219.24 263.978 1246.18 276.152 1272.25 287.93C1282.01 292.343 1292.09 296.901 1300.5 302.646C1315.31 312.768 1318.87 328.887 1315.82 340.377C1312.69 352.227 1303.24 359.663 1289.89 360.766C1288.51 360.886 1287.13 360.934 1285.8 360.934C1271.95 360.934 1260.01 354.77 1250.3 342.596C1242.57 332.917 1236.2 319.221 1231.86 303.005L1231.35 301.062L1229.36 300.799L1216.95 299.179V360.035L1218.37 360.91C1235.72 371.621 1258.93 377.749 1282.05 377.749C1308.23 377.749 1330.33 369.929 1344.3 355.729C1355.7 344.131 1361.32 328.876 1361 310.369C1360.3 270.911 1331.75 257.922 1304.14 245.364L1304.11 245.412ZM1342.64 226.295C1342.64 226.295 1342.55 226.295 1342.52 226.295C1342.47 226.295 1342.44 226.295 1342.4 226.295C1342.48 226.295 1342.56 226.295 1342.64 226.295ZM1293.05 163.197C1293.12 163.197 1293.19 163.197 1293.26 163.197C1293.18 163.197 1293.09 163.197 1293.01 163.197C1293.01 163.197 1293.03 163.197 1293.05 163.197ZM1282.04 374.799C1281.97 374.799 1281.91 374.799 1281.84 374.799C1282.13 374.799 1282.41 374.799 1282.7 374.799C1282.49 374.799 1282.26 374.799 1282.04 374.799ZM1357.84 307.071C1357.91 308.175 1357.96 309.314 1357.97 310.465C1357.97 310.465 1357.97 310.465 1357.97 310.477C1357.97 310.477 1357.97 310.477 1357.97 310.465C1357.95 309.314 1357.91 308.175 1357.84 307.071Z" fill="url(#paint7_linear_113_1363)"/>
<path d="M291.113 146.382C292.937 146.382 294.845 146.25 296.765 145.974C305.334 144.786 312.259 140.721 316.807 134.244C320.816 128.535 322.724 121.207 322.196 113.615C321.164 98.7672 310.399 83.7393 291.821 83.7393C290.165 83.7393 288.46 83.8592 286.744 84.0991C277.995 85.2985 270.867 89.4602 266.126 96.1166C261.926 102.005 259.909 109.501 260.437 117.213C261.398 131.27 271.407 146.382 291.113 146.382ZM291.821 86.7377C291.881 86.7377 291.941 86.7377 292.013 86.7377C291.845 86.7377 291.665 86.7377 291.485 86.7377C291.593 86.7377 291.713 86.7257 291.821 86.7257V86.7377ZM291.245 143.371C291.245 143.371 291.161 143.371 291.113 143.371C291.101 143.371 291.089 143.371 291.077 143.371C291.137 143.371 291.197 143.371 291.245 143.371Z" fill="url(#paint8_linear_113_1363)"/>
<path d="M291.113 146.382C292.937 146.382 294.845 146.25 296.765 145.974C305.334 144.786 312.259 140.721 316.807 134.244C320.816 128.535 322.724 121.207 322.196 113.615C321.164 98.7672 310.399 83.7393 291.821 83.7393C290.165 83.7393 288.46 83.8592 286.744 84.0991C277.995 85.2985 270.867 89.4602 266.126 96.1166C261.926 102.005 259.909 109.501 260.437 117.213C261.398 131.27 271.407 146.382 291.113 146.382ZM291.821 86.7377C291.881 86.7377 291.941 86.7377 292.013 86.7377C291.845 86.7377 291.665 86.7377 291.485 86.7377C291.593 86.7377 291.713 86.7257 291.821 86.7257V86.7377ZM291.245 143.371C291.245 143.371 291.161 143.371 291.113 143.371C291.101 143.371 291.089 143.371 291.077 143.371C291.137 143.371 291.197 143.371 291.245 143.371Z" fill="url(#paint9_linear_113_1363)"/>
</g>
<defs>
<linearGradient id="paint0_linear_113_1363" x1="1106.35" y1="-174.405" x2="-37.5188" y2="477.021" gradientUnits="userSpaceOnUse">
<stop stop-color="#00F84E"/>
<stop offset="1" stop-color="#00C2A8"/>
</linearGradient>
<linearGradient id="paint1_linear_113_1363" x1="680.511" y1="-0.0122337" x2="680.511" y2="475.988" gradientUnits="userSpaceOnUse">
<stop stop-color="#0AC200"/>
<stop offset="1" stop-color="#078930"/>
</linearGradient>
<linearGradient id="paint2_linear_113_1363" x1="1106.35" y1="-174.405" x2="-37.5188" y2="477.021" gradientUnits="userSpaceOnUse">
<stop stop-color="#00F84E"/>
<stop offset="1" stop-color="#00C2A8"/>
</linearGradient>
<linearGradient id="paint3_linear_113_1363" x1="680.511" y1="-0.0122337" x2="680.511" y2="475.988" gradientUnits="userSpaceOnUse">
<stop stop-color="#0AC200"/>
<stop offset="1" stop-color="#078930"/>
</linearGradient>
<linearGradient id="paint4_linear_113_1363" x1="1106.35" y1="-174.405" x2="-37.5188" y2="477.021" gradientUnits="userSpaceOnUse">
<stop stop-color="#00F84E"/>
<stop offset="1" stop-color="#00C2A8"/>
</linearGradient>
<linearGradient id="paint5_linear_113_1363" x1="680.511" y1="-0.0122337" x2="680.511" y2="475.988" gradientUnits="userSpaceOnUse">
<stop stop-color="#0AC200"/>
<stop offset="1" stop-color="#078930"/>
</linearGradient>
<linearGradient id="paint6_linear_113_1363" x1="1106.35" y1="-174.405" x2="-37.5188" y2="477.021" gradientUnits="userSpaceOnUse">
<stop stop-color="#00F84E"/>
<stop offset="1" stop-color="#00C2A8"/>
</linearGradient>
<linearGradient id="paint7_linear_113_1363" x1="680.511" y1="-0.0122337" x2="680.511" y2="475.988" gradientUnits="userSpaceOnUse">
<stop stop-color="#0AC200"/>
<stop offset="1" stop-color="#078930"/>
</linearGradient>
<linearGradient id="paint8_linear_113_1363" x1="1106.35" y1="-174.405" x2="-37.5188" y2="477.021" gradientUnits="userSpaceOnUse">
<stop stop-color="#00F84E"/>
<stop offset="1" stop-color="#00C2A8"/>
</linearGradient>
<linearGradient id="paint9_linear_113_1363" x1="680.511" y1="-0.0122337" x2="680.511" y2="475.988" gradientUnits="userSpaceOnUse">
<stop stop-color="#0AC200"/>
<stop offset="1" stop-color="#078930"/>
</linearGradient>
<clipPath id="clip0_113_1363">
<rect width="1361" height="476" fill="white"/>
</clipPath>
</defs>
</svg>
