<svg width="104" height="34" viewBox="0 0 104 34" fill="none" xmlns="http://www.w3.org/2000/svg">
<g clip-path="url(#clip0_73_269)">
<path d="M20.8429 17.7929C25.0012 17.6663 28.7036 21.0981 28.9897 25.2276C29.5278 32.9977 20.032 37.1354 14.8961 30.986C10.6247 25.8707 14.2499 17.9945 20.8429 17.7939V17.7929ZM26.1763 20.5805C18.9423 13.2857 8.55015 25.2378 16.4901 31.7588C23.6212 37.615 32.6129 27.0705 26.1763 20.5805Z" fill="black"/>
<path d="M81.864 17.7929C86.0233 17.6663 89.7247 21.095 90.0108 25.2276C90.549 32.9987 81.05 37.1323 75.9173 30.986C71.653 25.88 75.2782 17.9935 81.864 17.7939V17.7929ZM81.4493 18.4134C75.5499 18.9526 72.6902 26.1063 76.4318 30.6773C79.7637 34.7481 85.9307 34.0967 88.4189 29.499C91.1736 24.4095 87.2869 17.8803 81.4493 18.4134Z" fill="black"/>
<path d="M91.2467 18.0748L102.566 31.8637V18.1777L103.087 18.2219L103.188 18.5327L103.182 33.612L91.8641 19.8241V33.5102H91.2467V18.0748Z" fill="black"/>
<path d="M63.8746 0.375549L75.1939 14.0616V0.478452H75.8113V15.8109L64.492 2.02199V15.708L64.0238 15.7862L63.8746 15.6566V0.375549Z" fill="black"/>
<path d="M25.4899 0.1698L33.0008 15.6566C33.0008 15.8563 32.23 15.7791 32.1919 15.5403L29.4887 9.96097L21.5241 9.93833L21.1804 10.1091L18.3238 15.7955L17.942 15.7976L17.8175 15.4971L25.4899 0.1698ZM29.0936 9.32812L25.3376 1.61146L21.5817 9.32709H29.0936V9.32812Z" fill="black"/>
<path d="M77.4578 0.529908C77.5484 0.23252 78.0351 0.472283 78.2306 0.478457C81.4165 0.579301 84.0971 1.53115 85.2516 4.77566C86.9701 9.60385 84.4161 15.0001 79.1537 15.707C78.7112 15.7667 77.8252 15.8531 77.4568 15.6566V0.529908H77.4578ZM79.7731 1.09587C79.272 1.03928 78.6896 1.13703 78.1781 1.09587L78.1874 15.0813C83.6381 15.283 86.5122 9.32807 84.4727 4.62851C83.6649 2.76804 81.8178 1.32534 79.7731 1.09587Z" fill="black"/>
<path d="M62.1242 19.6173C61.2311 19.2119 60.4655 18.6963 59.4745 18.5121C53.2448 17.3545 48.6646 23.9608 51.5757 29.498C53.1851 32.5583 56.4873 33.9897 59.8625 33.15C60.6733 32.9483 61.3391 32.4245 62.1253 32.1724C62.3743 33.0687 60.9285 33.4505 60.2494 33.6398C54.3088 35.2883 49.1668 30.5486 50.1011 24.5206C50.8678 19.571 56.2938 16.4212 60.9615 18.365C61.5428 18.6068 62.3187 18.8671 62.1253 19.6183L62.1242 19.6173Z" fill="black"/>
<path d="M55.2298 1.81517C55.1186 1.93248 54.1153 1.24612 53.891 1.14837C50.0373 -0.529974 45.4366 1.6886 44.1657 5.62154C42.3392 11.275 47.0357 16.8317 52.967 15.3489C53.7912 15.1431 54.4354 14.6132 55.2298 14.3713C55.4891 15.2532 54.0196 15.6504 53.3528 15.8377C47.7333 17.4214 42.7693 13.2754 43.0821 7.52214C43.362 2.3904 48.5349 -1.1515 53.4578 0.346755C54.0937 0.540212 55.4757 0.998128 55.2288 1.8162L55.2298 1.81517Z" fill="black"/>
<path d="M12.0973 18.9135C12.1395 18.9793 12.2156 19.6945 11.9614 19.6163C11.6733 19.5268 11.0425 19.0421 10.6402 18.8785C4.33431 16.3255 -1.50952 23.3763 1.49626 29.3601C3.48022 33.3085 8.48025 34.6503 12.1127 32.0685C12.0746 32.2692 12.1827 32.7384 12.0973 32.8753C12.051 32.9494 10.6947 33.5174 10.4899 33.5832C4.57716 35.4746 -0.748045 30.6598 0.0864942 24.6204C0.774912 19.642 6.10937 16.557 10.8038 18.3043C10.9725 18.3671 12.0592 18.8538 12.0973 18.9145V18.9135Z" fill="black"/>
<path d="M40.5148 2.43259C39.8315 1.59394 39.0371 0.88597 37.896 0.782039C36.0097 0.609163 34.8408 1.67935 35.0733 3.60465C35.3944 6.27291 40.9491 7.12906 41.9616 10.2995C43.18 14.112 39.7358 16.8955 36.1137 15.8387C34.9756 15.5064 33.3507 14.3868 33.6224 13.0315C34.0155 13.4041 34.1946 13.8795 34.5959 14.2695C36.6776 16.2925 40.9964 15.6689 41.4986 12.5222C42.3105 7.43057 34.6051 7.47481 34.3438 3.30521C34.2059 1.11338 35.9717 0.0112995 37.9937 0.169769C39.1339 0.259294 40.8287 1.0537 40.5148 2.43157V2.43259Z" fill="black"/>
<path d="M49.4684 18.7951H44.6319V27.1302H48.6451V27.7476H44.6319V32.9957H49.4684V33.5102H43.9116V18.3321L44.066 18.1777H49.314L49.4684 18.7951Z" fill="black"/>
<path d="M62.6399 0.992964H57.9578C57.8107 1.08352 57.8158 1.19774 57.7983 1.34798C57.5915 3.10967 57.7376 6.18645 57.7983 8.04693C57.8107 8.43178 57.7983 9.04302 57.9578 9.32806H61.8166V9.94548H57.9578C57.8107 10.036 57.8158 10.1503 57.7983 10.3005C57.6573 11.4993 57.7973 13.3979 57.8858 14.6275C57.895 14.75 57.7829 14.9064 57.8117 15.0258L57.9578 15.1935H62.6399V15.709L57.186 15.6566V0.478452L62.3826 0.375549C62.716 0.407449 62.643 0.736737 62.6399 0.992964Z" fill="black"/>
<path d="M70.6662 18.7951H67.1675V33.5102H66.4472V18.7951H62.9485V18.1777H70.5118L70.6662 18.7951Z" fill="black"/>
<path d="M31.5633 32.9957H36.2968V33.5102H30.843V18.3321C30.843 18.1808 31.3812 18.0789 31.5181 18.2744L31.5633 32.9957Z" fill="black"/>
<path d="M42.7796 32.9957V33.5102H37.4287V18.1777L38.0461 18.3321V32.8413L38.2005 32.9957H42.7796Z" fill="black"/>
<path d="M72.5184 33.5102H71.7981V18.3321C71.7981 18.1221 72.5184 18.1221 72.5184 18.3321V33.5102Z" fill="black"/>
</g>
<defs>
<clipPath id="clip0_73_269">
<rect width="103.187" height="34" fill="white"/>
</clipPath>
</defs>
</svg>
