<svg width="211" height="74" viewBox="0 0 211 74" fill="none" xmlns="http://www.w3.org/2000/svg">
<g clip-path="url(#clip0_113_1490)">
<path d="M81.4157 56.1413L81.3934 55.7777L81.0362 55.7106C79.4249 55.4104 78.6881 55.2202 78.1355 53.8423C78.0518 53.6335 77.808 52.8858 77.7745 52.7087V7.61657L77.315 7.61098H77.2499C75.8377 7.61098 74.4813 8.07338 73.1677 8.52274C72.6058 8.71479 72.0253 8.91243 71.4616 9.06532C70.6689 9.27974 69.8503 9.4662 69.0577 9.64519C68.1162 9.85775 67.1413 10.0778 66.1942 10.3537L65.8556 10.4525L65.8593 10.8068L65.8724 12.4849L66.358 12.4588C66.4417 12.4551 66.5236 12.4513 66.6036 12.4513C68.3134 12.4513 69.2307 13.4339 69.4112 15.4551L69.4019 52.3265C69.1265 54.4595 68.4642 55.388 67.1245 55.5316C66.9366 55.5521 66.7561 55.5614 66.585 55.5614C64.343 55.5614 63.7904 53.8293 63.6266 51.0362C63.234 44.322 63.4127 37.2814 63.5876 30.4721C63.7476 24.211 63.9132 17.7354 63.6341 11.5079V11.4967C63.3941 8.09389 62.047 5.18521 59.7399 3.082C57.5574 1.0944 54.6493 -0.00195312 51.5477 -0.00195312C49.6834 -0.00195312 47.8154 0.384007 45.9957 1.14661C43.309 2.27279 41.1135 4.20073 39.2864 7.03856C37.6919 9.51654 36.5662 12.3618 35.4778 15.112L35.2489 15.6882L35.2415 15.7031L24.3198 46.442L14.1815 17.8678C13.7759 15.9846 13.815 14.8678 14.3117 14.135C14.7583 13.4787 15.6179 13.0648 17.0208 12.8354L17.4115 12.772V12.3749L17.4078 11.2356V11.107L17.3408 10.997C17.1398 10.6632 16.8663 10.6148 16.7212 10.6148C16.511 10.6148 16.3472 10.7117 16.2449 10.7844C15.149 10.8087 13.9712 10.8199 12.6465 10.8199C11.1115 10.8199 9.55049 10.8049 8.03969 10.79C6.52704 10.7751 4.96414 10.7602 3.42544 10.7602C2.34629 10.7602 1.37693 10.7676 0.461518 10.7826L0.00195312 10.79L0.0149772 12.5502L0.0186984 13.0051L0.472682 13.0126C2.40583 13.0461 3.36218 14.2581 4.35573 16.3408L20.0312 58.3825L22.9988 58.5447L23.1198 58.2259C25.3525 52.3227 27.4661 46.2611 29.5127 40.399C31.4533 34.8389 33.4591 29.0868 35.5615 23.4876C35.768 22.9394 35.9801 22.3483 36.2071 21.7237C37.9989 16.7752 40.4511 9.99946 44.6989 7.96524C45.9696 7.35553 47.3297 7.03483 48.6321 7.03483C50.3811 7.03483 51.9886 7.61657 53.1608 8.67004C54.4242 9.80741 55.1516 11.4463 55.2651 13.4116L55.2689 52.9119C55.1609 54.687 53.812 55.6155 52.5319 55.6155C51.4342 55.6155 50.5039 54.9517 50.0481 53.8423C49.9308 53.5608 49.7318 53.035 49.6871 52.8802V25.1619L49.2406 25.1433C49.1661 25.1395 49.0917 25.1395 49.0173 25.1395C47.7874 25.1395 46.6209 25.5367 45.4915 25.9208C44.9798 26.0942 44.4514 26.2751 43.9342 26.4093L43.8914 26.4205C42.1889 26.8661 40.4288 27.3267 38.6706 27.6063L38.531 27.6287L38.0324 28.093L38.0007 28.2328C37.9077 28.6449 37.8352 29.167 38.1031 29.5343C38.3617 29.8885 38.7785 29.924 39.1469 29.9557C39.3553 29.9743 39.5711 29.9911 39.7795 30.0582C41.2735 30.5318 41.4242 32.9837 41.5061 34.3C41.841 39.7128 41.8801 48.0529 41.294 52.8485C41.0689 54.6963 40.28 55.4831 38.3859 55.7516L37.9933 55.8076L37.9524 57.9611H81.5292L81.4194 56.1488L81.4157 56.1413ZM16.7231 11.0809C16.7175 11.0809 16.7138 11.0809 16.7082 11.0809C16.7119 11.0809 16.7156 11.0809 16.7175 11.0809H16.7231ZM2.8133 11.2282C3.01797 11.2282 3.22077 11.2263 3.42544 11.2263C3.59475 11.2263 3.76406 11.2263 3.93338 11.2282C3.5594 11.2282 3.18728 11.2282 2.8133 11.2282ZM20.3568 57.9331L4.77994 16.1562L20.3568 57.9313V57.9331ZM40.6577 11.0268C40.9163 10.6651 41.1861 10.3183 41.4652 9.99013C41.1861 10.3183 40.9182 10.6632 40.6577 11.0268ZM44.4942 7.54199C44.3974 7.5886 44.3007 7.63708 44.2058 7.68929C44.3007 7.63894 44.3974 7.5886 44.4942 7.54199ZM51.4974 0.467912C51.5123 0.467912 51.5291 0.467912 51.544 0.467912C51.5644 0.467912 51.5849 0.467912 51.6054 0.467912C51.5682 0.467912 51.5328 0.467912 51.4956 0.467912H51.4974ZM48.9447 25.6038C48.9671 25.6038 48.9894 25.602 49.0117 25.602C49.0806 25.602 49.1475 25.602 49.2164 25.6057C49.1252 25.602 49.0359 25.602 48.9447 25.6038ZM55.6931 53.2662C55.7098 53.1543 55.7228 53.0387 55.7284 52.9212C55.721 53.0387 55.7098 53.1543 55.6931 53.2662ZM77.0898 8.08271C77.1438 8.08271 77.1978 8.07711 77.2517 8.07711C77.2722 8.07711 77.2926 8.07711 77.3113 8.07711C77.2368 8.07711 77.1643 8.07898 77.0898 8.08084V8.08271ZM79.8621 55.9381C80.1077 56.0052 80.3738 56.0611 80.6585 56.1152C80.3738 56.0593 80.1077 56.0033 79.8621 55.9381Z" fill="url(#paint0_linear_113_1490)"/>
<path d="M81.4157 56.1413L81.3934 55.7777L81.0362 55.7106C79.4249 55.4104 78.6881 55.2202 78.1355 53.8423C78.0518 53.6335 77.808 52.8858 77.7745 52.7087V7.61657L77.315 7.61098H77.2499C75.8377 7.61098 74.4813 8.07338 73.1677 8.52274C72.6058 8.71479 72.0253 8.91243 71.4616 9.06532C70.6689 9.27974 69.8503 9.4662 69.0577 9.64519C68.1162 9.85775 67.1413 10.0778 66.1942 10.3537L65.8556 10.4525L65.8593 10.8068L65.8724 12.4849L66.358 12.4588C66.4417 12.4551 66.5236 12.4513 66.6036 12.4513C68.3134 12.4513 69.2307 13.4339 69.4112 15.4551L69.4019 52.3265C69.1265 54.4595 68.4642 55.388 67.1245 55.5316C66.9366 55.5521 66.7561 55.5614 66.585 55.5614C64.343 55.5614 63.7904 53.8293 63.6266 51.0362C63.234 44.322 63.4127 37.2814 63.5876 30.4721C63.7476 24.211 63.9132 17.7354 63.6341 11.5079V11.4967C63.3941 8.09389 62.047 5.18521 59.7399 3.082C57.5574 1.0944 54.6493 -0.00195312 51.5477 -0.00195312C49.6834 -0.00195312 47.8154 0.384007 45.9957 1.14661C43.309 2.27279 41.1135 4.20073 39.2864 7.03856C37.6919 9.51654 36.5662 12.3618 35.4778 15.112L35.2489 15.6882L35.2415 15.7031L24.3198 46.442L14.1815 17.8678C13.7759 15.9846 13.815 14.8678 14.3117 14.135C14.7583 13.4787 15.6179 13.0648 17.0208 12.8354L17.4115 12.772V12.3749L17.4078 11.2356V11.107L17.3408 10.997C17.1398 10.6632 16.8663 10.6148 16.7212 10.6148C16.511 10.6148 16.3472 10.7117 16.2449 10.7844C15.149 10.8087 13.9712 10.8199 12.6465 10.8199C11.1115 10.8199 9.55049 10.8049 8.03969 10.79C6.52704 10.7751 4.96414 10.7602 3.42544 10.7602C2.34629 10.7602 1.37693 10.7676 0.461518 10.7826L0.00195312 10.79L0.0149772 12.5502L0.0186984 13.0051L0.472682 13.0126C2.40583 13.0461 3.36218 14.2581 4.35573 16.3408L20.0312 58.3825L22.9988 58.5447L23.1198 58.2259C25.3525 52.3227 27.4661 46.2611 29.5127 40.399C31.4533 34.8389 33.4591 29.0868 35.5615 23.4876C35.768 22.9394 35.9801 22.3483 36.2071 21.7237C37.9989 16.7752 40.4511 9.99946 44.6989 7.96524C45.9696 7.35553 47.3297 7.03483 48.6321 7.03483C50.3811 7.03483 51.9886 7.61657 53.1608 8.67004C54.4242 9.80741 55.1516 11.4463 55.2651 13.4116L55.2689 52.9119C55.1609 54.687 53.812 55.6155 52.5319 55.6155C51.4342 55.6155 50.5039 54.9517 50.0481 53.8423C49.9308 53.5608 49.7318 53.035 49.6871 52.8802V25.1619L49.2406 25.1433C49.1661 25.1395 49.0917 25.1395 49.0173 25.1395C47.7874 25.1395 46.6209 25.5367 45.4915 25.9208C44.9798 26.0942 44.4514 26.2751 43.9342 26.4093L43.8914 26.4205C42.1889 26.8661 40.4288 27.3267 38.6706 27.6063L38.531 27.6287L38.0324 28.093L38.0007 28.2328C37.9077 28.6449 37.8352 29.167 38.1031 29.5343C38.3617 29.8885 38.7785 29.924 39.1469 29.9557C39.3553 29.9743 39.5711 29.9911 39.7795 30.0582C41.2735 30.5318 41.4242 32.9837 41.5061 34.3C41.841 39.7128 41.8801 48.0529 41.294 52.8485C41.0689 54.6963 40.28 55.4831 38.3859 55.7516L37.9933 55.8076L37.9524 57.9611H81.5292L81.4194 56.1488L81.4157 56.1413ZM16.7231 11.0809C16.7175 11.0809 16.7138 11.0809 16.7082 11.0809C16.7119 11.0809 16.7156 11.0809 16.7175 11.0809H16.7231ZM2.8133 11.2282C3.01797 11.2282 3.22077 11.2263 3.42544 11.2263C3.59475 11.2263 3.76406 11.2263 3.93338 11.2282C3.5594 11.2282 3.18728 11.2282 2.8133 11.2282ZM20.3568 57.9331L4.77994 16.1562L20.3568 57.9313V57.9331ZM40.6577 11.0268C40.9163 10.6651 41.1861 10.3183 41.4652 9.99013C41.1861 10.3183 40.9182 10.6632 40.6577 11.0268ZM44.4942 7.54199C44.3974 7.5886 44.3007 7.63708 44.2058 7.68929C44.3007 7.63894 44.3974 7.5886 44.4942 7.54199ZM51.4974 0.467912C51.5123 0.467912 51.5291 0.467912 51.544 0.467912C51.5644 0.467912 51.5849 0.467912 51.6054 0.467912C51.5682 0.467912 51.5328 0.467912 51.4956 0.467912H51.4974ZM48.9447 25.6038C48.9671 25.6038 48.9894 25.602 49.0117 25.602C49.0806 25.602 49.1475 25.602 49.2164 25.6057C49.1252 25.602 49.0359 25.602 48.9447 25.6038ZM55.6931 53.2662C55.7098 53.1543 55.7228 53.0387 55.7284 52.9212C55.721 53.0387 55.7098 53.1543 55.6931 53.2662ZM77.0898 8.08271C77.1438 8.08271 77.1978 8.07711 77.2517 8.07711C77.2722 8.07711 77.2926 8.07711 77.3113 8.07711C77.2368 8.07711 77.1643 8.07898 77.0898 8.08084V8.08271ZM79.8621 55.9381C80.1077 56.0052 80.3738 56.0611 80.6585 56.1152C80.3738 56.0593 80.1077 56.0033 79.8621 55.9381Z" fill="#03879E"/>
<path d="M81.4157 56.1413L81.3934 55.7777L81.0362 55.7106C79.4249 55.4104 78.6881 55.2202 78.1355 53.8423C78.0518 53.6335 77.808 52.8858 77.7745 52.7087V7.61657L77.315 7.61098H77.2499C75.8377 7.61098 74.4813 8.07338 73.1677 8.52274C72.6058 8.71479 72.0253 8.91243 71.4616 9.06532C70.6689 9.27974 69.8503 9.4662 69.0577 9.64519C68.1162 9.85775 67.1413 10.0778 66.1942 10.3537L65.8556 10.4525L65.8593 10.8068L65.8724 12.4849L66.358 12.4588C66.4417 12.4551 66.5236 12.4513 66.6036 12.4513C68.3134 12.4513 69.2307 13.4339 69.4112 15.4551L69.4019 52.3265C69.1265 54.4595 68.4642 55.388 67.1245 55.5316C66.9366 55.5521 66.7561 55.5614 66.585 55.5614C64.343 55.5614 63.7904 53.8293 63.6266 51.0362C63.234 44.322 63.4127 37.2814 63.5876 30.4721C63.7476 24.211 63.9132 17.7354 63.6341 11.5079V11.4967C63.3941 8.09389 62.047 5.18521 59.7399 3.082C57.5574 1.0944 54.6493 -0.00195312 51.5477 -0.00195312C49.6834 -0.00195312 47.8154 0.384007 45.9957 1.14661C43.309 2.27279 41.1135 4.20073 39.2864 7.03856C37.6919 9.51654 36.5662 12.3618 35.4778 15.112L35.2489 15.6882L35.2415 15.7031L24.3198 46.442L14.1815 17.8678C13.7759 15.9846 13.815 14.8678 14.3117 14.135C14.7583 13.4787 15.6179 13.0648 17.0208 12.8354L17.4115 12.772V12.3749L17.4078 11.2356V11.107L17.3408 10.997C17.1398 10.6632 16.8663 10.6148 16.7212 10.6148C16.511 10.6148 16.3472 10.7117 16.2449 10.7844C15.149 10.8087 13.9712 10.8199 12.6465 10.8199C11.1115 10.8199 9.55049 10.8049 8.03969 10.79C6.52704 10.7751 4.96414 10.7602 3.42544 10.7602C2.34629 10.7602 1.37693 10.7676 0.461518 10.7826L0.00195312 10.79L0.0149772 12.5502L0.0186984 13.0051L0.472682 13.0126C2.40583 13.0461 3.36218 14.2581 4.35573 16.3408L20.0312 58.3825L22.9988 58.5447L23.1198 58.2259C25.3525 52.3227 27.4661 46.2611 29.5127 40.399C31.4533 34.8389 33.4591 29.0868 35.5615 23.4876C35.768 22.9394 35.9801 22.3483 36.2071 21.7237C37.9989 16.7752 40.4511 9.99946 44.6989 7.96524C45.9696 7.35553 47.3297 7.03483 48.6321 7.03483C50.3811 7.03483 51.9886 7.61657 53.1608 8.67004C54.4242 9.80741 55.1516 11.4463 55.2651 13.4116L55.2689 52.9119C55.1609 54.687 53.812 55.6155 52.5319 55.6155C51.4342 55.6155 50.5039 54.9517 50.0481 53.8423C49.9308 53.5608 49.7318 53.035 49.6871 52.8802V25.1619L49.2406 25.1433C49.1661 25.1395 49.0917 25.1395 49.0173 25.1395C47.7874 25.1395 46.6209 25.5367 45.4915 25.9208C44.9798 26.0942 44.4514 26.2751 43.9342 26.4093L43.8914 26.4205C42.1889 26.8661 40.4288 27.3267 38.6706 27.6063L38.531 27.6287L38.0324 28.093L38.0007 28.2328C37.9077 28.6449 37.8352 29.167 38.1031 29.5343C38.3617 29.8885 38.7785 29.924 39.1469 29.9557C39.3553 29.9743 39.5711 29.9911 39.7795 30.0582C41.2735 30.5318 41.4242 32.9837 41.5061 34.3C41.841 39.7128 41.8801 48.0529 41.294 52.8485C41.0689 54.6963 40.28 55.4831 38.3859 55.7516L37.9933 55.8076L37.9524 57.9611H81.5292L81.4194 56.1488L81.4157 56.1413ZM16.7231 11.0809C16.7175 11.0809 16.7138 11.0809 16.7082 11.0809C16.7119 11.0809 16.7156 11.0809 16.7175 11.0809H16.7231ZM2.8133 11.2282C3.01797 11.2282 3.22077 11.2263 3.42544 11.2263C3.59475 11.2263 3.76406 11.2263 3.93338 11.2282C3.5594 11.2282 3.18728 11.2282 2.8133 11.2282ZM20.3568 57.9331L4.77994 16.1562L20.3568 57.9313V57.9331ZM40.6577 11.0268C40.9163 10.6651 41.1861 10.3183 41.4652 9.99013C41.1861 10.3183 40.9182 10.6632 40.6577 11.0268ZM44.4942 7.54199C44.3974 7.5886 44.3007 7.63708 44.2058 7.68929C44.3007 7.63894 44.3974 7.5886 44.4942 7.54199ZM51.4974 0.467912C51.5123 0.467912 51.5291 0.467912 51.544 0.467912C51.5644 0.467912 51.5849 0.467912 51.6054 0.467912C51.5682 0.467912 51.5328 0.467912 51.4956 0.467912H51.4974ZM48.9447 25.6038C48.9671 25.6038 48.9894 25.602 49.0117 25.602C49.0806 25.602 49.1475 25.602 49.2164 25.6057C49.1252 25.602 49.0359 25.602 48.9447 25.6038ZM55.6931 53.2662C55.7098 53.1543 55.7228 53.0387 55.7284 52.9212C55.721 53.0387 55.7098 53.1543 55.6931 53.2662ZM77.0898 8.08271C77.1438 8.08271 77.1978 8.07711 77.2517 8.07711C77.2722 8.07711 77.2926 8.07711 77.3113 8.07711C77.2368 8.07711 77.1643 8.07898 77.0898 8.08084V8.08271ZM79.8621 55.9381C80.1077 56.0052 80.3738 56.0611 80.6585 56.1152C80.3738 56.0593 80.1077 56.0033 79.8621 55.9381Z" fill="url(#paint1_linear_113_1490)"/>
<path d="M184.62 24.9476C184.427 24.9327 184.233 24.9233 184.042 24.9233C181.266 24.9233 178.756 26.6275 176.975 29.7227L176.966 29.7395L176.958 29.7581L176.387 30.9756V25.5647L176.315 25.451C176.197 25.2646 175.95 25.0427 175.435 25.0427C175.094 25.0427 174.731 25.1359 174.491 25.1974L174.46 25.2049C173.286 25.5051 172.115 25.8948 170.982 26.2714C169.209 26.8606 167.376 27.4703 165.516 27.7425L165.14 27.7985L165.12 28.1788L165.034 29.7376L165.477 29.7805C167.33 29.9632 168.108 30.6065 168.348 32.1559C169.153 37.3766 167.304 44.3165 163.949 48.659C161.834 51.3961 159.227 52.994 156.41 53.2756C155.993 53.3166 155.584 53.339 155.19 53.339C152.734 53.339 150.698 52.5279 149.139 50.9281C146.897 48.6254 145.647 44.6148 145.68 39.8732H164.666V35.9577C164.666 33.944 163.86 31.7457 162.394 29.7693C160.976 27.8563 159.082 26.3814 157.197 25.7214C155.32 25.065 153.489 24.7313 151.757 24.7313C147.649 24.7313 144.093 26.566 141.477 30.0341C139.148 33.1217 137.78 37.2237 137.626 41.5849C137.475 45.8715 138.543 49.9008 140.634 52.9269C143.027 56.3912 146.631 58.3882 151.052 58.7014C151.481 58.7312 151.911 58.748 152.33 58.748C156.336 58.748 159.863 57.3384 162.818 54.5584C165.032 52.4738 166.978 49.5558 168.61 45.8752C168.595 46.7497 168.534 47.626 168.474 48.4818C168.441 48.9498 168.407 49.4328 168.381 49.9101C168.357 50.365 168.351 50.82 168.348 51.26C168.323 53.6727 168.307 55.4179 165.475 55.7517L165.071 55.8002L165.03 57.963H181.66L181.42 56.0295L181.372 55.6361L180.977 55.6212C178.75 55.5354 177.455 55.17 176.983 53.4937C176.354 51.2563 176.564 41.4059 176.75 38.404C176.798 37.6321 176.998 35.6594 177.818 34.0298C178.56 32.5531 179.587 31.8035 180.869 31.8035C181.074 31.8035 181.29 31.8222 181.511 31.8594C181.85 31.9172 182.254 32.2305 182.644 32.5325C183.063 32.857 183.495 33.1907 183.954 33.297C184.276 33.3697 184.594 33.407 184.899 33.407C185.956 33.407 186.913 32.9577 187.594 32.1391C188.204 31.4064 188.565 30.4331 188.606 29.4001C188.689 27.3547 187.489 25.1862 184.622 24.9513L184.62 24.9476ZM151.755 25.1937C151.775 25.1937 151.796 25.1937 151.816 25.1937C151.746 25.1937 151.675 25.1937 151.604 25.1937C151.654 25.1937 151.703 25.1918 151.753 25.1918L151.755 25.1937ZM147.219 31.026C148.296 28.7009 149.82 27.5225 151.749 27.5225C152.034 27.5225 152.332 27.5486 152.635 27.6008C153.675 27.778 154.561 28.4343 155.27 29.5474C156.641 31.7028 156.961 35.0441 156.488 37.0149C156.453 37.0354 156.416 37.0559 156.386 37.0708H145.883C145.954 34.9303 146.443 32.7022 147.221 31.0241L147.219 31.026ZM151.085 58.2315C151.344 58.2502 151.597 58.2614 151.848 58.267C151.597 58.2595 151.344 58.2483 151.085 58.2315ZM152.33 58.2763C152.242 58.2763 152.155 58.2726 152.066 58.2707C152.231 58.2726 152.393 58.2707 152.555 58.2707C152.479 58.2707 152.406 58.2763 152.328 58.2763H152.33ZM175.42 25.5088C175.42 25.5088 175.431 25.5088 175.435 25.5088C175.438 25.5088 175.444 25.5088 175.45 25.5088C175.44 25.5088 175.429 25.5088 175.42 25.5088ZM184.01 25.3895C184.021 25.3895 184.031 25.3895 184.042 25.3895C184.094 25.3895 184.148 25.3913 184.2 25.3932C184.137 25.3932 184.073 25.3895 184.01 25.3913V25.3895ZM184.896 32.9353C184.855 32.9353 184.814 32.9334 184.773 32.9316C184.814 32.9316 184.855 32.9353 184.896 32.9353Z" fill="url(#paint2_linear_113_1490)"/>
<path d="M184.62 24.9476C184.427 24.9327 184.233 24.9233 184.042 24.9233C181.266 24.9233 178.756 26.6275 176.975 29.7227L176.966 29.7395L176.958 29.7581L176.387 30.9756V25.5647L176.315 25.451C176.197 25.2646 175.95 25.0427 175.435 25.0427C175.094 25.0427 174.731 25.1359 174.491 25.1974L174.46 25.2049C173.286 25.5051 172.115 25.8948 170.982 26.2714C169.209 26.8606 167.376 27.4703 165.516 27.7425L165.14 27.7985L165.12 28.1788L165.034 29.7376L165.477 29.7805C167.33 29.9632 168.108 30.6065 168.348 32.1559C169.153 37.3766 167.304 44.3165 163.949 48.659C161.834 51.3961 159.227 52.994 156.41 53.2756C155.993 53.3166 155.584 53.339 155.19 53.339C152.734 53.339 150.698 52.5279 149.139 50.9281C146.897 48.6254 145.647 44.6148 145.68 39.8732H164.666V35.9577C164.666 33.944 163.86 31.7457 162.394 29.7693C160.976 27.8563 159.082 26.3814 157.197 25.7214C155.32 25.065 153.489 24.7313 151.757 24.7313C147.649 24.7313 144.093 26.566 141.477 30.0341C139.148 33.1217 137.78 37.2237 137.626 41.5849C137.475 45.8715 138.543 49.9008 140.634 52.9269C143.027 56.3912 146.631 58.3882 151.052 58.7014C151.481 58.7312 151.911 58.748 152.33 58.748C156.336 58.748 159.863 57.3384 162.818 54.5584C165.032 52.4738 166.978 49.5558 168.61 45.8752C168.595 46.7497 168.534 47.626 168.474 48.4818C168.441 48.9498 168.407 49.4328 168.381 49.9101C168.357 50.365 168.351 50.82 168.348 51.26C168.323 53.6727 168.307 55.4179 165.475 55.7517L165.071 55.8002L165.03 57.963H181.66L181.42 56.0295L181.372 55.6361L180.977 55.6212C178.75 55.5354 177.455 55.17 176.983 53.4937C176.354 51.2563 176.564 41.4059 176.75 38.404C176.798 37.6321 176.998 35.6594 177.818 34.0298C178.56 32.5531 179.587 31.8035 180.869 31.8035C181.074 31.8035 181.29 31.8222 181.511 31.8594C181.85 31.9172 182.254 32.2305 182.644 32.5325C183.063 32.857 183.495 33.1907 183.954 33.297C184.276 33.3697 184.594 33.407 184.899 33.407C185.956 33.407 186.913 32.9577 187.594 32.1391C188.204 31.4064 188.565 30.4331 188.606 29.4001C188.689 27.3547 187.489 25.1862 184.622 24.9513L184.62 24.9476ZM151.755 25.1937C151.775 25.1937 151.796 25.1937 151.816 25.1937C151.746 25.1937 151.675 25.1937 151.604 25.1937C151.654 25.1937 151.703 25.1918 151.753 25.1918L151.755 25.1937ZM147.219 31.026C148.296 28.7009 149.82 27.5225 151.749 27.5225C152.034 27.5225 152.332 27.5486 152.635 27.6008C153.675 27.778 154.561 28.4343 155.27 29.5474C156.641 31.7028 156.961 35.0441 156.488 37.0149C156.453 37.0354 156.416 37.0559 156.386 37.0708H145.883C145.954 34.9303 146.443 32.7022 147.221 31.0241L147.219 31.026ZM151.085 58.2315C151.344 58.2502 151.597 58.2614 151.848 58.267C151.597 58.2595 151.344 58.2483 151.085 58.2315ZM152.33 58.2763C152.242 58.2763 152.155 58.2726 152.066 58.2707C152.231 58.2726 152.393 58.2707 152.555 58.2707C152.479 58.2707 152.406 58.2763 152.328 58.2763H152.33ZM175.42 25.5088C175.42 25.5088 175.431 25.5088 175.435 25.5088C175.438 25.5088 175.444 25.5088 175.45 25.5088C175.44 25.5088 175.429 25.5088 175.42 25.5088ZM184.01 25.3895C184.021 25.3895 184.031 25.3895 184.042 25.3895C184.094 25.3895 184.148 25.3913 184.2 25.3932C184.137 25.3932 184.073 25.3895 184.01 25.3913V25.3895ZM184.896 32.9353C184.855 32.9353 184.814 32.9334 184.773 32.9316C184.814 32.9316 184.855 32.9353 184.896 32.9353Z" fill="#03879E"/>
<path d="M184.62 24.9476C184.427 24.9327 184.233 24.9233 184.042 24.9233C181.266 24.9233 178.756 26.6275 176.975 29.7227L176.966 29.7395L176.958 29.7581L176.387 30.9756V25.5647L176.315 25.451C176.197 25.2646 175.95 25.0427 175.435 25.0427C175.094 25.0427 174.731 25.1359 174.491 25.1974L174.46 25.2049C173.286 25.5051 172.115 25.8948 170.982 26.2714C169.209 26.8606 167.376 27.4703 165.516 27.7425L165.14 27.7985L165.12 28.1788L165.034 29.7376L165.477 29.7805C167.33 29.9632 168.108 30.6065 168.348 32.1559C169.153 37.3766 167.304 44.3165 163.949 48.659C161.834 51.3961 159.227 52.994 156.41 53.2756C155.993 53.3166 155.584 53.339 155.19 53.339C152.734 53.339 150.698 52.5279 149.139 50.9281C146.897 48.6254 145.647 44.6148 145.68 39.8732H164.666V35.9577C164.666 33.944 163.86 31.7457 162.394 29.7693C160.976 27.8563 159.082 26.3814 157.197 25.7214C155.32 25.065 153.489 24.7313 151.757 24.7313C147.649 24.7313 144.093 26.566 141.477 30.0341C139.148 33.1217 137.78 37.2237 137.626 41.5849C137.475 45.8715 138.543 49.9008 140.634 52.9269C143.027 56.3912 146.631 58.3882 151.052 58.7014C151.481 58.7312 151.911 58.748 152.33 58.748C156.336 58.748 159.863 57.3384 162.818 54.5584C165.032 52.4738 166.978 49.5558 168.61 45.8752C168.595 46.7497 168.534 47.626 168.474 48.4818C168.441 48.9498 168.407 49.4328 168.381 49.9101C168.357 50.365 168.351 50.82 168.348 51.26C168.323 53.6727 168.307 55.4179 165.475 55.7517L165.071 55.8002L165.03 57.963H181.66L181.42 56.0295L181.372 55.6361L180.977 55.6212C178.75 55.5354 177.455 55.17 176.983 53.4937C176.354 51.2563 176.564 41.4059 176.75 38.404C176.798 37.6321 176.998 35.6594 177.818 34.0298C178.56 32.5531 179.587 31.8035 180.869 31.8035C181.074 31.8035 181.29 31.8222 181.511 31.8594C181.85 31.9172 182.254 32.2305 182.644 32.5325C183.063 32.857 183.495 33.1907 183.954 33.297C184.276 33.3697 184.594 33.407 184.899 33.407C185.956 33.407 186.913 32.9577 187.594 32.1391C188.204 31.4064 188.565 30.4331 188.606 29.4001C188.689 27.3547 187.489 25.1862 184.622 24.9513L184.62 24.9476ZM151.755 25.1937C151.775 25.1937 151.796 25.1937 151.816 25.1937C151.746 25.1937 151.675 25.1937 151.604 25.1937C151.654 25.1937 151.703 25.1918 151.753 25.1918L151.755 25.1937ZM147.219 31.026C148.296 28.7009 149.82 27.5225 151.749 27.5225C152.034 27.5225 152.332 27.5486 152.635 27.6008C153.675 27.778 154.561 28.4343 155.27 29.5474C156.641 31.7028 156.961 35.0441 156.488 37.0149C156.453 37.0354 156.416 37.0559 156.386 37.0708H145.883C145.954 34.9303 146.443 32.7022 147.221 31.0241L147.219 31.026ZM151.085 58.2315C151.344 58.2502 151.597 58.2614 151.848 58.267C151.597 58.2595 151.344 58.2483 151.085 58.2315ZM152.33 58.2763C152.242 58.2763 152.155 58.2726 152.066 58.2707C152.231 58.2726 152.393 58.2707 152.555 58.2707C152.479 58.2707 152.406 58.2763 152.328 58.2763H152.33ZM175.42 25.5088C175.42 25.5088 175.431 25.5088 175.435 25.5088C175.438 25.5088 175.444 25.5088 175.45 25.5088C175.44 25.5088 175.429 25.5088 175.42 25.5088ZM184.01 25.3895C184.021 25.3895 184.031 25.3895 184.042 25.3895C184.094 25.3895 184.148 25.3913 184.2 25.3932C184.137 25.3932 184.073 25.3895 184.01 25.3913V25.3895ZM184.896 32.9353C184.855 32.9353 184.814 32.9334 184.773 32.9316C184.814 32.9316 184.855 32.9353 184.896 32.9353Z" fill="url(#paint3_linear_113_1490)"/>
<path d="M133.22 53.6653C130.222 52.692 126.494 52.6882 123.202 52.6864C121.502 52.6864 119.894 52.6845 118.571 52.5484C117.909 52.4813 116.878 52.1662 116.592 51.8753C116.292 51.5714 116.164 51.1966 116.203 50.7305C116.268 49.9268 116.941 48.6608 117.97 47.8348C119.647 48.3308 121.364 48.5806 123.081 48.5806C125.299 48.5806 127.435 48.1406 129.26 47.3072C131.29 46.3805 132.935 44.9933 134.15 43.1884C136.881 39.1255 136.677 33.2448 133.674 29.512C133.555 29.3628 133.317 29.1353 133.015 28.8482C132.732 28.5778 132.256 28.1229 132.031 27.8525C132.048 27.8339 132.062 27.8171 132.079 27.7984C132.589 27.2354 133.223 26.5343 133.86 26.4485C133.936 26.4373 134.014 26.4336 134.092 26.4336C134.589 26.4336 135.054 26.6462 135.547 26.8736C136.091 27.1216 136.651 27.3789 137.307 27.3789H137.324C138.777 27.3696 139.925 26.2099 140.117 24.5579C140.21 23.7505 140.054 22.945 139.678 22.2887C139.242 21.5317 138.55 21.019 137.674 20.8064C137.28 20.7113 136.881 20.6628 136.491 20.6628C133.504 20.6628 131.08 23.5007 129.897 26.4597C127.696 25.4454 125.292 24.9121 122.912 24.9121C118.994 24.9121 115.408 26.3646 113.075 28.8967C110.865 31.2963 109.853 34.5257 110.15 38.2362C110.402 41.3891 112.137 44.1244 115.447 46.5744C112.91 47.8404 110.937 50.475 110.632 53.1227C110.627 53.1656 110.627 53.2084 110.621 53.2513L110.576 53.0183L110.007 53.3595C109.268 53.8032 108.649 54.0288 108.165 54.0288C107.839 54.0288 107.588 53.9282 107.374 53.7137C106.511 52.843 106.526 50.4154 106.537 48.6422C106.539 48.3047 106.541 47.9859 106.537 47.6931C106.524 46.6229 106.563 45.2935 106.604 43.8876C106.751 38.8962 106.935 32.6835 105.171 29.4747C103.579 26.5734 99.9264 24.9084 95.154 24.9084C90.6662 24.9084 86.305 26.4038 84.0426 28.7177C82.4852 30.31 81.8657 32.8308 82.6006 34.5835C83.1272 35.8421 84.2398 36.5338 85.7301 36.5338C85.9366 36.5338 86.1543 36.5208 86.3757 36.4928C88.9601 36.1796 89.3248 34.1509 89.6448 32.361C89.7564 31.7438 89.8699 31.1043 90.0709 30.5636C90.7704 28.6785 92.2961 27.5076 94.0507 27.5076C95.7624 27.5076 97.2174 28.6766 97.8463 30.5561C98.3449 32.0477 98.6333 36.1926 98.4454 37.77C98.4398 37.8148 98.4361 37.8595 98.4342 37.9043C98.4342 37.9173 98.4342 37.9304 98.4305 37.9434C97.0778 38.5494 95.3419 39.0566 93.5092 39.5917C90.8337 40.3729 88.0689 41.1784 85.7562 42.4612C83.036 43.9678 81.4917 45.8621 81.034 48.2525C80.1037 53.1115 82.7978 57.385 87.4418 58.4142C88.3349 58.6119 89.228 58.7126 90.095 58.7126C93.3976 58.7126 96.4062 57.2843 98.8473 54.5696C99.2119 55.733 99.8557 56.7026 100.736 57.4074C101.802 58.2632 103.195 58.7144 104.764 58.7144C104.956 58.7144 105.151 58.707 105.346 58.6939C106.894 58.5877 108.947 57.8418 110.041 56.4136C110.387 55.9624 110.606 55.4701 110.705 54.9537C111.001 56.4043 111.879 57.6591 113.28 58.5876L113.297 58.5988L113.313 58.6082L114.512 59.2626C112.787 59.96 111.343 60.95 110.297 62.1582C109.112 63.5268 108.493 65.1452 108.55 66.7133C108.666 69.8215 111.276 72.292 115.533 73.3231C117.36 73.765 119.459 73.9981 121.602 73.9981C124.477 73.9981 127.292 73.5842 129.746 72.8011C132.565 71.9024 134.798 70.5673 136.383 68.8352C138.388 66.6443 139.265 63.9109 138.988 60.7132C138.677 57.1296 136.792 54.8231 133.222 53.6634L133.22 53.6653ZM137.317 26.9109C137.317 26.9109 137.307 26.9109 137.304 26.9109C137.233 26.9109 137.162 26.9072 137.094 26.8997C137.168 26.9072 137.242 26.9109 137.317 26.9109ZM136.485 21.1271C136.5 21.1271 136.515 21.1271 136.532 21.1271C136.465 21.1271 136.4 21.1271 136.333 21.1308C136.383 21.1308 136.433 21.1252 136.485 21.1252V21.1271ZM123.08 48.1145C123.04 48.1145 123 48.1126 122.96 48.1126C123.065 48.1126 123.167 48.1126 123.271 48.1126C123.208 48.1126 123.143 48.1145 123.08 48.1145ZM122.907 25.3764C122.953 25.3764 123.001 25.3764 123.048 25.3783C122.985 25.3783 122.921 25.3783 122.858 25.3783C122.875 25.3783 122.89 25.3783 122.907 25.3783V25.3764ZM118.169 33.806C118.454 31.837 119.619 28.0073 121.995 27.6008C122.298 27.5486 122.598 27.5225 122.882 27.5225C124.075 27.5225 126.246 28.0446 127.376 31.5369C127.878 33.0919 128.153 35.5456 128.079 37.7905C127.986 40.5426 127.394 42.8379 126.41 44.2549C125.629 45.3792 124.594 45.9777 123.331 46.0299C123.262 46.0337 123.195 46.0337 123.128 46.0337C121.935 46.0337 120.927 45.5675 120.132 44.6465C117.929 42.0958 117.758 36.6438 118.169 33.8079V33.806ZM85.7264 36.0696C85.6985 36.0696 85.6724 36.0677 85.6464 36.0658C85.7171 36.0658 85.7896 36.0658 85.8641 36.0658C85.8176 36.0658 85.771 36.0696 85.7264 36.0696ZM89.6318 30.4013C89.5666 30.5766 89.5108 30.7593 89.4606 30.9477C89.5108 30.7612 89.5666 30.5785 89.6318 30.4013C89.682 30.2634 89.7378 30.131 89.7955 30.0005C89.7378 30.1291 89.682 30.2634 89.6318 30.4013ZM95.0498 25.3783C95.0833 25.3783 95.1168 25.3783 95.1503 25.3783C95.1819 25.3783 95.2117 25.3783 95.2433 25.3783C95.1782 25.3783 95.1131 25.3783 95.0498 25.3783ZM88.9303 50.7845C88.8745 50.5794 88.828 50.3799 88.7908 50.1823C88.8299 50.3799 88.8764 50.5794 88.9303 50.7845C88.9359 50.8013 88.9415 50.8181 88.9452 50.8349C88.9396 50.8181 88.934 50.8013 88.9303 50.7845ZM90.0895 58.2464C90.0895 58.2464 90.0876 58.2464 90.0857 58.2464C90.0913 58.2464 90.0969 58.2464 90.1025 58.2464C90.0988 58.2464 90.0932 58.2464 90.0895 58.2464ZM98.4286 51.2805C97.2844 52.8654 95.3475 53.8834 93.4515 53.8834C91.4142 53.8834 89.9313 52.7087 89.3806 50.6633C88.9061 48.8958 89.0624 47.3165 89.8476 45.9684C91.0942 43.8261 93.9037 42.1778 98.4286 40.9397V51.2805ZM104.758 58.2502C104.758 58.2502 104.749 58.2502 104.745 58.2502C104.76 58.2502 104.775 58.2502 104.788 58.2502C104.779 58.2502 104.768 58.2502 104.758 58.2502ZM121.599 73.5338C121.589 73.5338 121.58 73.5338 121.571 73.5338C121.714 73.5338 121.855 73.5338 121.999 73.532C121.865 73.532 121.731 73.5357 121.599 73.5357V73.5338ZM130.15 69.5474C128.578 70.5151 125.988 71.1155 123.394 71.1155C121.439 71.1155 119.706 70.7762 118.517 70.159C116.633 69.182 115.46 67.4666 115.3 65.4529C115.137 63.387 116.061 61.3789 117.779 60.0495L128.862 60.4242C131.03 60.6536 132.509 61.8245 132.92 63.6368C133.413 65.8109 132.275 68.2404 130.15 69.5456V69.5474Z" fill="url(#paint4_linear_113_1490)"/>
<path d="M133.22 53.6653C130.222 52.692 126.494 52.6882 123.202 52.6864C121.502 52.6864 119.894 52.6845 118.571 52.5484C117.909 52.4813 116.878 52.1662 116.592 51.8753C116.292 51.5714 116.164 51.1966 116.203 50.7305C116.268 49.9268 116.941 48.6608 117.97 47.8348C119.647 48.3308 121.364 48.5806 123.081 48.5806C125.299 48.5806 127.435 48.1406 129.26 47.3072C131.29 46.3805 132.935 44.9933 134.15 43.1884C136.881 39.1255 136.677 33.2448 133.674 29.512C133.555 29.3628 133.317 29.1353 133.015 28.8482C132.732 28.5778 132.256 28.1229 132.031 27.8525C132.048 27.8339 132.062 27.8171 132.079 27.7984C132.589 27.2354 133.223 26.5343 133.86 26.4485C133.936 26.4373 134.014 26.4336 134.092 26.4336C134.589 26.4336 135.054 26.6462 135.547 26.8736C136.091 27.1216 136.651 27.3789 137.307 27.3789H137.324C138.777 27.3696 139.925 26.2099 140.117 24.5579C140.21 23.7505 140.054 22.945 139.678 22.2887C139.242 21.5317 138.55 21.019 137.674 20.8064C137.28 20.7113 136.881 20.6628 136.491 20.6628C133.504 20.6628 131.08 23.5007 129.897 26.4597C127.696 25.4454 125.292 24.9121 122.912 24.9121C118.994 24.9121 115.408 26.3646 113.075 28.8967C110.865 31.2963 109.853 34.5257 110.15 38.2362C110.402 41.3891 112.137 44.1244 115.447 46.5744C112.91 47.8404 110.937 50.475 110.632 53.1227C110.627 53.1656 110.627 53.2084 110.621 53.2513L110.576 53.0183L110.007 53.3595C109.268 53.8032 108.649 54.0288 108.165 54.0288C107.839 54.0288 107.588 53.9282 107.374 53.7137C106.511 52.843 106.526 50.4154 106.537 48.6422C106.539 48.3047 106.541 47.9859 106.537 47.6931C106.524 46.6229 106.563 45.2935 106.604 43.8876C106.751 38.8962 106.935 32.6835 105.171 29.4747C103.579 26.5734 99.9264 24.9084 95.154 24.9084C90.6662 24.9084 86.305 26.4038 84.0426 28.7177C82.4852 30.31 81.8657 32.8308 82.6006 34.5835C83.1272 35.8421 84.2398 36.5338 85.7301 36.5338C85.9366 36.5338 86.1543 36.5208 86.3757 36.4928C88.9601 36.1796 89.3248 34.1509 89.6448 32.361C89.7564 31.7438 89.8699 31.1043 90.0709 30.5636C90.7704 28.6785 92.2961 27.5076 94.0507 27.5076C95.7624 27.5076 97.2174 28.6766 97.8463 30.5561C98.3449 32.0477 98.6333 36.1926 98.4454 37.77C98.4398 37.8148 98.4361 37.8595 98.4342 37.9043C98.4342 37.9173 98.4342 37.9304 98.4305 37.9434C97.0778 38.5494 95.3419 39.0566 93.5092 39.5917C90.8337 40.3729 88.0689 41.1784 85.7562 42.4612C83.036 43.9678 81.4917 45.8621 81.034 48.2525C80.1037 53.1115 82.7978 57.385 87.4418 58.4142C88.3349 58.6119 89.228 58.7126 90.095 58.7126C93.3976 58.7126 96.4062 57.2843 98.8473 54.5696C99.2119 55.733 99.8557 56.7026 100.736 57.4074C101.802 58.2632 103.195 58.7144 104.764 58.7144C104.956 58.7144 105.151 58.707 105.346 58.6939C106.894 58.5877 108.947 57.8418 110.041 56.4136C110.387 55.9624 110.606 55.4701 110.705 54.9537C111.001 56.4043 111.879 57.6591 113.28 58.5876L113.297 58.5988L113.313 58.6082L114.512 59.2626C112.787 59.96 111.343 60.95 110.297 62.1582C109.112 63.5268 108.493 65.1452 108.55 66.7133C108.666 69.8215 111.276 72.292 115.533 73.3231C117.36 73.765 119.459 73.9981 121.602 73.9981C124.477 73.9981 127.292 73.5842 129.746 72.8011C132.565 71.9024 134.798 70.5673 136.383 68.8352C138.388 66.6443 139.265 63.9109 138.988 60.7132C138.677 57.1296 136.792 54.8231 133.222 53.6634L133.22 53.6653ZM137.317 26.9109C137.317 26.9109 137.307 26.9109 137.304 26.9109C137.233 26.9109 137.162 26.9072 137.094 26.8997C137.168 26.9072 137.242 26.9109 137.317 26.9109ZM136.485 21.1271C136.5 21.1271 136.515 21.1271 136.532 21.1271C136.465 21.1271 136.4 21.1271 136.333 21.1308C136.383 21.1308 136.433 21.1252 136.485 21.1252V21.1271ZM123.08 48.1145C123.04 48.1145 123 48.1126 122.96 48.1126C123.065 48.1126 123.167 48.1126 123.271 48.1126C123.208 48.1126 123.143 48.1145 123.08 48.1145ZM122.907 25.3764C122.953 25.3764 123.001 25.3764 123.048 25.3783C122.985 25.3783 122.921 25.3783 122.858 25.3783C122.875 25.3783 122.89 25.3783 122.907 25.3783V25.3764ZM118.169 33.806C118.454 31.837 119.619 28.0073 121.995 27.6008C122.298 27.5486 122.598 27.5225 122.882 27.5225C124.075 27.5225 126.246 28.0446 127.376 31.5369C127.878 33.0919 128.153 35.5456 128.079 37.7905C127.986 40.5426 127.394 42.8379 126.41 44.2549C125.629 45.3792 124.594 45.9777 123.331 46.0299C123.262 46.0337 123.195 46.0337 123.128 46.0337C121.935 46.0337 120.927 45.5675 120.132 44.6465C117.929 42.0958 117.758 36.6438 118.169 33.8079V33.806ZM85.7264 36.0696C85.6985 36.0696 85.6724 36.0677 85.6464 36.0658C85.7171 36.0658 85.7896 36.0658 85.8641 36.0658C85.8176 36.0658 85.771 36.0696 85.7264 36.0696ZM89.6318 30.4013C89.5666 30.5766 89.5108 30.7593 89.4606 30.9477C89.5108 30.7612 89.5666 30.5785 89.6318 30.4013C89.682 30.2634 89.7378 30.131 89.7955 30.0005C89.7378 30.1291 89.682 30.2634 89.6318 30.4013ZM95.0498 25.3783C95.0833 25.3783 95.1168 25.3783 95.1503 25.3783C95.1819 25.3783 95.2117 25.3783 95.2433 25.3783C95.1782 25.3783 95.1131 25.3783 95.0498 25.3783ZM88.9303 50.7845C88.8745 50.5794 88.828 50.3799 88.7908 50.1823C88.8299 50.3799 88.8764 50.5794 88.9303 50.7845C88.9359 50.8013 88.9415 50.8181 88.9452 50.8349C88.9396 50.8181 88.934 50.8013 88.9303 50.7845ZM90.0895 58.2464C90.0895 58.2464 90.0876 58.2464 90.0857 58.2464C90.0913 58.2464 90.0969 58.2464 90.1025 58.2464C90.0988 58.2464 90.0932 58.2464 90.0895 58.2464ZM98.4286 51.2805C97.2844 52.8654 95.3475 53.8834 93.4515 53.8834C91.4142 53.8834 89.9313 52.7087 89.3806 50.6633C88.9061 48.8958 89.0624 47.3165 89.8476 45.9684C91.0942 43.8261 93.9037 42.1778 98.4286 40.9397V51.2805ZM104.758 58.2502C104.758 58.2502 104.749 58.2502 104.745 58.2502C104.76 58.2502 104.775 58.2502 104.788 58.2502C104.779 58.2502 104.768 58.2502 104.758 58.2502ZM121.599 73.5338C121.589 73.5338 121.58 73.5338 121.571 73.5338C121.714 73.5338 121.855 73.5338 121.999 73.532C121.865 73.532 121.731 73.5357 121.599 73.5357V73.5338ZM130.15 69.5474C128.578 70.5151 125.988 71.1155 123.394 71.1155C121.439 71.1155 119.706 70.7762 118.517 70.159C116.633 69.182 115.46 67.4666 115.3 65.4529C115.137 63.387 116.061 61.3789 117.779 60.0495L128.862 60.4242C131.03 60.6536 132.509 61.8245 132.92 63.6368C133.413 65.8109 132.275 68.2404 130.15 69.5456V69.5474Z" fill="#03879E"/>
<path d="M133.22 53.6653C130.222 52.692 126.494 52.6882 123.202 52.6864C121.502 52.6864 119.894 52.6845 118.571 52.5484C117.909 52.4813 116.878 52.1662 116.592 51.8753C116.292 51.5714 116.164 51.1966 116.203 50.7305C116.268 49.9268 116.941 48.6608 117.97 47.8348C119.647 48.3308 121.364 48.5806 123.081 48.5806C125.299 48.5806 127.435 48.1406 129.26 47.3072C131.29 46.3805 132.935 44.9933 134.15 43.1884C136.881 39.1255 136.677 33.2448 133.674 29.512C133.555 29.3628 133.317 29.1353 133.015 28.8482C132.732 28.5778 132.256 28.1229 132.031 27.8525C132.048 27.8339 132.062 27.8171 132.079 27.7984C132.589 27.2354 133.223 26.5343 133.86 26.4485C133.936 26.4373 134.014 26.4336 134.092 26.4336C134.589 26.4336 135.054 26.6462 135.547 26.8736C136.091 27.1216 136.651 27.3789 137.307 27.3789H137.324C138.777 27.3696 139.925 26.2099 140.117 24.5579C140.21 23.7505 140.054 22.945 139.678 22.2887C139.242 21.5317 138.55 21.019 137.674 20.8064C137.28 20.7113 136.881 20.6628 136.491 20.6628C133.504 20.6628 131.08 23.5007 129.897 26.4597C127.696 25.4454 125.292 24.9121 122.912 24.9121C118.994 24.9121 115.408 26.3646 113.075 28.8967C110.865 31.2963 109.853 34.5257 110.15 38.2362C110.402 41.3891 112.137 44.1244 115.447 46.5744C112.91 47.8404 110.937 50.475 110.632 53.1227C110.627 53.1656 110.627 53.2084 110.621 53.2513L110.576 53.0183L110.007 53.3595C109.268 53.8032 108.649 54.0288 108.165 54.0288C107.839 54.0288 107.588 53.9282 107.374 53.7137C106.511 52.843 106.526 50.4154 106.537 48.6422C106.539 48.3047 106.541 47.9859 106.537 47.6931C106.524 46.6229 106.563 45.2935 106.604 43.8876C106.751 38.8962 106.935 32.6835 105.171 29.4747C103.579 26.5734 99.9264 24.9084 95.154 24.9084C90.6662 24.9084 86.305 26.4038 84.0426 28.7177C82.4852 30.31 81.8657 32.8308 82.6006 34.5835C83.1272 35.8421 84.2398 36.5338 85.7301 36.5338C85.9366 36.5338 86.1543 36.5208 86.3757 36.4928C88.9601 36.1796 89.3248 34.1509 89.6448 32.361C89.7564 31.7438 89.8699 31.1043 90.0709 30.5636C90.7704 28.6785 92.2961 27.5076 94.0507 27.5076C95.7624 27.5076 97.2174 28.6766 97.8463 30.5561C98.3449 32.0477 98.6333 36.1926 98.4454 37.77C98.4398 37.8148 98.4361 37.8595 98.4342 37.9043C98.4342 37.9173 98.4342 37.9304 98.4305 37.9434C97.0778 38.5494 95.3419 39.0566 93.5092 39.5917C90.8337 40.3729 88.0689 41.1784 85.7562 42.4612C83.036 43.9678 81.4917 45.8621 81.034 48.2525C80.1037 53.1115 82.7978 57.385 87.4418 58.4142C88.3349 58.6119 89.228 58.7126 90.095 58.7126C93.3976 58.7126 96.4062 57.2843 98.8473 54.5696C99.2119 55.733 99.8557 56.7026 100.736 57.4074C101.802 58.2632 103.195 58.7144 104.764 58.7144C104.956 58.7144 105.151 58.707 105.346 58.6939C106.894 58.5877 108.947 57.8418 110.041 56.4136C110.387 55.9624 110.606 55.4701 110.705 54.9537C111.001 56.4043 111.879 57.6591 113.28 58.5876L113.297 58.5988L113.313 58.6082L114.512 59.2626C112.787 59.96 111.343 60.95 110.297 62.1582C109.112 63.5268 108.493 65.1452 108.55 66.7133C108.666 69.8215 111.276 72.292 115.533 73.3231C117.36 73.765 119.459 73.9981 121.602 73.9981C124.477 73.9981 127.292 73.5842 129.746 72.8011C132.565 71.9024 134.798 70.5673 136.383 68.8352C138.388 66.6443 139.265 63.9109 138.988 60.7132C138.677 57.1296 136.792 54.8231 133.222 53.6634L133.22 53.6653ZM137.317 26.9109C137.317 26.9109 137.307 26.9109 137.304 26.9109C137.233 26.9109 137.162 26.9072 137.094 26.8997C137.168 26.9072 137.242 26.9109 137.317 26.9109ZM136.485 21.1271C136.5 21.1271 136.515 21.1271 136.532 21.1271C136.465 21.1271 136.4 21.1271 136.333 21.1308C136.383 21.1308 136.433 21.1252 136.485 21.1252V21.1271ZM123.08 48.1145C123.04 48.1145 123 48.1126 122.96 48.1126C123.065 48.1126 123.167 48.1126 123.271 48.1126C123.208 48.1126 123.143 48.1145 123.08 48.1145ZM122.907 25.3764C122.953 25.3764 123.001 25.3764 123.048 25.3783C122.985 25.3783 122.921 25.3783 122.858 25.3783C122.875 25.3783 122.89 25.3783 122.907 25.3783V25.3764ZM118.169 33.806C118.454 31.837 119.619 28.0073 121.995 27.6008C122.298 27.5486 122.598 27.5225 122.882 27.5225C124.075 27.5225 126.246 28.0446 127.376 31.5369C127.878 33.0919 128.153 35.5456 128.079 37.7905C127.986 40.5426 127.394 42.8379 126.41 44.2549C125.629 45.3792 124.594 45.9777 123.331 46.0299C123.262 46.0337 123.195 46.0337 123.128 46.0337C121.935 46.0337 120.927 45.5675 120.132 44.6465C117.929 42.0958 117.758 36.6438 118.169 33.8079V33.806ZM85.7264 36.0696C85.6985 36.0696 85.6724 36.0677 85.6464 36.0658C85.7171 36.0658 85.7896 36.0658 85.8641 36.0658C85.8176 36.0658 85.771 36.0696 85.7264 36.0696ZM89.6318 30.4013C89.5666 30.5766 89.5108 30.7593 89.4606 30.9477C89.5108 30.7612 89.5666 30.5785 89.6318 30.4013C89.682 30.2634 89.7378 30.131 89.7955 30.0005C89.7378 30.1291 89.682 30.2634 89.6318 30.4013ZM95.0498 25.3783C95.0833 25.3783 95.1168 25.3783 95.1503 25.3783C95.1819 25.3783 95.2117 25.3783 95.2433 25.3783C95.1782 25.3783 95.1131 25.3783 95.0498 25.3783ZM88.9303 50.7845C88.8745 50.5794 88.828 50.3799 88.7908 50.1823C88.8299 50.3799 88.8764 50.5794 88.9303 50.7845C88.9359 50.8013 88.9415 50.8181 88.9452 50.8349C88.9396 50.8181 88.934 50.8013 88.9303 50.7845ZM90.0895 58.2464C90.0895 58.2464 90.0876 58.2464 90.0857 58.2464C90.0913 58.2464 90.0969 58.2464 90.1025 58.2464C90.0988 58.2464 90.0932 58.2464 90.0895 58.2464ZM98.4286 51.2805C97.2844 52.8654 95.3475 53.8834 93.4515 53.8834C91.4142 53.8834 89.9313 52.7087 89.3806 50.6633C88.9061 48.8958 89.0624 47.3165 89.8476 45.9684C91.0942 43.8261 93.9037 42.1778 98.4286 40.9397V51.2805ZM104.758 58.2502C104.758 58.2502 104.749 58.2502 104.745 58.2502C104.76 58.2502 104.775 58.2502 104.788 58.2502C104.779 58.2502 104.768 58.2502 104.758 58.2502ZM121.599 73.5338C121.589 73.5338 121.58 73.5338 121.571 73.5338C121.714 73.5338 121.855 73.5338 121.999 73.532C121.865 73.532 121.731 73.5357 121.599 73.5357V73.5338ZM130.15 69.5474C128.578 70.5151 125.988 71.1155 123.394 71.1155C121.439 71.1155 119.706 70.7762 118.517 70.159C116.633 69.182 115.46 67.4666 115.3 65.4529C115.137 63.387 116.061 61.3789 117.779 60.0495L128.862 60.4242C131.03 60.6536 132.509 61.8245 132.92 63.6368C133.413 65.8109 132.275 68.2404 130.15 69.5456V69.5474Z" fill="url(#paint5_linear_113_1490)"/>
<path d="M202.181 38.1523C200.888 37.5631 199.55 36.9534 198.363 36.2374C196.524 35.1299 194.807 33.0602 195.497 30.5673C196.003 28.7364 197.691 27.5058 199.697 27.5058C200.398 27.5058 201.131 27.6493 201.874 27.929C204.082 28.7643 205.524 31.5798 206.043 32.7507C206.175 33.0472 206.263 33.3828 206.348 33.7072C206.577 34.5705 206.86 35.6463 208.133 35.6463C208.326 35.6463 208.54 35.6202 208.771 35.5662L209.132 35.4823V27.0993L208.894 26.965C206.551 25.6524 203.477 24.901 200.465 24.901C196.5 24.901 193.034 26.1745 190.958 28.3951C189.251 30.2187 188.479 32.5848 188.662 35.4263C189.023 41.0386 193.2 42.9311 197.241 44.7621C198.753 45.4483 200.316 46.1568 201.621 47.0499C203.917 48.6236 204.469 51.1295 203.997 52.9157C203.511 54.7579 202.045 55.9139 199.976 56.0855C199.762 56.1041 199.548 56.1116 199.341 56.1116C197.194 56.1116 195.343 55.1532 193.838 53.2607C192.64 51.756 191.652 49.6267 190.98 47.1058L190.9 46.8038L190.591 46.7628L188.667 46.511V55.9717L188.889 56.1078C191.577 57.7729 195.176 58.7257 198.761 58.7257C202.819 58.7257 206.246 57.51 208.412 55.3024C210.179 53.4993 211.05 51.1277 211 48.2507C210.892 42.1163 206.466 40.097 202.184 38.1448L202.181 38.1523ZM208.153 35.1802C208.153 35.1802 208.14 35.1802 208.135 35.1802C208.127 35.1802 208.123 35.1802 208.116 35.1802C208.129 35.1802 208.142 35.1802 208.153 35.1802ZM200.465 25.3709C200.476 25.3709 200.487 25.3709 200.499 25.3709C200.486 25.3709 200.473 25.3709 200.46 25.3709C200.46 25.3709 200.463 25.3709 200.465 25.3709ZM198.759 58.267C198.748 58.267 198.739 58.267 198.727 58.267C198.772 58.267 198.817 58.267 198.861 58.267C198.828 58.267 198.792 58.267 198.759 58.267ZM210.51 47.7379C210.522 47.9094 210.529 48.0866 210.531 48.2656C210.531 48.2656 210.531 48.2656 210.531 48.2674C210.531 48.2674 210.531 48.2674 210.531 48.2656C210.527 48.0866 210.522 47.9094 210.51 47.7379Z" fill="url(#paint6_linear_113_1490)"/>
<path d="M202.181 38.1523C200.888 37.5631 199.55 36.9534 198.363 36.2374C196.524 35.1299 194.807 33.0602 195.497 30.5673C196.003 28.7364 197.691 27.5058 199.697 27.5058C200.398 27.5058 201.131 27.6493 201.874 27.929C204.082 28.7643 205.524 31.5798 206.043 32.7507C206.175 33.0472 206.263 33.3828 206.348 33.7072C206.577 34.5705 206.86 35.6463 208.133 35.6463C208.326 35.6463 208.54 35.6202 208.771 35.5662L209.132 35.4823V27.0993L208.894 26.965C206.551 25.6524 203.477 24.901 200.465 24.901C196.5 24.901 193.034 26.1745 190.958 28.3951C189.251 30.2187 188.479 32.5848 188.662 35.4263C189.023 41.0386 193.2 42.9311 197.241 44.7621C198.753 45.4483 200.316 46.1568 201.621 47.0499C203.917 48.6236 204.469 51.1295 203.997 52.9157C203.511 54.7579 202.045 55.9139 199.976 56.0855C199.762 56.1041 199.548 56.1116 199.341 56.1116C197.194 56.1116 195.343 55.1532 193.838 53.2607C192.64 51.756 191.652 49.6267 190.98 47.1058L190.9 46.8038L190.591 46.7628L188.667 46.511V55.9717L188.889 56.1078C191.577 57.7729 195.176 58.7257 198.761 58.7257C202.819 58.7257 206.246 57.51 208.412 55.3024C210.179 53.4993 211.05 51.1277 211 48.2507C210.892 42.1163 206.466 40.097 202.184 38.1448L202.181 38.1523ZM208.153 35.1802C208.153 35.1802 208.14 35.1802 208.135 35.1802C208.127 35.1802 208.123 35.1802 208.116 35.1802C208.129 35.1802 208.142 35.1802 208.153 35.1802ZM200.465 25.3709C200.476 25.3709 200.487 25.3709 200.499 25.3709C200.486 25.3709 200.473 25.3709 200.46 25.3709C200.46 25.3709 200.463 25.3709 200.465 25.3709ZM198.759 58.267C198.748 58.267 198.739 58.267 198.727 58.267C198.772 58.267 198.817 58.267 198.861 58.267C198.828 58.267 198.792 58.267 198.759 58.267ZM210.51 47.7379C210.522 47.9094 210.529 48.0866 210.531 48.2656C210.531 48.2656 210.531 48.2656 210.531 48.2674C210.531 48.2674 210.531 48.2674 210.531 48.2656C210.527 48.0866 210.522 47.9094 210.51 47.7379Z" fill="#03879E"/>
<path d="M202.181 38.1523C200.888 37.5631 199.55 36.9534 198.363 36.2374C196.524 35.1299 194.807 33.0602 195.497 30.5673C196.003 28.7364 197.691 27.5058 199.697 27.5058C200.398 27.5058 201.131 27.6493 201.874 27.929C204.082 28.7643 205.524 31.5798 206.043 32.7507C206.175 33.0472 206.263 33.3828 206.348 33.7072C206.577 34.5705 206.86 35.6463 208.133 35.6463C208.326 35.6463 208.54 35.6202 208.771 35.5662L209.132 35.4823V27.0993L208.894 26.965C206.551 25.6524 203.477 24.901 200.465 24.901C196.5 24.901 193.034 26.1745 190.958 28.3951C189.251 30.2187 188.479 32.5848 188.662 35.4263C189.023 41.0386 193.2 42.9311 197.241 44.7621C198.753 45.4483 200.316 46.1568 201.621 47.0499C203.917 48.6236 204.469 51.1295 203.997 52.9157C203.511 54.7579 202.045 55.9139 199.976 56.0855C199.762 56.1041 199.548 56.1116 199.341 56.1116C197.194 56.1116 195.343 55.1532 193.838 53.2607C192.64 51.756 191.652 49.6267 190.98 47.1058L190.9 46.8038L190.591 46.7628L188.667 46.511V55.9717L188.889 56.1078C191.577 57.7729 195.176 58.7257 198.761 58.7257C202.819 58.7257 206.246 57.51 208.412 55.3024C210.179 53.4993 211.05 51.1277 211 48.2507C210.892 42.1163 206.466 40.097 202.184 38.1448L202.181 38.1523ZM208.153 35.1802C208.153 35.1802 208.14 35.1802 208.135 35.1802C208.127 35.1802 208.123 35.1802 208.116 35.1802C208.129 35.1802 208.142 35.1802 208.153 35.1802ZM200.465 25.3709C200.476 25.3709 200.487 25.3709 200.499 25.3709C200.486 25.3709 200.473 25.3709 200.46 25.3709C200.46 25.3709 200.463 25.3709 200.465 25.3709ZM198.759 58.267C198.748 58.267 198.739 58.267 198.727 58.267C198.772 58.267 198.817 58.267 198.861 58.267C198.828 58.267 198.792 58.267 198.759 58.267ZM210.51 47.7379C210.522 47.9094 210.529 48.0866 210.531 48.2656C210.531 48.2656 210.531 48.2656 210.531 48.2674C210.531 48.2674 210.531 48.2674 210.531 48.2656C210.527 48.0866 210.522 47.9094 210.51 47.7379Z" fill="url(#paint7_linear_113_1490)"/>
<path d="M45.1323 22.7568C45.4151 22.7568 45.7109 22.7362 46.0086 22.6934C47.3371 22.5088 48.4107 21.8767 49.1158 20.8698C49.7373 19.9823 50.0331 18.8431 49.9512 17.6628C49.7912 15.3545 48.1223 13.0182 45.2421 13.0182C44.9853 13.0182 44.7211 13.0369 44.455 13.0742C43.0987 13.2606 41.9935 13.9076 41.2586 14.9425C40.6073 15.8579 40.2948 17.0233 40.3766 18.2222C40.5255 20.4074 42.0772 22.7568 45.1323 22.7568ZM45.2421 13.4844C45.2514 13.4844 45.2607 13.4844 45.2718 13.4844C45.2458 13.4844 45.2179 13.4844 45.19 13.4844C45.2067 13.4844 45.2253 13.4825 45.2421 13.4825V13.4844ZM45.1528 22.2888C45.1528 22.2888 45.1397 22.2888 45.1323 22.2888C45.1304 22.2888 45.1286 22.2888 45.1267 22.2888C45.136 22.2888 45.1453 22.2888 45.1528 22.2888Z" fill="url(#paint8_linear_113_1490)"/>
<path d="M45.1323 22.7568C45.4151 22.7568 45.7109 22.7362 46.0086 22.6934C47.3371 22.5088 48.4107 21.8767 49.1158 20.8698C49.7373 19.9823 50.0331 18.8431 49.9512 17.6628C49.7912 15.3545 48.1223 13.0182 45.2421 13.0182C44.9853 13.0182 44.7211 13.0369 44.455 13.0742C43.0987 13.2606 41.9935 13.9076 41.2586 14.9425C40.6073 15.8579 40.2948 17.0233 40.3766 18.2222C40.5255 20.4074 42.0772 22.7568 45.1323 22.7568ZM45.2421 13.4844C45.2514 13.4844 45.2607 13.4844 45.2718 13.4844C45.2458 13.4844 45.2179 13.4844 45.19 13.4844C45.2067 13.4844 45.2253 13.4825 45.2421 13.4825V13.4844ZM45.1528 22.2888C45.1528 22.2888 45.1397 22.2888 45.1323 22.2888C45.1304 22.2888 45.1286 22.2888 45.1267 22.2888C45.136 22.2888 45.1453 22.2888 45.1528 22.2888Z" fill="#03879E"/>
<path d="M45.1323 22.7568C45.4151 22.7568 45.7109 22.7362 46.0086 22.6934C47.3371 22.5088 48.4107 21.8767 49.1158 20.8698C49.7373 19.9823 50.0331 18.8431 49.9512 17.6628C49.7912 15.3545 48.1223 13.0182 45.2421 13.0182C44.9853 13.0182 44.7211 13.0369 44.455 13.0742C43.0987 13.2606 41.9935 13.9076 41.2586 14.9425C40.6073 15.8579 40.2948 17.0233 40.3766 18.2222C40.5255 20.4074 42.0772 22.7568 45.1323 22.7568ZM45.2421 13.4844C45.2514 13.4844 45.2607 13.4844 45.2718 13.4844C45.2458 13.4844 45.2179 13.4844 45.19 13.4844C45.2067 13.4844 45.2253 13.4825 45.2421 13.4825V13.4844ZM45.1528 22.2888C45.1528 22.2888 45.1397 22.2888 45.1323 22.2888C45.1304 22.2888 45.1286 22.2888 45.1267 22.2888C45.136 22.2888 45.1453 22.2888 45.1528 22.2888Z" fill="url(#paint9_linear_113_1490)"/>
</g>
<defs>
<linearGradient id="paint0_linear_113_1490" x1="171.522" y1="-27.1134" x2="-6.05618" y2="73.7366" gradientUnits="userSpaceOnUse">
<stop stop-color="#00F84E"/>
<stop offset="1" stop-color="#00C2A8"/>
</linearGradient>
<linearGradient id="paint1_linear_113_1490" x1="105.502" y1="-0.00195313" x2="105.502" y2="73.9981" gradientUnits="userSpaceOnUse">
<stop stop-color="#0AC200"/>
<stop offset="1" stop-color="#078930"/>
</linearGradient>
<linearGradient id="paint2_linear_113_1490" x1="171.522" y1="-27.1134" x2="-6.05618" y2="73.7366" gradientUnits="userSpaceOnUse">
<stop stop-color="#00F84E"/>
<stop offset="1" stop-color="#00C2A8"/>
</linearGradient>
<linearGradient id="paint3_linear_113_1490" x1="105.502" y1="-0.00195313" x2="105.502" y2="73.9981" gradientUnits="userSpaceOnUse">
<stop stop-color="#0AC200"/>
<stop offset="1" stop-color="#078930"/>
</linearGradient>
<linearGradient id="paint4_linear_113_1490" x1="171.522" y1="-27.1134" x2="-6.05618" y2="73.7366" gradientUnits="userSpaceOnUse">
<stop stop-color="#00F84E"/>
<stop offset="1" stop-color="#00C2A8"/>
</linearGradient>
<linearGradient id="paint5_linear_113_1490" x1="105.502" y1="-0.00195313" x2="105.502" y2="73.9981" gradientUnits="userSpaceOnUse">
<stop stop-color="#0AC200"/>
<stop offset="1" stop-color="#078930"/>
</linearGradient>
<linearGradient id="paint6_linear_113_1490" x1="171.522" y1="-27.1134" x2="-6.05618" y2="73.7366" gradientUnits="userSpaceOnUse">
<stop stop-color="#00F84E"/>
<stop offset="1" stop-color="#00C2A8"/>
</linearGradient>
<linearGradient id="paint7_linear_113_1490" x1="105.502" y1="-0.00195313" x2="105.502" y2="73.9981" gradientUnits="userSpaceOnUse">
<stop stop-color="#0AC200"/>
<stop offset="1" stop-color="#078930"/>
</linearGradient>
<linearGradient id="paint8_linear_113_1490" x1="171.522" y1="-27.1134" x2="-6.05618" y2="73.7366" gradientUnits="userSpaceOnUse">
<stop stop-color="#00F84E"/>
<stop offset="1" stop-color="#00C2A8"/>
</linearGradient>
<linearGradient id="paint9_linear_113_1490" x1="105.502" y1="-0.00195313" x2="105.502" y2="73.9981" gradientUnits="userSpaceOnUse">
<stop stop-color="#0AC200"/>
<stop offset="1" stop-color="#078930"/>
</linearGradient>
<clipPath id="clip0_113_1490">
<rect width="211" height="74" fill="white"/>
</clipPath>
</defs>
</svg>
