<svg width="250" height="34" viewBox="0 0 250 34" fill="none" xmlns="http://www.w3.org/2000/svg">
<g clip-path="url(#clip0_23_2485)">
<path d="M86.3819 8.65978C85.3639 9.02778 84.3459 9.77378 83.3269 10.8988C82.3089 12.0238 81.3639 13.3478 80.4699 14.8818C79.5869 16.4168 78.8069 17.9928 78.1319 19.6118V19.7268C78.1319 22.3648 78.4439 24.6148 79.0669 26.4748C79.6909 28.3348 80.7819 29.5328 82.3509 30.0478C80.6469 29.9118 79.0359 29.8378 77.5079 29.8378C77.2899 29.8378 76.7079 29.8378 75.7519 29.8698C74.7959 29.9008 73.5809 29.9328 72.1259 30.0168C71.0659 30.0798 70.0789 30.1218 69.1539 30.1318C70.2239 29.2278 70.8789 28.3558 71.1179 27.5148C71.3149 26.7588 71.4189 25.8338 71.4189 24.7408V24.3198C71.4189 23.6478 71.4399 22.8698 71.4709 22.0078C71.5129 21.4828 71.5229 20.9778 71.5229 20.4738C70.8789 18.8968 70.1199 17.3308 69.2369 15.7858C68.3539 14.2408 67.3879 12.8748 66.3279 11.6978C65.2679 10.5098 64.1449 9.67978 62.9609 9.19578C63.5009 9.15378 64.4779 9.02778 65.8909 8.79678C66.9509 8.62878 68.0629 8.47078 69.2159 8.31278C70.3799 8.15578 71.3979 8.07178 72.3029 8.05078C72.6969 8.41878 73.3729 9.64778 74.3499 11.7188C75.3259 13.7888 76.3029 16.0068 77.3009 18.3398C78.1109 17.0678 78.7449 15.7328 79.2129 14.3458C79.5869 13.2218 79.7839 12.2128 79.7839 11.3088C79.7839 11.1088 79.7529 10.6888 79.6799 10.0688C79.6069 9.44878 79.1189 9.00678 78.2149 8.76478C78.7139 8.81778 79.4199 8.83878 80.3349 8.83878H81.5399C82.1949 8.83878 83.0569 8.81778 84.1379 8.78578C85.2189 8.74378 85.9669 8.71278 86.3819 8.67078V8.65978ZM78.2149 8.75478C78.0899 8.74378 77.9859 8.73378 77.9139 8.71278L78.2149 8.75478Z" fill="#161620"/>
<path d="M88.3333 15.5861C89.7153 15.1771 91.0453 14.9771 92.3023 14.9771C93.1753 14.9771 94.2983 15.1341 95.6693 15.4601C97.0413 15.7861 98.3193 16.5641 99.5043 17.8041C100.626 18.9921 101.208 20.3581 101.239 21.8921V22.008C101.239 23.501 100.543 25.0031 99.1603 26.5171C99.0983 26.6011 98.6413 26.9901 97.7793 27.6731C96.9163 28.3561 95.7833 29.0291 94.3703 29.7011C92.9573 30.3741 91.3983 30.7311 89.6843 30.7841C87.7823 30.7631 86.1513 30.2901 84.8003 29.3651C83.4493 28.4511 82.4623 27.284 81.8593 25.8651C81.4653 24.9611 81.2773 24.0261 81.2773 23.0701C81.2773 22.6911 81.3503 22.061 81.4963 21.199C81.6413 20.337 82.2753 19.3281 83.3973 18.1931C84.5203 17.0581 86.1613 16.1861 88.3333 15.5761V15.5861ZM88.8113 15.8491C87.9693 16.6901 87.4913 17.846 87.3983 19.328C87.3873 19.559 87.3773 19.78 87.3773 20.001C87.3773 21.2621 87.6163 22.5441 88.0943 23.8261C88.6663 25.3401 89.5183 26.58 90.6613 27.536C91.6173 28.335 92.7493 28.7451 94.0483 28.7451C94.3083 28.7451 94.5783 28.735 94.8383 28.703C95.3473 27.6831 95.5963 26.5901 95.5963 25.4341C95.5963 25.2451 95.5653 24.751 95.5033 23.963C95.4413 23.175 95.0873 22.134 94.4433 20.8621C93.7993 19.5701 92.9883 18.4771 92.0013 17.5731C91.0143 16.6691 89.9543 16.0911 88.8013 15.8491H88.8113Z" fill="#161620"/>
<path d="M120.682 17.0581C120.921 17.5311 121.119 18.1511 121.264 18.9181C121.42 19.6851 121.555 20.5371 121.701 21.4721C121.867 22.7441 122.085 24.0051 122.376 25.2561C122.657 26.5061 123.083 27.5681 123.644 28.4511C124.205 29.3341 124.995 29.8381 126.013 29.9851C125.14 30.0591 123.966 30.1221 122.48 30.1741C121.638 30.1951 120.807 30.2161 119.986 30.2161C119.373 30.2161 118.563 30.2061 117.576 30.1741C116.588 30.1531 115.83 30.0591 115.3 29.9121C115.414 28.3041 115.466 26.7481 115.466 25.2241C115.466 23.7001 115.31 22.3651 114.988 21.1881C114.666 20.0111 114.084 19.1601 113.242 18.6241C112.712 18.2671 112.037 18.0881 111.216 18.0881C110.738 18.0881 110.208 18.1511 109.626 18.2771C109.564 19.0441 109.533 19.8221 109.533 20.6311C109.533 21.3881 109.574 22.3651 109.647 23.5641C109.72 24.7621 110.063 26.0231 110.676 27.3261C111.289 28.6291 112.297 29.5021 113.71 29.9431C112.65 30.1011 111.611 30.1741 110.593 30.1741C110.364 30.1741 109.886 30.1641 109.159 30.1321C108.431 30.1111 107.496 30.0381 106.363 29.9221C105.22 29.8171 104.129 29.7541 103.09 29.7331H102.841C101.906 29.7331 101.054 29.8381 100.274 30.0591C101.48 29.0501 102.238 28.0931 102.529 27.1791C102.82 26.2651 102.966 24.9931 102.966 23.3431C102.976 22.9851 102.986 22.5971 103.007 22.1551V21.7771C103.007 20.9361 102.914 20.2111 102.727 19.5911C102.54 18.9711 102.29 18.4661 101.978 18.0771C101.667 17.6881 101.355 17.4051 101.022 17.2161C100.69 17.0261 100.42 16.9111 100.191 16.8581L99.8477 16.7851L101.23 16.6901C102.155 16.6371 103.225 16.5321 104.452 16.3751C105.678 16.2171 106.81 16.0071 107.86 15.7441C108.899 15.4811 109.585 15.1561 109.907 14.7561C109.886 15.1871 109.834 15.7651 109.772 16.5011C109.751 16.8371 109.72 17.1941 109.699 17.5731C110.011 17.0791 110.541 16.5641 111.289 16.0281C112.037 15.4921 113.097 15.1031 114.489 14.8611C115.03 14.7881 115.539 14.7461 116.006 14.7461C116.64 14.7461 117.285 14.8401 117.95 15.0191C118.615 15.1981 119.197 15.5021 119.685 15.9121C120.173 16.3221 120.516 16.7011 120.703 17.0581H120.682Z" fill="#161620"/>
<path d="M144.065 8.56592C143.981 9.11192 143.836 10.1839 143.649 11.7709C143.462 13.3579 143.316 15.1769 143.212 17.2159C143.192 17.8149 143.171 18.4029 143.171 18.9919C143.171 20.4109 143.264 21.9349 143.441 23.5849C143.628 25.2349 144.065 26.6639 144.771 27.8829C145.436 29.0389 146.434 29.6279 147.743 29.6279H147.951C145.654 29.9639 143.763 30.1219 142.256 30.1219C142.101 30.1219 141.602 30.1109 140.739 30.0799C139.877 30.0589 138.661 29.8799 137.102 29.5649C137.092 28.8609 137.071 28.2409 137.05 27.6939V27.2949C136.936 27.3999 136.832 27.4939 136.749 27.5989C136.23 28.1769 135.658 28.6499 135.014 29.0389C134.37 29.4279 133.351 29.7329 131.938 29.9639C131.419 30.0269 130.941 30.0589 130.483 30.0589C129.818 30.0589 129.122 29.9639 128.395 29.7649C127.667 29.5649 127.033 29.2499 126.472 28.8289C125.922 28.3979 125.527 28.0199 125.298 27.6729C124.654 26.7059 124.259 25.5709 124.103 24.2679C124.062 23.9629 124.051 23.6579 124.051 23.3639C124.051 22.3549 124.269 21.2719 124.716 20.1269C125.153 18.9709 126.026 17.8989 127.314 16.8999C128.603 15.9019 130.369 15.2289 132.603 14.8719C132.655 14.8719 132.749 14.8719 132.873 14.8399C133.008 14.8189 133.143 14.7979 133.289 14.7879C133.434 14.7669 133.549 14.7559 133.621 14.7349C133.933 14.6819 134.266 14.6619 134.609 14.6619C135.222 14.6619 135.897 14.7349 136.614 14.8929C136.375 13.6209 136.095 12.6749 135.783 12.0659C135.471 11.4559 135.159 11.0569 134.858 10.8569C134.577 10.6779 134.38 10.5939 134.255 10.5939C134.671 10.5519 135.575 10.4579 136.967 10.2889C138.36 10.1209 139.763 9.89992 141.176 9.60592C142.589 9.32192 143.555 8.97592 144.065 8.56592ZM132.686 15.1869C132.136 15.5229 131.678 16.1959 131.315 17.2159C130.951 18.2349 130.753 19.3909 130.722 20.6729V21.0199C130.722 22.1759 130.909 23.3009 131.294 24.3829C131.668 25.4659 132.323 26.2959 133.258 26.8739C133.788 27.1899 134.432 27.3579 135.19 27.3579C135.741 27.3579 136.365 27.2739 137.04 27.0949C137.03 26.5589 137.019 25.9179 137.019 25.1609V24.3199C137.019 23.7209 137.019 23.0069 137.04 22.1759C137.05 21.7349 137.061 21.2929 137.061 20.8729C137.061 19.4859 137.009 18.2769 136.905 17.2369C136.417 16.4689 135.741 15.9539 134.879 15.6809C134.016 15.4079 133.341 15.2499 132.832 15.2079C132.78 15.1979 132.728 15.1869 132.676 15.1869H132.686Z" fill="#161620"/>
<path d="M153.413 24.4039C154.202 25.8229 155.522 26.7799 157.351 27.2739C157.902 27.4309 158.515 27.5049 159.19 27.5049C160.707 27.5049 162.494 27.1049 164.562 26.2959C162.37 28.0829 160.24 29.2499 158.192 29.7959C157.008 30.1109 155.875 30.2789 154.805 30.2789C154.036 30.2789 153.049 30.1429 151.833 29.8589C150.617 29.5749 149.443 28.9239 148.311 27.9039C147.167 26.8849 146.399 25.7079 146.014 24.3619C145.858 23.8369 145.785 23.3109 145.785 22.7749C145.785 22.1239 145.941 21.3349 146.263 20.3999C146.586 19.4649 147.396 18.4979 148.705 17.4889C150.015 16.4799 151.833 15.6809 154.161 15.0819C154.566 14.9239 155.512 14.8189 157.018 14.7349H157.278C159.076 14.7349 160.51 14.9869 161.57 15.4809C162.629 15.9749 163.326 16.4899 163.648 17.0259C164.074 17.7199 164.292 18.3929 164.292 19.0759C164.292 19.6219 164.063 20.3369 163.606 21.1989C163.149 22.0709 162.006 22.8589 160.198 23.5739C158.743 24.1629 157.008 24.4569 154.982 24.4569C154.472 24.4569 153.963 24.4359 153.433 24.4039H153.413ZM154.514 15.3759C153.381 16.3539 152.696 17.6989 152.467 19.4119C152.415 19.7799 152.394 20.1479 152.394 20.5259C152.394 21.8289 152.716 23.0799 153.361 24.2889C154.597 24.1519 155.553 23.6689 156.239 22.8489C156.925 22.0289 157.33 21.0829 157.455 20.0319C157.475 19.8329 157.496 19.6329 157.496 19.4439C157.496 18.6129 157.278 17.8039 156.831 17.0049C156.395 16.2059 155.615 15.6709 154.504 15.3869L154.514 15.3759Z" fill="#161620"/>
<path d="M180.731 15.0709C180.928 15.1869 181.24 15.4599 181.666 15.8809C182.092 16.3119 182.435 16.8479 182.695 17.5199C182.83 17.8669 182.903 18.2349 182.903 18.6339C182.903 19.0019 182.851 19.3909 182.736 19.8009C182.3 20.9889 181.562 21.8709 180.523 22.4389C179.993 22.7439 179.442 22.9009 178.881 22.9009C178.372 22.9009 177.863 22.7749 177.354 22.5229C176.398 21.9659 175.805 21.2929 175.577 20.5369C175.4 19.8639 175.317 19.2439 175.317 18.6969V18.3189C175.317 17.9719 175.286 17.7299 175.223 17.5939C174.974 17.3419 174.704 17.2159 174.434 17.2159C174.361 17.2159 174.205 17.2369 173.987 17.2889C173.769 17.3419 173.478 17.5309 173.124 17.8669C173.052 18.6969 173.01 19.5589 173.01 20.4629C173.01 20.7679 173.01 21.3139 173.041 22.0919C173.062 22.8699 173.218 23.8469 173.519 25.0239C173.821 26.2019 174.33 27.2419 175.047 28.1249C175.774 29.0079 176.782 29.6279 178.06 29.9749C176.689 29.8169 175.338 29.7429 174.018 29.7429C173.738 29.7429 173.145 29.7429 172.231 29.7749C171.316 29.7959 170.277 29.8699 169.103 29.9959C167.815 30.1109 166.661 30.1639 165.622 30.1639C165.04 30.1639 164.5 30.1429 163.991 30.1109C164.853 29.3969 165.466 28.7349 165.84 28.1249C166.214 27.5149 166.464 26.8219 166.568 26.0539C166.672 25.2869 166.744 24.2989 166.765 23.1009C166.776 22.8169 166.786 22.5229 166.807 22.1969V21.8709C166.807 20.7469 166.661 19.8009 166.37 19.0129C166.079 18.2239 165.726 17.6039 165.29 17.1419C164.864 16.6789 164.479 16.3539 164.136 16.1749L163.648 15.9119L164.895 15.8599C165.736 15.8179 166.744 15.7549 167.908 15.6499C169.072 15.5439 170.142 15.4079 171.109 15.2289C172.075 15.0499 172.834 14.8299 173.374 14.5769C173.363 15.0079 173.322 15.5859 173.26 16.3009C173.218 16.6159 173.187 16.9529 173.166 17.2989C173.987 16.3539 175.047 15.5759 176.367 14.9449C177.239 14.6619 177.988 14.5249 178.621 14.5249C178.788 14.5249 179.089 14.5459 179.515 14.5989C179.951 14.6509 180.346 14.8189 180.7 15.0919C180.71 15.0919 180.72 15.0919 180.72 15.1139H180.741L180.731 15.0709Z" fill="#161620"/>
<path d="M182.105 10.6149L183.488 10.5209C184.412 10.4579 185.483 10.3519 186.709 10.1949C187.935 10.0369 189.068 9.83691 190.117 9.57491C191.156 9.31191 191.832 8.98591 192.154 8.58691C192.143 8.95491 192.112 9.53291 192.06 10.3309C191.977 11.6869 191.904 13.0009 191.873 14.2729C191.832 15.5439 191.821 16.4479 191.821 16.9839C191.821 18.4869 191.884 20.0109 192.008 21.5349C192.195 23.6269 192.601 25.4449 193.214 27.0109C193.827 28.5659 194.751 29.5539 195.988 29.9749C194.554 30.0799 193.162 30.1319 191.832 30.1319C190.657 30.1319 189.535 30.0899 188.444 30.0169C187.436 29.9429 186.48 29.9009 185.587 29.9009C184.475 29.9009 183.467 29.9539 182.542 30.0689C183.737 29.0919 184.485 28.1559 184.766 27.2629C185.046 26.3799 185.202 25.1719 185.212 23.6369C185.233 23.1959 185.264 22.7019 185.285 22.1869C185.327 21.3879 185.337 20.6419 185.337 19.9479C185.337 19.2539 185.316 18.6239 185.285 18.0349C185.223 16.8579 185.098 15.8599 184.921 15.0189C184.734 14.1889 184.527 13.4949 184.288 12.9589C184.049 12.4229 183.799 11.9919 183.55 11.6659C183.3 11.3509 183.061 11.1089 182.854 10.9619C182.635 10.8039 182.469 10.7099 182.344 10.6779L182.137 10.6259L182.105 10.6149Z" fill="#161620"/>
<path d="M217.55 29.281C216.438 29.334 215.419 29.449 214.484 29.628C213.341 29.859 211.731 30.006 209.663 30.069C208.998 29.292 208.551 28.314 208.343 27.126C208.052 27.652 207.533 28.209 206.784 28.808C206.036 29.407 204.893 29.838 203.376 30.111C202.836 30.185 202.337 30.227 201.88 30.227C201.246 30.227 200.602 30.132 199.937 29.954C199.272 29.775 198.69 29.47 198.201 29.06C197.713 28.65 197.37 28.272 197.183 27.915C196.923 27.41 196.747 26.748 196.653 25.949C196.56 25.151 196.497 24.278 196.466 23.332C196.445 22.176 196.352 21.041 196.206 19.927C196.061 18.813 195.759 17.878 195.302 17.121C194.845 16.364 194.118 15.912 193.141 15.786C194.138 15.681 195.396 15.618 196.902 15.576C198.097 15.523 199.23 15.46 200.28 15.397C201.329 15.324 202.098 15.219 202.576 15.082C202.462 16.69 202.41 18.245 202.41 19.769C202.41 21.293 202.566 22.628 202.888 23.805C203.21 24.982 203.792 25.844 204.633 26.391C205.163 26.738 205.828 26.906 206.639 26.906C207.127 26.906 207.668 26.843 208.26 26.717C208.073 25.539 207.948 24.331 207.896 23.08C207.844 21.924 207.74 20.82 207.585 19.78C207.429 18.739 207.117 17.867 206.67 17.152C206.213 16.438 205.506 15.986 204.55 15.797C205.475 15.713 206.639 15.66 208.063 15.639C209.32 15.628 210.515 15.586 211.627 15.513C212.739 15.439 213.518 15.303 213.965 15.082C213.892 16.196 213.85 17.279 213.85 18.351C213.85 19.423 213.913 20.736 214.027 22.313C214.152 23.879 214.495 25.382 215.056 26.822C215.627 28.262 216.459 29.092 217.55 29.323V29.281Z" fill="#161620"/>
<path d="M234.029 23.7532C234.05 23.9522 234.07 24.1522 234.07 24.3412C234.07 25.4132 233.634 26.4012 232.751 27.3052C231.868 28.2092 230.693 28.9452 229.239 29.5022C228.168 29.9332 226.828 30.2062 225.207 30.3012C224.687 30.3432 224.178 30.3532 223.659 30.3532C222.578 30.3532 221.487 30.2792 220.406 30.1222C219.866 30.0482 219.336 29.9542 218.827 29.8382C218.318 29.7222 217.725 29.5332 217.06 29.2602L217.039 29.0082C217.039 28.2202 217.123 27.4312 217.299 26.6332C217.465 25.8442 217.549 25.0672 217.549 24.3202V24.1842C218.712 25.0772 219.658 25.8232 220.385 26.4432C221.102 27.0532 221.757 27.5682 222.349 27.9782C222.942 28.3882 223.617 28.7452 224.376 29.0392C225.093 29.3022 225.83 29.4602 226.568 29.5022C226.786 29.5122 226.994 29.5232 227.212 29.5232C227.721 29.5232 228.199 29.4812 228.646 29.4072C228.688 29.2072 228.698 29.0082 228.698 28.8292C228.698 28.2932 228.49 27.7992 228.085 27.3472C227.68 26.8952 227.046 26.4852 226.194 26.1182C225.342 25.7502 224.417 25.4032 223.409 25.0772C222.329 24.7412 221.289 24.3622 220.313 23.9312C219.336 23.5012 218.546 22.9542 217.964 22.3022C217.486 21.7662 217.247 21.1152 217.247 20.3262C217.247 20.1482 217.258 19.9692 217.289 19.7902C217.341 19.3912 217.465 18.9292 217.663 18.3932C217.86 17.8572 218.214 17.3212 218.723 16.7852C219.222 16.2492 219.949 15.7762 220.874 15.3552C221.882 14.8302 223.222 14.5042 224.906 14.3782C225.508 14.3252 226.111 14.3042 226.724 14.3042C227.794 14.3042 228.865 14.3782 229.935 14.5352C230.33 14.5992 230.766 14.7462 231.244 14.9662C231.732 15.1872 232.159 15.5022 232.543 15.9022C232.917 16.3012 233.135 16.7742 233.187 17.3102V17.4052C233.187 17.9412 233 18.4562 232.626 18.9502C232.252 19.4442 231.753 19.8112 231.119 20.0432C230.818 20.1582 230.506 20.2112 230.195 20.2112C229.852 20.2112 229.498 20.1482 229.114 20.0222C228.231 19.6432 227.68 19.2232 227.472 18.7822C227.275 18.3612 227.171 17.9412 227.171 17.5202V17.4052C227.171 17.0262 227.108 16.6792 226.984 16.3642C226.859 16.0492 226.547 15.7862 226.059 15.5762C225.363 15.3342 224.646 15.1872 223.908 15.1342C223.721 15.1242 223.534 15.1142 223.336 15.1142C222.817 15.1142 222.339 15.1562 221.902 15.2292C221.56 15.7762 221.393 16.2592 221.393 16.6792C221.393 16.9842 221.549 17.3422 221.851 17.7622C222.152 18.1722 222.827 18.5712 223.866 18.9602C224.906 19.3392 226.059 19.6962 227.337 20.0112C228.397 20.2632 229.415 20.5582 230.392 20.8842C231.369 21.2092 232.19 21.5982 232.855 22.0502C233.52 22.5022 233.915 23.0592 234.06 23.7212L234.029 23.7532Z" fill="#161620"/>
<path d="M242.569 16.122C242.559 16.438 242.549 16.764 242.549 17.1C242.549 18.393 242.621 19.78 242.767 21.293C242.912 22.807 243.234 24.215 243.744 25.56C244.253 26.895 245.001 27.852 246.009 28.43C246.487 28.692 247.038 28.829 247.651 28.829C248.347 28.829 249.126 28.671 249.999 28.346C247.214 29.67 244.928 30.395 243.151 30.521C242.86 30.542 242.58 30.563 242.32 30.563C240.948 30.563 239.805 30.227 238.912 29.554C238.018 28.882 237.353 27.925 236.937 26.685C236.522 25.445 236.272 24.089 236.179 22.639C236.127 21.682 236.106 20.747 236.106 19.833C236.106 19.391 236.106 18.939 236.127 18.498V17.794C236.127 17.321 236.127 16.879 236.106 16.469C236.106 16.301 235.981 16.186 235.742 16.112C235.493 16.038 235.192 16.007 234.828 16.007H234.464C234.225 16.007 233.955 16.007 233.654 16.038C233.352 16.059 233.082 16.08 232.843 16.122L232.469 16.165L233.945 15.628C234.942 15.271 236.085 14.809 237.374 14.241C238.662 13.674 239.837 13.064 240.886 12.412C241.936 11.761 242.559 11.141 242.777 10.552C242.798 10.447 242.819 10.394 242.829 10.394C242.85 10.394 242.871 10.458 242.871 10.584C242.871 10.762 242.85 11.099 242.798 11.582C242.715 12.539 242.642 13.831 242.59 15.46C243.38 15.46 244.336 15.45 245.448 15.418C246.56 15.387 247.536 15.355 248.378 15.303C248.014 15.597 247.734 15.86 247.557 16.091C247.37 16.322 247.256 16.522 247.204 16.679L247.11 16.89L246.393 16.774C245.905 16.69 245.313 16.585 244.627 16.459C243.941 16.343 243.266 16.217 242.59 16.101L242.569 16.122Z" fill="#161620"/>
<path d="M50.428 18.5499C49.586 18.5499 48.901 19.2439 48.901 20.0949C48.901 22.6489 46.843 24.7299 44.318 24.7299C41.793 24.7299 39.736 22.6489 39.736 20.0949C39.736 12.4229 33.563 6.18994 25.978 6.18994C18.392 6.18994 12.22 12.4329 12.22 20.0949C12.22 22.6489 10.163 24.7299 7.637 24.7299C5.112 24.7299 3.055 22.6489 3.055 20.0949C3.055 19.2439 2.369 18.5499 1.527 18.5499C0.686 18.5499 0 19.2439 0 20.0949C0 24.3519 3.429 27.8199 7.637 27.8199C11.846 27.8199 15.275 24.3519 15.275 20.0949C15.275 14.1259 20.076 9.27994 25.967 9.27994C31.859 9.27994 36.66 14.1359 36.66 20.0949C36.66 24.3519 40.089 27.8199 44.297 27.8199C48.506 27.8199 51.935 24.3519 51.935 20.0949C51.935 19.2439 51.249 18.5499 50.407 18.5499H50.428Z" fill="#F8961E"/>
<path d="M44.3198 30.9101C38.4178 30.9101 33.6278 26.0541 33.6278 20.0951C33.6278 15.8391 30.1988 12.3701 25.9898 12.3701C21.7818 12.3701 18.3528 15.8391 18.3528 20.0951C18.3528 26.0651 13.5518 30.9101 7.65981 30.9101C6.81881 30.9101 6.13281 31.6041 6.13281 32.4551C6.13281 33.3061 6.81881 34.0001 7.65981 34.0001C15.2458 34.0001 21.4178 27.7571 21.4178 20.0951C21.4178 17.5411 23.4758 15.4601 26.0008 15.4601C28.5258 15.4601 30.5828 17.5411 30.5828 20.0951C30.5828 27.7671 36.7548 34.0001 44.3408 34.0001C45.1828 34.0001 45.8678 33.3061 45.8678 32.4551C45.8678 31.6041 45.1828 30.9101 44.3408 30.9101H44.3198Z" fill="#F3722C"/>
<path d="M27.5063 20.0948C27.5063 19.2438 26.8213 18.5498 25.9793 18.5498C25.1373 18.5498 24.4513 19.2438 24.4513 20.0948C24.4513 24.2888 22.9343 28.3138 20.1703 31.4248C19.6093 32.0658 19.6613 33.0438 20.2853 33.6108C20.5753 33.8738 20.9393 33.9998 21.3033 33.9998C21.7183 33.9998 22.1453 33.8208 22.4463 33.4848C23.9423 31.7928 25.1273 29.8698 25.9793 27.8098C26.8313 29.8698 28.0163 31.7928 29.5123 33.4848C29.8133 33.8208 30.2293 33.9998 30.6553 33.9998C31.0183 33.9998 31.3823 33.8738 31.6733 33.6108C32.3073 33.0438 32.3593 32.0658 31.7873 31.4248C29.0233 28.3038 27.5063 24.2778 27.5063 20.0948Z" fill="#F94144"/>
<path d="M7.63637 21.64C8.47837 21.64 9.16437 20.947 9.16437 20.095C9.16437 10.72 16.7084 3.09 25.9774 3.09C35.2464 3.09 42.7904 10.72 42.7904 20.095C42.7904 20.947 43.4764 21.64 44.3174 21.64C45.1594 21.64 45.8454 20.947 45.8454 20.095C45.8454 9.018 36.9294 0 25.9774 0C15.0254 0 6.10938 9.018 6.10938 20.095C6.10938 20.947 6.79537 21.64 7.63637 21.64Z" fill="#F9C74F"/>
</g>
<defs>
<clipPath id="clip0_23_2485">
<rect width="250" height="34" fill="white"/>
</clipPath>
</defs>
</svg>
