<svg width="132" height="34" viewBox="0 0 132 34" fill="none" xmlns="http://www.w3.org/2000/svg">
<g clip-path="url(#clip0_58_186)">
<path d="M42.2927 34V22.874L14.0976 0V11.4024L42.2927 34ZM42.1545 0.414634L41.4634 0.276423V20.248L42.1545 20.7317V0.414634ZM56.5285 0.414634H47.8902C47.8488 0.414634 47.7838 0.239106 47.6829 0.276423V33.7236C47.7838 33.7609 47.8488 33.5854 47.8902 33.5854H56.5285V0.414634ZM93.2927 0.276423H84.4471V33.5854H93.2927V0.276423ZM8.84553 0.414634H0V33.5854H8.84553V0.414634ZM113.886 0.416016C102.959 0.845854 94.6264 11.3002 98.1245 22.0502C100.329 28.8254 106.772 33.3407 113.814 33.7263L113.885 32.8957C108.137 32.3083 107.766 25.4226 107.527 20.9404C107.288 16.4582 106.938 6.81382 109.958 3.05171C110.92 1.85341 112.342 1.05179 113.885 0.963333V0.414634L113.886 0.416016ZM115.408 33.7222C125.463 33.2205 133.277 24.8352 131.836 14.5993C130.711 6.61203 123.347 0.628862 115.406 0.414634V0.966098C118.343 0.997886 120.15 3.39862 120.975 5.97211C122.529 10.8233 122.567 23.7558 120.765 28.5061C119.854 30.9054 118.215 32.7063 115.538 32.9537L115.409 33.7222H115.408ZM58.0474 33.5854C64.6415 33.9433 72.2058 32.6815 76.7032 27.4322C82.1902 21.0275 81.3719 10.106 74.6991 4.84154C69.9584 1.10154 63.9338 0.391138 58.0488 0.552846V1.10431C61.4391 1.31992 65.345 1.44293 67.5052 4.43382C71.4345 9.87659 71.5437 24.9803 67.168 30.1937C64.9635 32.8211 61.2608 32.7768 58.1317 33.1569L58.0502 33.5826L58.0474 33.5854ZM14.9268 33.5854V14.0285L14.0976 13.4065V33.5854H14.9268Z" fill="white"/>
<path d="M42.2927 34L14.0975 11.4024V0L42.2927 22.874V34ZM26.1026 14.8052L15.8943 7.04878L16.0961 7.8822L25.5718 15.2696C25.9381 15.4838 26.2159 15.1908 26.1026 14.8052ZM27.739 15.9233C26.7453 16.2191 26.8558 17.991 28.0486 18.1872C29.8868 18.4885 29.873 15.2903 27.739 15.9233ZM40.4945 27.2263L40.3632 26.5988L30.412 18.852C29.4749 19.1492 30.4894 19.7062 30.8944 20.0351C33.8493 22.4303 36.9978 24.6058 39.9362 27.0259L40.4931 27.2276L40.4945 27.2263Z" fill="black"/>
<path d="M93.2927 0.276428V33.5854H84.4471V0.276428H93.2927ZM89.1463 2.21139H88.5935V14.0976H89.1463V2.21139ZM88.6985 15.7796C87.1685 16.0298 87.4491 18.3116 89.0662 18.1029C90.6031 17.9039 90.2244 15.5308 88.6985 15.7796ZM89.1463 19.9024H88.5935V31.7886H89.1463V19.9024Z" fill="black"/>
<path d="M56.5284 0.414658V33.5854H47.8902C47.8487 33.5854 47.7838 33.7609 47.6829 33.7236V0.276446C47.7838 0.239129 47.8487 0.414658 47.8902 0.414658H56.5284ZM52.382 14.2358V2.41872L52.0379 2.21279L51.8292 2.41872V14.2358H52.382ZM52.0586 15.7962C50.5273 15.8722 50.5314 18.1375 52.0338 18.1776C53.655 18.2204 53.6799 15.716 52.0586 15.7962ZM52.382 31.9269V20.1098L52.0379 19.9038L51.8292 20.1098V31.7195C51.8292 31.866 52.2217 31.9821 52.382 31.9269Z" fill="black"/>
<path d="M8.84553 0.414612V33.5853H0V0.414612H8.84553ZM4.69919 14.2358V2.41868C4.69919 2.15884 4.00813 2.15884 4.00813 2.41868V14.0284L4.69919 14.2358ZM4.35089 15.8224C2.78358 15.8653 2.88585 18.1388 4.35089 18.1762C5.91268 18.2176 5.90992 15.7796 4.35089 15.8224ZM4.69919 31.7886V20.1097C4.69919 19.8499 4.00813 19.8499 4.00813 20.1097V31.7195L4.22927 31.9171L4.69919 31.7886Z" fill="black"/>
<path d="M58.0474 33.5854L58.1289 33.1597C61.2594 32.7796 64.9607 32.8238 67.1652 30.1964C71.5409 24.9831 71.4318 9.87937 67.5024 4.43661C65.3435 1.44571 61.4363 1.32132 58.0474 1.1071V0.555633C63.9324 0.392544 69.9584 1.10295 74.6991 4.84295C81.3719 10.1074 82.1901 21.0289 76.7031 27.4336C72.2057 32.6829 64.6414 33.9447 58.0474 33.5868V33.5854ZM70.9922 4.74758C72.5278 6.31767 73.8062 8.75295 74.3176 10.8897C74.4862 11.596 74.5899 13.4508 74.8041 13.8585C75.0183 14.2662 75.4219 14.1971 75.4053 13.6843C75.2837 9.83515 73.3087 5.76344 70.0013 3.73311C69.5783 3.71376 69.9059 3.87962 70.0275 3.98466C70.3026 4.221 70.7573 4.5071 70.9922 4.74758ZM74.2623 16.215C73.1221 17.2599 75.0197 19.0939 76.0798 17.8238C76.9892 16.7347 75.4344 15.1411 74.2623 16.215ZM75.4634 20.0421L74.7792 20.049C74.5387 23.923 73.0433 27.7128 70.0731 30.2683C70.4919 30.2172 70.9273 29.8357 71.2438 29.5745C73.9182 27.3714 75.2201 23.4047 75.4634 20.0434V20.0421Z" fill="black"/>
<path d="M113.886 0.416016V0.964715C112.342 1.05179 110.92 1.8548 109.958 3.05309C106.937 6.8152 107.275 16.273 107.527 20.9418C107.778 25.6106 108.136 32.3083 113.885 32.8971L113.814 33.7277C106.774 33.3421 100.329 28.8267 98.1244 22.0516C94.6263 11.3015 102.959 0.847235 113.886 0.417398V0.416016ZM107.528 3.73309C106.76 4.03992 105.922 4.89406 105.385 5.52707C103.423 7.83382 102.175 11.0707 102.139 14.0989L102.683 14.0893C102.944 10.1115 104.658 6.46 107.53 3.73447L107.528 3.73309ZM102.242 15.9206C100.708 16.2136 101.186 18.3572 102.573 18.1706C104.012 17.9785 103.763 15.6303 102.242 15.9206ZM107.667 30.2669C104.963 27.9104 103.417 24.5767 102.846 21.0606C102.79 20.7165 102.9 20.2908 102.807 19.9937C102.684 19.5915 102.128 19.6702 102.131 20.2411C102.142 21.8982 103.078 24.6459 103.863 26.1247C104.677 27.6589 106.037 29.5676 107.667 30.2669Z" fill="black"/>
<path d="M115.408 33.7222L115.536 32.9537C118.215 32.7063 119.854 30.9068 120.763 28.5061C122.566 23.7557 122.527 10.8233 120.974 5.97209C120.15 3.39721 118.342 0.996482 115.405 0.966075V0.414612C123.345 0.628839 130.709 6.61201 131.834 14.5992C133.276 24.8352 125.461 33.2205 115.406 33.7222H115.408ZM127.293 14.2357C127.175 11.1605 125.894 7.76055 123.84 5.45518C123.266 4.8125 122.459 4.00534 121.625 3.73307C124.626 6.27477 126.607 10.2746 126.6 14.2344H127.293V14.2357ZM126.841 15.9178C125.499 16.1942 125.689 18.3282 127.174 18.1692C128.758 17.9992 128.351 15.6068 126.841 15.9178ZM127.293 20.0406H126.6C126.561 24.0225 124.631 27.9657 121.626 30.5433C122.454 30.271 123.275 29.4639 123.841 28.8212C125.919 26.4578 127.121 23.1697 127.294 20.0406H127.293Z" fill="black"/>
<path d="M14.9268 33.5854H14.0975V13.4065L14.9268 14.0284V33.5854Z" fill="black"/>
<path d="M42.1544 0.41464V20.7317L41.4634 20.248V0.276428L42.1544 0.41464Z" fill="black"/>
<path d="M40.4945 27.2263L39.9375 27.0245C36.9991 24.6058 33.8506 22.4303 30.8957 20.0337C30.4907 19.7048 29.4762 19.1478 30.4133 18.8506L40.3645 26.5974L40.4958 27.2249L40.4945 27.2263Z" fill="white"/>
<path d="M26.1026 14.8052C26.2159 15.1908 25.9381 15.4838 25.5718 15.2696L16.0961 7.88218L15.8943 7.04877L26.1026 14.8052Z" fill="white"/>
<path d="M27.7389 15.9233C29.8729 15.2889 29.8881 18.4885 28.0485 18.1872C26.8558 17.991 26.7438 16.2191 27.7389 15.9233Z" fill="white"/>
<path d="M89.1462 2.21136H88.5934V14.0975H89.1462V2.21136Z" fill="white"/>
<path d="M89.1462 19.9025H88.5934V31.7886H89.1462V19.9025Z" fill="white"/>
<path d="M88.6985 15.7796C90.223 15.5295 90.603 17.9025 89.0661 18.103C87.449 18.313 87.1685 16.0312 88.6985 15.7796Z" fill="white"/>
<path d="M52.3821 14.2358H51.8292V2.4187L52.0379 2.21277L52.3821 2.4187V14.2358Z" fill="white"/>
<path d="M52.3821 31.9268C52.2217 31.9821 51.8292 31.866 51.8292 31.7195V20.1097L52.0379 19.9038L52.3821 20.1097V31.9268Z" fill="white"/>
<path d="M52.0587 15.7962C53.6813 15.716 53.6564 18.219 52.0338 18.1776C50.5301 18.1389 50.5273 15.8722 52.0587 15.7962Z" fill="white"/>
<path d="M4.69911 14.2358L4.00806 14.0285V2.41869C4.00806 2.15886 4.69911 2.15886 4.69911 2.41869V14.2358Z" fill="white"/>
<path d="M4.69911 31.7886L4.22919 31.9171L4.00806 31.7195V20.1097C4.00806 19.8499 4.69911 19.8499 4.69911 20.1097V31.7886Z" fill="white"/>
<path d="M4.35084 15.8225C5.90986 15.7796 5.91262 18.2177 4.35084 18.1762C2.8858 18.1375 2.78352 15.8653 4.35084 15.8225Z" fill="white"/>
<path d="M70.9922 4.74757C70.7572 4.50708 70.3039 4.22098 70.0274 3.98464C69.9058 3.88098 69.5783 3.71513 70.0012 3.7331C73.3086 5.76342 75.2836 9.83513 75.4052 13.6843C75.4218 14.1971 75.0265 14.2814 74.804 13.8585C74.5815 13.4355 74.4861 11.5959 74.3175 10.8897C73.8061 8.75294 72.5277 6.31765 70.9922 4.74757Z" fill="white"/>
<path d="M75.4634 20.042C75.2201 23.4047 73.9182 27.37 71.2438 29.5731C70.9273 29.8343 70.4919 30.2158 70.0731 30.2669C73.0433 27.7114 74.5387 23.923 74.7792 20.0476L75.4634 20.0406V20.042Z" fill="white"/>
<path d="M74.2623 16.215C75.4343 15.1411 76.9892 16.7347 76.0798 17.8238C75.0197 19.0939 73.1221 17.2585 74.2623 16.215Z" fill="white"/>
<path d="M107.667 30.2669C106.037 29.5676 104.677 27.6589 103.863 26.1247C103.078 24.6459 102.142 21.8982 102.131 20.2411C102.127 19.6703 102.683 19.5915 102.807 19.9937C102.898 20.2922 102.789 20.7165 102.846 21.0607C103.417 24.5754 104.963 27.9104 107.667 30.2669Z" fill="white"/>
<path d="M107.528 3.73307C104.656 6.4586 102.943 10.1101 102.681 14.0879L102.138 14.0975C102.176 11.0693 103.422 7.8338 105.383 5.52567C105.921 4.89267 106.759 4.03852 107.527 3.73169L107.528 3.73307Z" fill="white"/>
<path d="M102.242 15.9206C103.763 15.6303 104.012 17.9785 102.573 18.1706C101.186 18.3558 100.708 16.2122 102.242 15.9206Z" fill="white"/>
<path d="M127.293 20.0406C127.12 23.1684 125.919 26.4578 123.84 28.8212C123.275 29.4639 122.454 30.271 121.625 30.5433C124.629 27.9643 126.56 24.0211 126.599 20.0392H127.291L127.293 20.0406Z" fill="white"/>
<path d="M127.293 14.2358H126.6C126.607 10.2746 124.626 6.2748 121.625 3.73309C122.459 4.00675 123.266 4.81252 123.84 5.45521C125.894 7.76057 127.174 11.1606 127.293 14.2358Z" fill="white"/>
<path d="M126.841 15.9178C128.351 15.6054 128.758 17.9992 127.174 18.1692C125.688 18.3282 125.499 16.1956 126.841 15.9178Z" fill="white"/>
</g>
<defs>
<clipPath id="clip0_58_186">
<rect width="132.007" height="34" fill="white"/>
</clipPath>
</defs>
</svg>
