<svg width="211" height="74" viewBox="0 0 211 74" fill="none" xmlns="http://www.w3.org/2000/svg">
<path d="M81.4138 56.1413L81.3914 55.7777L81.0342 55.7106C79.4229 55.4104 78.6861 55.2202 78.1335 53.8423C78.0498 53.6335 77.8061 52.8858 77.7726 52.7087V7.61657L77.313 7.61098H77.2479C75.8357 7.61098 74.4793 8.07338 73.1658 8.52274C72.6039 8.71479 72.0234 8.91243 71.4596 9.06532C70.667 9.27974 69.8483 9.4662 69.0557 9.64519C68.1143 9.85775 67.1393 10.0778 66.1923 10.3537L65.8537 10.4525L65.8574 10.8068L65.8704 12.4849L66.356 12.4588C66.4397 12.4551 66.5216 12.4513 66.6016 12.4513C68.3115 12.4513 69.2288 13.4339 69.4092 15.4551L69.3999 52.3265C69.1246 54.4595 68.4622 55.388 67.1226 55.5316C66.9347 55.5521 66.7542 55.5614 66.583 55.5614C64.341 55.5614 63.7884 53.8293 63.6247 51.0362C63.2321 44.322 63.4107 37.2814 63.5856 30.4721C63.7456 24.211 63.9112 17.7354 63.6321 11.5079V11.4967C63.3921 8.09389 62.045 5.18521 59.7379 3.082C57.5554 1.0944 54.6473 -0.00195312 51.5457 -0.00195312C49.6814 -0.00195312 47.8134 0.384007 45.9937 1.14661C43.3071 2.27279 41.1116 4.20073 39.2845 7.03856C37.6899 9.51654 36.5643 12.3618 35.4758 15.112L35.247 15.6882L35.2395 15.7031L24.3179 46.442L14.1795 17.8678C13.7739 15.9846 13.813 14.8678 14.3098 14.135C14.7563 13.4787 15.6159 13.0648 17.0188 12.8354L17.4095 12.772V12.3749L17.4058 11.2356V11.107L17.3388 10.997C17.1379 10.6632 16.8644 10.6148 16.7192 10.6148C16.509 10.6148 16.3453 10.7117 16.2429 10.7844C15.147 10.8087 13.9693 10.8199 12.6446 10.8199C11.1096 10.8199 9.54854 10.8049 8.03774 10.79C6.52508 10.7751 4.96219 10.7602 3.42348 10.7602C2.34434 10.7602 1.37497 10.7676 0.459565 10.7826L0 10.79L0.0130241 12.5502L0.0167453 13.0051L0.470729 13.0126C2.40388 13.0461 3.36022 14.2581 4.35378 16.3408L20.0292 58.3825L22.9969 58.5447L23.1178 58.2259C25.3505 52.3227 27.4641 46.2611 29.5108 40.399C31.4514 34.8389 33.4571 29.0868 35.5596 23.4876C35.7661 22.9394 35.9782 22.3483 36.2052 21.7237C37.9969 16.7752 40.4492 9.99946 44.6969 7.96524C45.9677 7.35553 47.3278 7.03483 48.6302 7.03483C50.3791 7.03483 51.9867 7.61657 53.1589 8.67004C54.4222 9.80741 55.1497 11.4463 55.2632 13.4116L55.2669 52.9119C55.159 54.687 53.8101 55.6155 52.53 55.6155C51.4322 55.6155 50.5019 54.9517 50.0461 53.8423C49.9289 53.5608 49.7298 53.035 49.6851 52.8802V25.1619L49.2386 25.1433C49.1642 25.1395 49.0898 25.1395 49.0153 25.1395C47.7855 25.1395 46.6189 25.5367 45.4895 25.9208C44.9779 26.0942 44.4495 26.2751 43.9322 26.4093L43.8894 26.4205C42.187 26.8661 40.4269 27.3267 38.6686 27.6063L38.5291 27.6287L38.0304 28.093L37.9988 28.2328C37.9058 28.6449 37.8332 29.167 38.1011 29.5343C38.3597 29.8885 38.7765 29.924 39.1449 29.9557C39.3533 29.9743 39.5691 29.9911 39.7775 30.0582C41.2716 30.5318 41.4223 32.9837 41.5041 34.3C41.8391 39.7128 41.8781 48.0529 41.292 52.8485C41.0669 54.6963 40.278 55.4831 38.3839 55.7516L37.9914 55.8076L37.9504 57.9611H81.5273L81.4175 56.1488L81.4138 56.1413ZM16.7211 11.0809C16.7155 11.0809 16.7118 11.0809 16.7062 11.0809C16.7099 11.0809 16.7137 11.0809 16.7155 11.0809H16.7211ZM2.81135 11.2282C3.01601 11.2282 3.21882 11.2263 3.42348 11.2263C3.5928 11.2263 3.76211 11.2263 3.93142 11.2282C3.55744 11.2282 3.18533 11.2282 2.81135 11.2282ZM20.3548 57.9331L4.77799 16.1562L20.3548 57.9313V57.9331ZM40.6557 11.0268C40.9143 10.6651 41.1841 10.3183 41.4632 9.99013C41.1841 10.3183 40.9162 10.6632 40.6557 11.0268ZM44.4922 7.54199C44.3955 7.5886 44.2987 7.63708 44.2039 7.68929C44.2987 7.63894 44.3955 7.5886 44.4922 7.54199ZM51.4955 0.467912C51.5104 0.467912 51.5271 0.467912 51.542 0.467912C51.5625 0.467912 51.5829 0.467912 51.6034 0.467912C51.5662 0.467912 51.5308 0.467912 51.4936 0.467912H51.4955ZM48.9428 25.6038C48.9651 25.6038 48.9874 25.602 49.0098 25.602C49.0786 25.602 49.1456 25.602 49.2144 25.6057C49.1232 25.602 49.0339 25.602 48.9428 25.6038ZM55.6911 53.2662C55.7079 53.1543 55.7209 53.0387 55.7265 52.9212C55.719 53.0387 55.7079 53.1543 55.6911 53.2662ZM77.0879 8.08271C77.1418 8.08271 77.1958 8.07711 77.2498 8.07711C77.2702 8.07711 77.2907 8.07711 77.3093 8.07711C77.2349 8.07711 77.1623 8.07898 77.0879 8.08084V8.08271ZM79.8602 55.9381C80.1058 56.0052 80.3718 56.0611 80.6565 56.1152C80.3718 56.0593 80.1058 56.0033 79.8602 55.9381Z" fill="url(#paint0_linear_23_2471)"/>
<path d="M81.4138 56.1413L81.3914 55.7777L81.0342 55.7106C79.4229 55.4104 78.6861 55.2202 78.1335 53.8423C78.0498 53.6335 77.8061 52.8858 77.7726 52.7087V7.61657L77.313 7.61098H77.2479C75.8357 7.61098 74.4793 8.07338 73.1658 8.52274C72.6039 8.71479 72.0234 8.91243 71.4596 9.06532C70.667 9.27974 69.8483 9.4662 69.0557 9.64519C68.1143 9.85775 67.1393 10.0778 66.1923 10.3537L65.8537 10.4525L65.8574 10.8068L65.8704 12.4849L66.356 12.4588C66.4397 12.4551 66.5216 12.4513 66.6016 12.4513C68.3115 12.4513 69.2288 13.4339 69.4092 15.4551L69.3999 52.3265C69.1246 54.4595 68.4622 55.388 67.1226 55.5316C66.9347 55.5521 66.7542 55.5614 66.583 55.5614C64.341 55.5614 63.7884 53.8293 63.6247 51.0362C63.2321 44.322 63.4107 37.2814 63.5856 30.4721C63.7456 24.211 63.9112 17.7354 63.6321 11.5079V11.4967C63.3921 8.09389 62.045 5.18521 59.7379 3.082C57.5554 1.0944 54.6473 -0.00195312 51.5457 -0.00195312C49.6814 -0.00195312 47.8134 0.384007 45.9937 1.14661C43.3071 2.27279 41.1116 4.20073 39.2845 7.03856C37.6899 9.51654 36.5643 12.3618 35.4758 15.112L35.247 15.6882L35.2395 15.7031L24.3179 46.442L14.1795 17.8678C13.7739 15.9846 13.813 14.8678 14.3098 14.135C14.7563 13.4787 15.6159 13.0648 17.0188 12.8354L17.4095 12.772V12.3749L17.4058 11.2356V11.107L17.3388 10.997C17.1379 10.6632 16.8644 10.6148 16.7192 10.6148C16.509 10.6148 16.3453 10.7117 16.2429 10.7844C15.147 10.8087 13.9693 10.8199 12.6446 10.8199C11.1096 10.8199 9.54854 10.8049 8.03774 10.79C6.52508 10.7751 4.96219 10.7602 3.42348 10.7602C2.34434 10.7602 1.37497 10.7676 0.459565 10.7826L0 10.79L0.0130241 12.5502L0.0167453 13.0051L0.470729 13.0126C2.40388 13.0461 3.36022 14.2581 4.35378 16.3408L20.0292 58.3825L22.9969 58.5447L23.1178 58.2259C25.3505 52.3227 27.4641 46.2611 29.5108 40.399C31.4514 34.8389 33.4571 29.0868 35.5596 23.4876C35.7661 22.9394 35.9782 22.3483 36.2052 21.7237C37.9969 16.7752 40.4492 9.99946 44.6969 7.96524C45.9677 7.35553 47.3278 7.03483 48.6302 7.03483C50.3791 7.03483 51.9867 7.61657 53.1589 8.67004C54.4222 9.80741 55.1497 11.4463 55.2632 13.4116L55.2669 52.9119C55.159 54.687 53.8101 55.6155 52.53 55.6155C51.4322 55.6155 50.5019 54.9517 50.0461 53.8423C49.9289 53.5608 49.7298 53.035 49.6851 52.8802V25.1619L49.2386 25.1433C49.1642 25.1395 49.0898 25.1395 49.0153 25.1395C47.7855 25.1395 46.6189 25.5367 45.4895 25.9208C44.9779 26.0942 44.4495 26.2751 43.9322 26.4093L43.8894 26.4205C42.187 26.8661 40.4269 27.3267 38.6686 27.6063L38.5291 27.6287L38.0304 28.093L37.9988 28.2328C37.9058 28.6449 37.8332 29.167 38.1011 29.5343C38.3597 29.8885 38.7765 29.924 39.1449 29.9557C39.3533 29.9743 39.5691 29.9911 39.7775 30.0582C41.2716 30.5318 41.4223 32.9837 41.5041 34.3C41.8391 39.7128 41.8781 48.0529 41.292 52.8485C41.0669 54.6963 40.278 55.4831 38.3839 55.7516L37.9914 55.8076L37.9504 57.9611H81.5273L81.4175 56.1488L81.4138 56.1413ZM16.7211 11.0809C16.7155 11.0809 16.7118 11.0809 16.7062 11.0809C16.7099 11.0809 16.7137 11.0809 16.7155 11.0809H16.7211ZM2.81135 11.2282C3.01601 11.2282 3.21882 11.2263 3.42348 11.2263C3.5928 11.2263 3.76211 11.2263 3.93142 11.2282C3.55744 11.2282 3.18533 11.2282 2.81135 11.2282ZM20.3548 57.9331L4.77799 16.1562L20.3548 57.9313V57.9331ZM40.6557 11.0268C40.9143 10.6651 41.1841 10.3183 41.4632 9.99013C41.1841 10.3183 40.9162 10.6632 40.6557 11.0268ZM44.4922 7.54199C44.3955 7.5886 44.2987 7.63708 44.2039 7.68929C44.2987 7.63894 44.3955 7.5886 44.4922 7.54199ZM51.4955 0.467912C51.5104 0.467912 51.5271 0.467912 51.542 0.467912C51.5625 0.467912 51.5829 0.467912 51.6034 0.467912C51.5662 0.467912 51.5308 0.467912 51.4936 0.467912H51.4955ZM48.9428 25.6038C48.9651 25.6038 48.9874 25.602 49.0098 25.602C49.0786 25.602 49.1456 25.602 49.2144 25.6057C49.1232 25.602 49.0339 25.602 48.9428 25.6038ZM55.6911 53.2662C55.7079 53.1543 55.7209 53.0387 55.7265 52.9212C55.719 53.0387 55.7079 53.1543 55.6911 53.2662ZM77.0879 8.08271C77.1418 8.08271 77.1958 8.07711 77.2498 8.07711C77.2702 8.07711 77.2907 8.07711 77.3093 8.07711C77.2349 8.07711 77.1623 8.07898 77.0879 8.08084V8.08271ZM79.8602 55.9381C80.1058 56.0052 80.3718 56.0611 80.6565 56.1152C80.3718 56.0593 80.1058 56.0033 79.8602 55.9381Z" fill="#03879E"/>
<path d="M184.618 24.9476C184.425 24.9327 184.231 24.9233 184.04 24.9233C181.264 24.9233 178.754 26.6275 176.973 29.7227L176.964 29.7395L176.957 29.7581L176.385 30.9757V25.5647L176.313 25.451C176.196 25.2646 175.948 25.0427 175.433 25.0427C175.092 25.0427 174.729 25.1359 174.489 25.1974L174.458 25.2049C173.284 25.5051 172.113 25.8948 170.98 26.2714C169.207 26.8606 167.375 27.4703 165.514 27.7425L165.138 27.7985L165.118 28.1788L165.032 29.7376L165.475 29.7805C167.328 29.9632 168.106 30.6065 168.346 32.1559C169.151 37.3766 167.302 44.3165 163.947 48.659C161.832 51.3961 159.225 52.994 156.408 53.2756C155.991 53.3166 155.582 53.339 155.188 53.339C152.732 53.339 150.696 52.5279 149.137 50.9281C146.895 48.6254 145.645 44.6148 145.678 39.8732H164.664V35.9577C164.664 33.944 163.858 31.7457 162.392 29.7693C160.974 27.8563 159.08 26.3814 157.195 25.7214C155.318 25.065 153.487 24.7313 151.755 24.7313C147.647 24.7313 144.091 26.566 141.475 30.0341C139.146 33.1217 137.778 37.2237 137.624 41.5849C137.473 45.8715 138.541 49.9008 140.632 52.9269C143.025 56.3912 146.629 58.3882 151.05 58.7014C151.479 58.7312 151.909 58.748 152.328 58.748C156.334 58.748 159.861 57.3384 162.816 54.5584C165.03 52.4738 166.976 49.5558 168.608 45.8752C168.593 46.7497 168.532 47.626 168.472 48.4818C168.439 48.9498 168.405 49.4328 168.379 49.9101C168.355 50.365 168.349 50.82 168.346 51.26C168.322 53.6727 168.305 55.4179 165.473 55.7517L165.069 55.8002L165.028 57.963H181.658L181.418 56.0295L181.37 55.6361L180.975 55.6212C178.748 55.5354 177.453 55.17 176.981 53.4937C176.352 51.2563 176.562 41.4059 176.748 38.404C176.797 37.6321 176.996 35.6594 177.816 34.0298C178.559 32.5531 179.586 31.8035 180.867 31.8035C181.072 31.8035 181.288 31.8222 181.509 31.8594C181.848 31.9172 182.252 32.2305 182.642 32.5325C183.061 32.857 183.493 33.1907 183.952 33.297C184.274 33.3697 184.592 33.407 184.898 33.407C185.954 33.407 186.911 32.9577 187.592 32.1391C188.202 31.4064 188.563 30.4331 188.604 29.4001C188.688 27.3547 187.487 25.1862 184.62 24.9513L184.618 24.9476ZM151.753 25.1937C151.773 25.1937 151.794 25.1937 151.814 25.1937C151.744 25.1937 151.673 25.1937 151.602 25.1937C151.653 25.1937 151.701 25.1918 151.751 25.1918L151.753 25.1937ZM147.217 31.026C148.294 28.7009 149.818 27.5225 151.747 27.5225C152.032 27.5225 152.33 27.5486 152.633 27.6008C153.673 27.778 154.559 28.4343 155.268 29.5474C156.639 31.7028 156.959 35.0441 156.486 37.0149C156.451 37.0354 156.414 37.0559 156.384 37.0708H145.881C145.952 34.9303 146.441 32.7022 147.219 31.0241L147.217 31.026ZM151.083 58.2315C151.342 58.2502 151.595 58.2614 151.846 58.267C151.595 58.2595 151.342 58.2483 151.083 58.2315ZM152.328 58.2763C152.24 58.2763 152.153 58.2726 152.064 58.2707C152.229 58.2726 152.391 58.2707 152.553 58.2707C152.477 58.2707 152.404 58.2763 152.326 58.2763H152.328ZM175.418 25.5088C175.418 25.5088 175.429 25.5088 175.433 25.5088C175.436 25.5088 175.442 25.5088 175.448 25.5088C175.438 25.5088 175.427 25.5088 175.418 25.5088ZM184.008 25.3895C184.019 25.3895 184.029 25.3895 184.04 25.3895C184.092 25.3895 184.146 25.3913 184.198 25.3932C184.135 25.3932 184.071 25.3895 184.008 25.3913V25.3895ZM184.894 32.9353C184.853 32.9353 184.812 32.9334 184.771 32.9316C184.812 32.9316 184.853 32.9353 184.894 32.9353Z" fill="url(#paint1_linear_23_2471)"/>
<path d="M184.618 24.9476C184.425 24.9327 184.231 24.9233 184.04 24.9233C181.264 24.9233 178.754 26.6275 176.973 29.7227L176.964 29.7395L176.957 29.7581L176.385 30.9757V25.5647L176.313 25.451C176.196 25.2646 175.948 25.0427 175.433 25.0427C175.092 25.0427 174.729 25.1359 174.489 25.1974L174.458 25.2049C173.284 25.5051 172.113 25.8948 170.98 26.2714C169.207 26.8606 167.375 27.4703 165.514 27.7425L165.138 27.7985L165.118 28.1788L165.032 29.7376L165.475 29.7805C167.328 29.9632 168.106 30.6065 168.346 32.1559C169.151 37.3766 167.302 44.3165 163.947 48.659C161.832 51.3961 159.225 52.994 156.408 53.2756C155.991 53.3166 155.582 53.339 155.188 53.339C152.732 53.339 150.696 52.5279 149.137 50.9281C146.895 48.6254 145.645 44.6148 145.678 39.8732H164.664V35.9577C164.664 33.944 163.858 31.7457 162.392 29.7693C160.974 27.8563 159.08 26.3814 157.195 25.7214C155.318 25.065 153.487 24.7313 151.755 24.7313C147.647 24.7313 144.091 26.566 141.475 30.0341C139.146 33.1217 137.778 37.2237 137.624 41.5849C137.473 45.8715 138.541 49.9008 140.632 52.9269C143.025 56.3912 146.629 58.3882 151.05 58.7014C151.479 58.7312 151.909 58.748 152.328 58.748C156.334 58.748 159.861 57.3384 162.816 54.5584C165.03 52.4738 166.976 49.5558 168.608 45.8752C168.593 46.7497 168.532 47.626 168.472 48.4818C168.439 48.9498 168.405 49.4328 168.379 49.9101C168.355 50.365 168.349 50.82 168.346 51.26C168.322 53.6727 168.305 55.4179 165.473 55.7517L165.069 55.8002L165.028 57.963H181.658L181.418 56.0295L181.37 55.6361L180.975 55.6212C178.748 55.5354 177.453 55.17 176.981 53.4937C176.352 51.2563 176.562 41.4059 176.748 38.404C176.797 37.6321 176.996 35.6594 177.816 34.0298C178.559 32.5531 179.586 31.8035 180.867 31.8035C181.072 31.8035 181.288 31.8222 181.509 31.8594C181.848 31.9172 182.252 32.2305 182.642 32.5325C183.061 32.857 183.493 33.1907 183.952 33.297C184.274 33.3697 184.592 33.407 184.898 33.407C185.954 33.407 186.911 32.9577 187.592 32.1391C188.202 31.4064 188.563 30.4331 188.604 29.4001C188.688 27.3547 187.487 25.1862 184.62 24.9513L184.618 24.9476ZM151.753 25.1937C151.773 25.1937 151.794 25.1937 151.814 25.1937C151.744 25.1937 151.673 25.1937 151.602 25.1937C151.653 25.1937 151.701 25.1918 151.751 25.1918L151.753 25.1937ZM147.217 31.026C148.294 28.7009 149.818 27.5225 151.747 27.5225C152.032 27.5225 152.33 27.5486 152.633 27.6008C153.673 27.778 154.559 28.4343 155.268 29.5474C156.639 31.7028 156.959 35.0441 156.486 37.0149C156.451 37.0354 156.414 37.0559 156.384 37.0708H145.881C145.952 34.9303 146.441 32.7022 147.219 31.0241L147.217 31.026ZM151.083 58.2315C151.342 58.2502 151.595 58.2614 151.846 58.267C151.595 58.2595 151.342 58.2483 151.083 58.2315ZM152.328 58.2763C152.24 58.2763 152.153 58.2726 152.064 58.2707C152.229 58.2726 152.391 58.2707 152.553 58.2707C152.477 58.2707 152.404 58.2763 152.326 58.2763H152.328ZM175.418 25.5088C175.418 25.5088 175.429 25.5088 175.433 25.5088C175.436 25.5088 175.442 25.5088 175.448 25.5088C175.438 25.5088 175.427 25.5088 175.418 25.5088ZM184.008 25.3895C184.019 25.3895 184.029 25.3895 184.04 25.3895C184.092 25.3895 184.146 25.3913 184.198 25.3932C184.135 25.3932 184.071 25.3895 184.008 25.3913V25.3895ZM184.894 32.9353C184.853 32.9353 184.812 32.9334 184.771 32.9316C184.812 32.9316 184.853 32.9353 184.894 32.9353Z" fill="#03879E"/>
<path d="M133.218 53.6653C130.22 52.692 126.492 52.6882 123.2 52.6864C121.5 52.6864 119.892 52.6845 118.569 52.5484C117.907 52.4813 116.876 52.1662 116.59 51.8753C116.29 51.5714 116.162 51.1966 116.201 50.7305C116.266 49.9268 116.94 48.6608 117.968 47.8348C119.645 48.3308 121.362 48.5806 123.079 48.5806C125.297 48.5806 127.433 48.1406 129.258 47.3072C131.288 46.3805 132.933 44.9933 134.148 43.1884C136.879 39.1255 136.675 33.2448 133.672 29.512C133.553 29.3628 133.315 29.1353 133.013 28.8482C132.73 28.5778 132.254 28.1229 132.029 27.8525C132.046 27.8339 132.061 27.8171 132.077 27.7984C132.587 27.2354 133.222 26.5343 133.858 26.4485C133.934 26.4373 134.012 26.4336 134.09 26.4336C134.587 26.4336 135.052 26.6462 135.545 26.8736C136.089 27.1216 136.649 27.3789 137.306 27.3789H137.322C138.775 27.3696 139.923 26.2099 140.115 24.5579C140.208 23.7505 140.052 22.945 139.676 22.2887C139.241 21.5317 138.548 21.019 137.672 20.8064C137.278 20.7113 136.879 20.6628 136.489 20.6628C133.502 20.6628 131.078 23.5007 129.895 26.4597C127.694 25.4454 125.29 24.9121 122.91 24.9121C118.992 24.9121 115.406 26.3646 113.073 28.8967C110.863 31.2963 109.851 34.5257 110.148 38.2362C110.4 41.3891 112.135 44.1244 115.445 46.5744C112.908 47.8404 110.935 50.475 110.63 53.1227C110.625 53.1656 110.625 53.2084 110.619 53.2513L110.574 53.0183L110.005 53.3595C109.266 53.8032 108.647 54.0288 108.163 54.0288C107.838 54.0288 107.586 53.9282 107.372 53.7137C106.509 52.843 106.524 50.4154 106.535 48.6422C106.537 48.3047 106.539 47.9859 106.535 47.6931C106.522 46.6229 106.561 45.2935 106.602 43.8876C106.749 38.8962 106.933 32.6835 105.169 29.4747C103.577 26.5734 99.9244 24.9084 95.152 24.9084C90.6643 24.9084 86.3031 26.4038 84.0406 28.7177C82.4833 30.31 81.8637 32.8308 82.5986 34.5835C83.1252 35.8421 84.2378 36.5338 85.7281 36.5338C85.9347 36.5338 86.1524 36.5208 86.3738 36.4928C88.9581 36.1796 89.3228 34.1509 89.6428 32.361C89.7545 31.7438 89.868 31.1043 90.0689 30.5636C90.7685 28.6785 92.2942 27.5076 94.0487 27.5076C95.7604 27.5076 97.2154 28.6766 97.8443 30.5561C98.3429 32.0477 98.6313 36.1926 98.4434 37.77C98.4378 37.8148 98.4341 37.8595 98.4323 37.9043C98.4323 37.9173 98.4323 37.9304 98.4285 37.9434C97.0759 38.5494 95.34 39.0566 93.5073 39.5917C90.8317 40.3729 88.0669 41.1784 85.7542 42.4612C83.034 43.9678 81.4897 45.8621 81.032 48.2525C80.1017 53.1115 82.7959 57.385 87.4399 58.4142C88.333 58.6119 89.2261 58.7126 90.0931 58.7126C93.3956 58.7126 96.4042 57.2843 98.8453 54.5696C99.21 55.733 99.8537 56.7026 100.734 57.4074C101.8 58.2632 103.193 58.7144 104.762 58.7144C104.954 58.7144 105.149 58.707 105.344 58.6939C106.892 58.5877 108.945 57.8418 110.039 56.4136C110.385 55.9624 110.604 55.4701 110.703 54.9537C110.999 56.4043 111.877 57.6591 113.278 58.5877L113.295 58.5988L113.311 58.6082L114.51 59.2626C112.785 59.9599 111.341 60.95 110.295 62.1582C109.11 63.5268 108.491 65.1452 108.548 66.7133C108.664 69.8215 111.274 72.292 115.531 73.3231C117.358 73.765 119.457 73.9981 121.6 73.9981C124.475 73.9981 127.29 73.5842 129.744 72.8011C132.563 71.9024 134.796 70.5673 136.381 68.8352C138.387 66.6443 139.263 63.9109 138.986 60.7132C138.675 57.1296 136.79 54.8231 133.22 53.6634L133.218 53.6653ZM137.315 26.9109C137.315 26.9109 137.306 26.9109 137.302 26.9109C137.231 26.9109 137.16 26.9072 137.092 26.8997C137.166 26.9072 137.24 26.9109 137.315 26.9109ZM136.483 21.1271C136.498 21.1271 136.513 21.1271 136.53 21.1271C136.463 21.1271 136.398 21.1271 136.331 21.1308C136.381 21.1308 136.431 21.1252 136.483 21.1252V21.1271ZM123.078 48.1145C123.039 48.1145 122.998 48.1126 122.959 48.1126C123.063 48.1126 123.165 48.1126 123.269 48.1126C123.206 48.1126 123.141 48.1145 123.078 48.1145ZM122.905 25.3764C122.951 25.3764 122.999 25.3764 123.046 25.3783C122.983 25.3783 122.919 25.3783 122.856 25.3783C122.873 25.3783 122.888 25.3783 122.905 25.3783V25.3764ZM118.168 33.806C118.452 31.837 119.617 28.0073 121.993 27.6008C122.296 27.5486 122.596 27.5225 122.88 27.5225C124.073 27.5225 126.244 28.0446 127.374 31.5369C127.876 33.0919 128.151 35.5456 128.077 37.7905C127.984 40.5426 127.392 42.8379 126.408 44.2549C125.627 45.3792 124.592 45.9777 123.329 46.0299C123.26 46.0337 123.193 46.0337 123.126 46.0337C121.933 46.0337 120.925 45.5675 120.13 44.6465C117.927 42.0958 117.756 36.6438 118.168 33.8079V33.806ZM85.7244 36.0696C85.6965 36.0696 85.6705 36.0677 85.6444 36.0658C85.7151 36.0658 85.7877 36.0658 85.8621 36.0658C85.8156 36.0658 85.7691 36.0696 85.7244 36.0696ZM89.6298 30.4013C89.5647 30.5766 89.5089 30.7593 89.4586 30.9477C89.5089 30.7612 89.5647 30.5785 89.6298 30.4013C89.68 30.2634 89.7359 30.131 89.7935 30.0005C89.7359 30.1291 89.68 30.2634 89.6298 30.4013ZM95.0478 25.3783C95.0813 25.3783 95.1148 25.3783 95.1483 25.3783C95.1799 25.3783 95.2097 25.3783 95.2413 25.3783C95.1762 25.3783 95.1111 25.3783 95.0478 25.3783ZM88.9284 50.7845C88.8726 50.5794 88.826 50.3799 88.7888 50.1823C88.8279 50.3799 88.8744 50.5794 88.9284 50.7845C88.934 50.8013 88.9395 50.8181 88.9432 50.8349C88.9377 50.8181 88.9321 50.8013 88.9284 50.7845ZM90.0875 58.2464C90.0875 58.2464 90.0856 58.2464 90.0838 58.2464C90.0894 58.2464 90.095 58.2464 90.1005 58.2464C90.0968 58.2464 90.0912 58.2464 90.0875 58.2464ZM98.4267 51.2805C97.2824 52.8654 95.3455 53.8834 93.4496 53.8834C91.4122 53.8834 89.9294 52.7087 89.3786 50.6633C88.9042 48.8958 89.0605 47.3165 89.8456 45.9684C91.0922 43.8261 93.9017 42.1778 98.4267 40.9397V51.2805ZM104.756 58.2502C104.756 58.2502 104.747 58.2502 104.743 58.2502C104.758 58.2502 104.773 58.2502 104.786 58.2502C104.777 58.2502 104.766 58.2502 104.756 58.2502ZM121.597 73.5338C121.587 73.5338 121.578 73.5338 121.569 73.5338C121.712 73.5338 121.853 73.5338 121.997 73.532C121.863 73.532 121.729 73.5357 121.597 73.5357V73.5338ZM130.148 69.5474C128.576 70.5151 125.986 71.1155 123.392 71.1155C121.437 71.1155 119.704 70.7762 118.515 70.159C116.631 69.182 115.458 67.4666 115.298 65.4529C115.135 63.387 116.059 61.3789 117.777 60.0494L128.86 60.4242C131.028 60.6536 132.507 61.8245 132.918 63.6368C133.411 65.8109 132.273 68.2404 130.148 69.5456V69.5474Z" fill="url(#paint2_linear_23_2471)"/>
<path d="M133.218 53.6653C130.22 52.692 126.492 52.6882 123.2 52.6864C121.5 52.6864 119.892 52.6845 118.569 52.5484C117.907 52.4813 116.876 52.1662 116.59 51.8753C116.29 51.5714 116.162 51.1966 116.201 50.7305C116.266 49.9268 116.94 48.6608 117.968 47.8348C119.645 48.3308 121.362 48.5806 123.079 48.5806C125.297 48.5806 127.433 48.1406 129.258 47.3072C131.288 46.3805 132.933 44.9933 134.148 43.1884C136.879 39.1255 136.675 33.2448 133.672 29.512C133.553 29.3628 133.315 29.1353 133.013 28.8482C132.73 28.5778 132.254 28.1229 132.029 27.8525C132.046 27.8339 132.061 27.8171 132.077 27.7984C132.587 27.2354 133.222 26.5343 133.858 26.4485C133.934 26.4373 134.012 26.4336 134.09 26.4336C134.587 26.4336 135.052 26.6462 135.545 26.8736C136.089 27.1216 136.649 27.3789 137.306 27.3789H137.322C138.775 27.3696 139.923 26.2099 140.115 24.5579C140.208 23.7505 140.052 22.945 139.676 22.2887C139.241 21.5317 138.548 21.019 137.672 20.8064C137.278 20.7113 136.879 20.6628 136.489 20.6628C133.502 20.6628 131.078 23.5007 129.895 26.4597C127.694 25.4454 125.29 24.9121 122.91 24.9121C118.992 24.9121 115.406 26.3646 113.073 28.8967C110.863 31.2963 109.851 34.5257 110.148 38.2362C110.4 41.3891 112.135 44.1244 115.445 46.5744C112.908 47.8404 110.935 50.475 110.63 53.1227C110.625 53.1656 110.625 53.2084 110.619 53.2513L110.574 53.0183L110.005 53.3595C109.266 53.8032 108.647 54.0288 108.163 54.0288C107.838 54.0288 107.586 53.9282 107.372 53.7137C106.509 52.843 106.524 50.4154 106.535 48.6422C106.537 48.3047 106.539 47.9859 106.535 47.6931C106.522 46.6229 106.561 45.2935 106.602 43.8876C106.749 38.8962 106.933 32.6835 105.169 29.4747C103.577 26.5734 99.9244 24.9084 95.152 24.9084C90.6643 24.9084 86.3031 26.4038 84.0406 28.7177C82.4833 30.31 81.8637 32.8308 82.5986 34.5835C83.1252 35.8421 84.2378 36.5338 85.7281 36.5338C85.9347 36.5338 86.1524 36.5208 86.3738 36.4928C88.9581 36.1796 89.3228 34.1509 89.6428 32.361C89.7545 31.7438 89.868 31.1043 90.0689 30.5636C90.7685 28.6785 92.2942 27.5076 94.0487 27.5076C95.7604 27.5076 97.2154 28.6766 97.8443 30.5561C98.3429 32.0477 98.6313 36.1926 98.4434 37.77C98.4378 37.8148 98.4341 37.8595 98.4323 37.9043C98.4323 37.9173 98.4323 37.9304 98.4285 37.9434C97.0759 38.5494 95.34 39.0566 93.5073 39.5917C90.8317 40.3729 88.0669 41.1784 85.7542 42.4612C83.034 43.9678 81.4897 45.8621 81.032 48.2525C80.1017 53.1115 82.7959 57.385 87.4399 58.4142C88.333 58.6119 89.2261 58.7126 90.0931 58.7126C93.3956 58.7126 96.4042 57.2843 98.8453 54.5696C99.21 55.733 99.8537 56.7026 100.734 57.4074C101.8 58.2632 103.193 58.7144 104.762 58.7144C104.954 58.7144 105.149 58.707 105.344 58.6939C106.892 58.5877 108.945 57.8418 110.039 56.4136C110.385 55.9624 110.604 55.4701 110.703 54.9537C110.999 56.4043 111.877 57.6591 113.278 58.5877L113.295 58.5988L113.311 58.6082L114.51 59.2626C112.785 59.9599 111.341 60.95 110.295 62.1582C109.11 63.5268 108.491 65.1452 108.548 66.7133C108.664 69.8215 111.274 72.292 115.531 73.3231C117.358 73.765 119.457 73.9981 121.6 73.9981C124.475 73.9981 127.29 73.5842 129.744 72.8011C132.563 71.9024 134.796 70.5673 136.381 68.8352C138.387 66.6443 139.263 63.9109 138.986 60.7132C138.675 57.1296 136.79 54.8231 133.22 53.6634L133.218 53.6653ZM137.315 26.9109C137.315 26.9109 137.306 26.9109 137.302 26.9109C137.231 26.9109 137.16 26.9072 137.092 26.8997C137.166 26.9072 137.24 26.9109 137.315 26.9109ZM136.483 21.1271C136.498 21.1271 136.513 21.1271 136.53 21.1271C136.463 21.1271 136.398 21.1271 136.331 21.1308C136.381 21.1308 136.431 21.1252 136.483 21.1252V21.1271ZM123.078 48.1145C123.039 48.1145 122.998 48.1126 122.959 48.1126C123.063 48.1126 123.165 48.1126 123.269 48.1126C123.206 48.1126 123.141 48.1145 123.078 48.1145ZM122.905 25.3764C122.951 25.3764 122.999 25.3764 123.046 25.3783C122.983 25.3783 122.919 25.3783 122.856 25.3783C122.873 25.3783 122.888 25.3783 122.905 25.3783V25.3764ZM118.168 33.806C118.452 31.837 119.617 28.0073 121.993 27.6008C122.296 27.5486 122.596 27.5225 122.88 27.5225C124.073 27.5225 126.244 28.0446 127.374 31.5369C127.876 33.0919 128.151 35.5456 128.077 37.7905C127.984 40.5426 127.392 42.8379 126.408 44.2549C125.627 45.3792 124.592 45.9777 123.329 46.0299C123.26 46.0337 123.193 46.0337 123.126 46.0337C121.933 46.0337 120.925 45.5675 120.13 44.6465C117.927 42.0958 117.756 36.6438 118.168 33.8079V33.806ZM85.7244 36.0696C85.6965 36.0696 85.6705 36.0677 85.6444 36.0658C85.7151 36.0658 85.7877 36.0658 85.8621 36.0658C85.8156 36.0658 85.7691 36.0696 85.7244 36.0696ZM89.6298 30.4013C89.5647 30.5766 89.5089 30.7593 89.4586 30.9477C89.5089 30.7612 89.5647 30.5785 89.6298 30.4013C89.68 30.2634 89.7359 30.131 89.7935 30.0005C89.7359 30.1291 89.68 30.2634 89.6298 30.4013ZM95.0478 25.3783C95.0813 25.3783 95.1148 25.3783 95.1483 25.3783C95.1799 25.3783 95.2097 25.3783 95.2413 25.3783C95.1762 25.3783 95.1111 25.3783 95.0478 25.3783ZM88.9284 50.7845C88.8726 50.5794 88.826 50.3799 88.7888 50.1823C88.8279 50.3799 88.8744 50.5794 88.9284 50.7845C88.934 50.8013 88.9395 50.8181 88.9432 50.8349C88.9377 50.8181 88.9321 50.8013 88.9284 50.7845ZM90.0875 58.2464C90.0875 58.2464 90.0856 58.2464 90.0838 58.2464C90.0894 58.2464 90.095 58.2464 90.1005 58.2464C90.0968 58.2464 90.0912 58.2464 90.0875 58.2464ZM98.4267 51.2805C97.2824 52.8654 95.3455 53.8834 93.4496 53.8834C91.4122 53.8834 89.9294 52.7087 89.3786 50.6633C88.9042 48.8958 89.0605 47.3165 89.8456 45.9684C91.0922 43.8261 93.9017 42.1778 98.4267 40.9397V51.2805ZM104.756 58.2502C104.756 58.2502 104.747 58.2502 104.743 58.2502C104.758 58.2502 104.773 58.2502 104.786 58.2502C104.777 58.2502 104.766 58.2502 104.756 58.2502ZM121.597 73.5338C121.587 73.5338 121.578 73.5338 121.569 73.5338C121.712 73.5338 121.853 73.5338 121.997 73.532C121.863 73.532 121.729 73.5357 121.597 73.5357V73.5338ZM130.148 69.5474C128.576 70.5151 125.986 71.1155 123.392 71.1155C121.437 71.1155 119.704 70.7762 118.515 70.159C116.631 69.182 115.458 67.4666 115.298 65.4529C115.135 63.387 116.059 61.3789 117.777 60.0494L128.86 60.4242C131.028 60.6536 132.507 61.8245 132.918 63.6368C133.411 65.8109 132.273 68.2404 130.148 69.5456V69.5474Z" fill="#03879E"/>
<path d="M202.179 38.1523C200.886 37.5631 199.548 36.9534 198.361 36.2374C196.522 35.1299 194.805 33.0602 195.495 30.5673C196.002 28.7364 197.689 27.5058 199.695 27.5058C200.396 27.5058 201.129 27.6493 201.872 27.929C204.08 28.7643 205.522 31.5798 206.041 32.7507C206.173 33.0472 206.261 33.3828 206.346 33.7072C206.575 34.5705 206.858 35.6463 208.131 35.6463C208.324 35.6463 208.538 35.6202 208.769 35.5662L209.13 35.4823V27.0993L208.892 26.965C206.549 25.6524 203.476 24.901 200.463 24.901C196.498 24.901 193.032 26.1745 190.956 28.3951C189.249 30.2187 188.477 32.5848 188.66 35.4263C189.021 41.0386 193.198 42.9311 197.239 44.7621C198.751 45.4483 200.314 46.1568 201.619 47.0499C203.915 48.6236 204.467 51.1295 203.995 52.9157C203.509 54.7579 202.043 55.9139 199.974 56.0855C199.76 56.1041 199.546 56.1116 199.339 56.1116C197.192 56.1116 195.341 55.1532 193.836 53.2607C192.638 51.756 191.65 49.6267 190.978 47.1058L190.898 46.8038L190.589 46.7628L188.665 46.511V55.9717L188.887 56.1078C191.575 57.7729 195.174 58.7257 198.759 58.7257C202.817 58.7257 206.244 57.51 208.41 55.3024C210.177 53.4993 211.048 51.1277 210.998 48.2507C210.89 42.1163 206.464 40.097 202.182 38.1448L202.179 38.1523ZM208.151 35.1802C208.151 35.1802 208.138 35.1802 208.133 35.1802C208.125 35.1802 208.121 35.1802 208.114 35.1802C208.127 35.1802 208.14 35.1802 208.151 35.1802ZM200.463 25.3709C200.474 25.3709 200.486 25.3709 200.497 25.3709C200.484 25.3709 200.471 25.3709 200.458 25.3709C200.458 25.3709 200.461 25.3709 200.463 25.3709ZM198.757 58.267C198.746 58.267 198.737 58.267 198.725 58.267C198.77 58.267 198.815 58.267 198.859 58.267C198.826 58.267 198.791 58.267 198.757 58.267ZM210.509 47.7379C210.52 47.9094 210.527 48.0866 210.529 48.2656C210.529 48.2656 210.529 48.2656 210.529 48.2674C210.529 48.2674 210.529 48.2674 210.529 48.2656C210.525 48.0866 210.52 47.9094 210.509 47.7379Z" fill="url(#paint3_linear_23_2471)"/>
<path d="M202.179 38.1523C200.886 37.5631 199.548 36.9534 198.361 36.2374C196.522 35.1299 194.805 33.0602 195.495 30.5673C196.002 28.7364 197.689 27.5058 199.695 27.5058C200.396 27.5058 201.129 27.6493 201.872 27.929C204.08 28.7643 205.522 31.5798 206.041 32.7507C206.173 33.0472 206.261 33.3828 206.346 33.7072C206.575 34.5705 206.858 35.6463 208.131 35.6463C208.324 35.6463 208.538 35.6202 208.769 35.5662L209.13 35.4823V27.0993L208.892 26.965C206.549 25.6524 203.476 24.901 200.463 24.901C196.498 24.901 193.032 26.1745 190.956 28.3951C189.249 30.2187 188.477 32.5848 188.66 35.4263C189.021 41.0386 193.198 42.9311 197.239 44.7621C198.751 45.4483 200.314 46.1568 201.619 47.0499C203.915 48.6236 204.467 51.1295 203.995 52.9157C203.509 54.7579 202.043 55.9139 199.974 56.0855C199.76 56.1041 199.546 56.1116 199.339 56.1116C197.192 56.1116 195.341 55.1532 193.836 53.2607C192.638 51.756 191.65 49.6267 190.978 47.1058L190.898 46.8038L190.589 46.7628L188.665 46.511V55.9717L188.887 56.1078C191.575 57.7729 195.174 58.7257 198.759 58.7257C202.817 58.7257 206.244 57.51 208.41 55.3024C210.177 53.4993 211.048 51.1277 210.998 48.2507C210.89 42.1163 206.464 40.097 202.182 38.1448L202.179 38.1523ZM208.151 35.1802C208.151 35.1802 208.138 35.1802 208.133 35.1802C208.125 35.1802 208.121 35.1802 208.114 35.1802C208.127 35.1802 208.14 35.1802 208.151 35.1802ZM200.463 25.3709C200.474 25.3709 200.486 25.3709 200.497 25.3709C200.484 25.3709 200.471 25.3709 200.458 25.3709C200.458 25.3709 200.461 25.3709 200.463 25.3709ZM198.757 58.267C198.746 58.267 198.737 58.267 198.725 58.267C198.77 58.267 198.815 58.267 198.859 58.267C198.826 58.267 198.791 58.267 198.757 58.267ZM210.509 47.7379C210.52 47.9094 210.527 48.0866 210.529 48.2656C210.529 48.2656 210.529 48.2656 210.529 48.2674C210.529 48.2674 210.529 48.2674 210.529 48.2656C210.525 48.0866 210.52 47.9094 210.509 47.7379Z" fill="#03879E"/>
<path d="M45.1303 22.7568C45.4132 22.7568 45.709 22.7362 46.0067 22.6934C47.3351 22.5088 48.4087 21.8767 49.1139 20.8698C49.7353 19.9823 50.0311 18.8431 49.9493 17.6628C49.7893 15.3545 48.1203 13.0182 45.2401 13.0182C44.9834 13.0182 44.7192 13.0369 44.4531 13.0742C43.0967 13.2606 41.9915 13.9076 41.2566 14.9425C40.6054 15.8579 40.2928 17.0233 40.3747 18.2222C40.5235 20.4074 42.0753 22.7568 45.1303 22.7568ZM45.2401 13.4844C45.2494 13.4844 45.2587 13.4844 45.2699 13.4844C45.2438 13.4844 45.2159 13.4844 45.188 13.4844C45.2048 13.4844 45.2234 13.4825 45.2401 13.4825V13.4844ZM45.1508 22.2888C45.1508 22.2888 45.1378 22.2888 45.1303 22.2888C45.1285 22.2888 45.1266 22.2888 45.1248 22.2888C45.1341 22.2888 45.1434 22.2888 45.1508 22.2888Z" fill="url(#paint4_linear_23_2471)"/>
<path d="M45.1303 22.7568C45.4132 22.7568 45.709 22.7362 46.0067 22.6934C47.3351 22.5088 48.4087 21.8767 49.1139 20.8698C49.7353 19.9823 50.0311 18.8431 49.9493 17.6628C49.7893 15.3545 48.1203 13.0182 45.2401 13.0182C44.9834 13.0182 44.7192 13.0369 44.4531 13.0742C43.0967 13.2606 41.9915 13.9076 41.2566 14.9425C40.6054 15.8579 40.2928 17.0233 40.3747 18.2222C40.5235 20.4074 42.0753 22.7568 45.1303 22.7568ZM45.2401 13.4844C45.2494 13.4844 45.2587 13.4844 45.2699 13.4844C45.2438 13.4844 45.2159 13.4844 45.188 13.4844C45.2048 13.4844 45.2234 13.4825 45.2401 13.4825V13.4844ZM45.1508 22.2888C45.1508 22.2888 45.1378 22.2888 45.1303 22.2888C45.1285 22.2888 45.1266 22.2888 45.1248 22.2888C45.1341 22.2888 45.1434 22.2888 45.1508 22.2888Z" fill="#03879E"/>
<defs>
<linearGradient id="paint0_linear_23_2471" x1="171.52" y1="-27.1134" x2="-6.05814" y2="73.7366" gradientUnits="userSpaceOnUse">
<stop stop-color="#00F84E"/>
<stop offset="1" stop-color="#00C2A8"/>
</linearGradient>
<linearGradient id="paint1_linear_23_2471" x1="171.52" y1="-27.1134" x2="-6.05814" y2="73.7366" gradientUnits="userSpaceOnUse">
<stop stop-color="#00F84E"/>
<stop offset="1" stop-color="#00C2A8"/>
</linearGradient>
<linearGradient id="paint2_linear_23_2471" x1="171.52" y1="-27.1134" x2="-6.05814" y2="73.7366" gradientUnits="userSpaceOnUse">
<stop stop-color="#00F84E"/>
<stop offset="1" stop-color="#00C2A8"/>
</linearGradient>
<linearGradient id="paint3_linear_23_2471" x1="171.52" y1="-27.1134" x2="-6.05814" y2="73.7366" gradientUnits="userSpaceOnUse">
<stop stop-color="#00F84E"/>
<stop offset="1" stop-color="#00C2A8"/>
</linearGradient>
<linearGradient id="paint4_linear_23_2471" x1="171.52" y1="-27.1134" x2="-6.05814" y2="73.7366" gradientUnits="userSpaceOnUse">
<stop stop-color="#00F84E"/>
<stop offset="1" stop-color="#00C2A8"/>
</linearGradient>
</defs>
</svg>
