<svg width="1387" height="486" viewBox="0 0 1387 486" fill="none" xmlns="http://www.w3.org/2000/svg">
<path d="M535.17 368.025L535.023 365.641L532.675 365.201C522.083 363.233 517.24 361.987 513.608 352.954C513.057 351.585 511.455 346.684 511.235 345.523V49.9296L508.214 49.893H507.786C498.503 49.893 489.587 52.9242 480.952 55.8698C477.259 57.1288 473.443 58.4244 469.737 59.4266C464.527 60.8322 459.145 62.0545 453.935 63.2279C447.746 64.6213 441.338 66.0635 435.112 67.8725L432.886 68.5203L432.911 70.8426L432.996 81.843L436.189 81.6719C436.739 81.6475 437.277 81.623 437.803 81.623C449.043 81.623 455.072 88.0643 456.259 101.314L456.198 343.017C454.388 357 450.034 363.087 441.228 364.028C439.992 364.162 438.806 364.223 437.681 364.223C422.943 364.223 419.31 352.868 418.234 334.559C415.654 290.545 416.828 244.392 417.977 199.755C419.029 158.711 420.118 116.262 418.283 75.4383V75.365C416.705 53.0586 407.851 33.9913 392.685 20.2041C378.338 7.17472 359.222 -0.012207 338.834 -0.012207C326.579 -0.012207 314.299 2.51789 302.338 7.51696C284.677 14.8994 270.245 27.5377 258.235 46.1406C247.753 62.3845 240.354 81.0363 233.199 99.0648L231.695 102.842L231.646 102.939L159.853 304.442L93.2086 117.13C90.5424 104.785 90.7992 97.4636 94.0648 92.6601C97.0001 88.3577 102.651 85.6443 111.872 84.1409L114.441 83.7253V81.1219L114.416 73.6538V72.8105L113.976 72.0893C112.655 69.9015 110.857 69.5837 109.903 69.5837C108.521 69.5837 107.445 70.2192 106.772 70.6959C99.5685 70.8548 91.8266 70.9282 83.1185 70.9282C73.0283 70.9282 62.7669 70.8304 52.8358 70.7326C42.8924 70.6348 32.6187 70.537 22.5041 70.537C15.4104 70.537 9.03834 70.5859 3.02093 70.6837L0 70.7326L0.0856135 82.2708L0.110075 85.2531L3.09432 85.302C15.8018 85.522 22.0883 93.4668 28.6194 107.119L131.661 382.716L151.169 383.78L151.964 381.69C166.641 342.993 180.534 303.257 193.988 264.829C206.744 228.381 219.929 190.674 233.749 153.969C235.107 150.376 236.501 146.501 237.993 142.406C249.771 109.967 265.891 65.5502 293.813 52.2153C302.167 48.2184 311.107 46.1161 319.669 46.1161C331.165 46.1161 341.732 49.9296 349.438 56.8354C357.742 64.2913 362.524 75.035 363.27 87.9177L363.295 346.855C362.585 358.491 353.718 364.578 345.304 364.578C338.088 364.578 331.972 360.227 328.976 352.954C328.205 351.108 326.897 347.662 326.603 346.647V164.945L323.668 164.823C323.179 164.798 322.69 164.798 322.2 164.798C314.116 164.798 306.447 167.402 299.024 169.92C295.66 171.056 292.187 172.242 288.787 173.122L288.505 173.195C277.314 176.116 265.744 179.135 254.187 180.969L253.269 181.116L249.991 184.159L249.784 185.076C249.172 187.777 248.695 191.199 250.456 193.607C252.156 195.929 254.896 196.162 257.318 196.369C258.687 196.492 260.106 196.602 261.476 197.042C271.297 200.146 272.288 216.219 272.826 224.848C275.027 260.331 275.284 315.003 271.432 346.439C269.952 358.552 264.766 363.71 252.315 365.47L249.735 365.837L249.466 379.954H535.916L535.195 368.074L535.17 368.025ZM109.916 72.6393C109.879 72.6393 109.854 72.6393 109.818 72.6393C109.842 72.6393 109.867 72.6393 109.879 72.6393H109.916ZM18.4803 73.6049C19.8256 73.6049 21.1588 73.5927 22.5041 73.5927C23.6171 73.5927 24.7301 73.5927 25.843 73.6049C23.3847 73.6049 20.9386 73.6049 18.4803 73.6049ZM133.802 379.771L31.4079 105.909L133.802 379.758V379.771ZM267.249 72.2849C268.949 69.9137 270.722 67.6403 272.557 65.4891C270.722 67.6403 268.961 69.9015 267.249 72.2849ZM292.468 49.4407C291.832 49.7463 291.196 50.0641 290.572 50.4063C291.196 50.0763 291.832 49.7463 292.468 49.4407ZM338.504 3.06791C338.601 3.06791 338.711 3.06791 338.809 3.06791C338.944 3.06791 339.078 3.06791 339.213 3.06791C338.968 3.06791 338.736 3.06791 338.491 3.06791H338.504ZM321.723 167.842C321.87 167.842 322.017 167.829 322.164 167.829C322.616 167.829 323.056 167.829 323.509 167.854C322.91 167.829 322.323 167.829 321.723 167.842ZM366.083 349.177C366.193 348.444 366.279 347.686 366.316 346.916C366.267 347.686 366.193 348.444 366.083 349.177ZM506.734 52.9853C507.089 52.9853 507.444 52.9486 507.798 52.9486C507.933 52.9486 508.067 52.9486 508.19 52.9486C507.7 52.9486 507.223 52.9608 506.734 52.9731V52.9853ZM524.958 366.692C526.572 367.132 528.321 367.499 530.192 367.853C528.321 367.487 526.572 367.12 524.958 366.692Z" fill="url(#paint0_linear_28_35)"/>
<path d="M1213.58 163.54C1212.31 163.442 1211.04 163.381 1209.78 163.381C1191.53 163.381 1175.03 174.553 1163.33 194.842L1163.27 194.952L1163.22 195.074L1159.46 203.056V167.586L1158.98 166.84C1158.21 165.618 1156.59 164.163 1153.2 164.163C1150.96 164.163 1148.58 164.774 1147 165.178L1146.79 165.227C1139.07 167.194 1131.38 169.749 1123.93 172.218C1112.28 176.08 1100.23 180.077 1088 181.862L1085.53 182.228L1085.39 184.722L1084.83 194.94L1087.74 195.221C1099.92 196.419 1105.04 200.636 1106.61 210.793C1111.91 245.016 1099.75 290.509 1077.7 318.976C1063.79 336.918 1046.66 347.393 1028.14 349.239C1025.4 349.508 1022.71 349.654 1020.12 349.654C1003.98 349.654 990.595 344.338 980.346 333.851C965.608 318.756 957.389 292.465 957.61 261.382H1082.41V235.715C1082.41 222.514 1077.11 208.104 1067.48 195.148C1058.16 182.607 1045.71 172.939 1033.32 168.612C1020.98 164.31 1008.94 162.122 997.554 162.122C970.55 162.122 947.177 174.149 929.981 196.883C914.668 217.124 905.679 244.014 904.664 272.603C903.673 300.703 910.693 327.116 924.441 346.953C940.169 369.663 963.859 382.753 992.919 384.807C995.744 385.002 998.57 385.112 1001.32 385.112C1027.65 385.112 1050.84 375.872 1070.26 357.648C1084.82 343.983 1097.61 324.855 1108.34 300.727C1108.24 306.46 1107.84 312.204 1107.45 317.814C1107.23 320.882 1107.01 324.048 1106.83 327.177C1106.67 330.159 1106.64 333.142 1106.61 336.026C1106.45 351.842 1106.34 363.283 1087.73 365.471L1085.08 365.788L1084.81 379.967H1194.12L1192.55 367.292L1192.23 364.713L1189.63 364.615C1174.99 364.053 1166.48 361.657 1163.38 350.669C1159.24 336.002 1160.62 271.429 1161.85 251.751C1162.16 246.691 1163.47 233.759 1168.87 223.076C1173.75 213.396 1180.5 208.483 1188.93 208.483C1190.27 208.483 1191.69 208.605 1193.14 208.849C1195.37 209.228 1198.02 211.282 1200.59 213.262C1203.34 215.388 1206.18 217.576 1209.2 218.273C1211.32 218.75 1213.41 218.994 1215.42 218.994C1222.36 218.994 1228.65 216.048 1233.13 210.683C1237.14 205.879 1239.51 199.499 1239.78 192.728C1240.33 179.319 1232.44 165.104 1213.59 163.564L1213.58 163.54ZM997.542 165.153C997.677 165.153 997.811 165.153 997.946 165.153C997.481 165.153 997.016 165.153 996.552 165.153C996.882 165.153 997.2 165.141 997.53 165.141L997.542 165.153ZM967.724 203.386C974.806 188.144 984.822 180.419 997.506 180.419C999.377 180.419 1001.33 180.59 1003.33 180.933C1010.16 182.094 1015.99 186.396 1020.65 193.693C1029.66 207.823 1031.76 229.726 1028.66 242.645C1028.42 242.779 1028.18 242.914 1027.98 243.012H958.943C959.408 228.98 962.624 214.374 967.737 203.374L967.724 203.386ZM993.139 381.727C994.839 381.849 996.503 381.922 998.154 381.959C996.503 381.91 994.839 381.837 993.139 381.727ZM1001.32 382.02C1000.75 382.02 1000.17 381.996 999.585 381.983C1000.67 381.996 1001.74 381.983 1002.8 381.983C1002.3 381.983 1001.82 382.02 1001.31 382.02H1001.32ZM1153.1 167.219C1153.1 167.219 1153.18 167.219 1153.2 167.219C1153.22 167.219 1153.26 167.219 1153.3 167.219C1153.24 167.219 1153.16 167.219 1153.1 167.219ZM1209.57 166.437C1209.64 166.437 1209.7 166.437 1209.78 166.437C1210.12 166.437 1210.48 166.449 1210.82 166.461C1210.4 166.461 1209.99 166.437 1209.57 166.449V166.437ZM1215.39 215.902C1215.12 215.902 1214.85 215.89 1214.58 215.877C1214.85 215.877 1215.12 215.902 1215.39 215.902Z" fill="url(#paint1_linear_28_35)"/>
<path d="M875.702 351.793C855.999 345.413 831.489 345.389 809.853 345.376C798.674 345.376 788.107 345.364 779.411 344.472C775.057 344.032 768.281 341.966 766.398 340.06C764.429 338.067 763.585 335.61 763.842 332.555C764.27 327.287 768.697 318.988 775.461 313.573C786.48 316.824 797.769 318.462 809.058 318.462C823.637 318.462 837.677 315.578 849.675 310.114C863.019 304.039 873.831 294.946 881.817 283.114C899.772 256.481 898.426 217.931 878.686 193.461C877.903 192.483 876.338 190.992 874.357 189.11C872.497 187.337 869.367 184.355 867.887 182.583C867.997 182.46 868.095 182.35 868.205 182.228C871.556 178.537 875.726 173.941 879.909 173.379C880.411 173.306 880.924 173.281 881.438 173.281C884.704 173.281 887.761 174.675 891.002 176.166C894.574 177.791 898.255 179.478 902.572 179.478H902.682C912.234 179.417 919.781 171.814 921.04 160.985C921.652 155.693 920.624 150.413 918.154 146.11C915.292 141.148 910.742 137.787 904.982 136.393C902.389 135.77 899.772 135.452 897.203 135.452C877.573 135.452 861.637 154.055 853.858 173.452C839.39 166.803 823.588 163.307 807.945 163.307C782.187 163.307 758.619 172.829 743.282 189.427C728.752 205.158 722.099 226.328 724.056 250.651C725.707 271.319 737.118 289.25 758.876 305.31C742.194 313.61 729.229 330.88 727.224 348.236C727.187 348.518 727.187 348.799 727.15 349.08L726.857 347.552L723.114 349.789C718.259 352.698 714.186 354.177 711.006 354.177C708.866 354.177 707.214 353.517 705.808 352.111C700.133 346.403 700.231 330.489 700.304 318.865C700.317 316.653 700.329 314.563 700.304 312.644C700.219 305.628 700.476 296.913 700.745 287.698C701.711 254.978 702.922 214.252 691.327 193.216C680.858 174.198 656.849 163.283 625.478 163.283C595.978 163.283 567.31 173.086 552.438 188.254C542.201 198.692 538.128 215.217 542.959 226.706C546.42 234.957 553.734 239.491 563.531 239.491C564.888 239.491 566.319 239.406 567.775 239.222C584.763 237.169 587.16 223.871 589.264 212.137C589.997 208.091 590.743 203.899 592.064 200.354C596.663 187.997 606.692 180.321 618.225 180.321C629.477 180.321 639.042 187.985 643.176 200.306C646.453 210.084 648.349 237.255 647.114 247.595C647.077 247.888 647.053 248.182 647.04 248.475C647.04 248.561 647.04 248.646 647.016 248.732C638.124 252.704 626.713 256.029 614.666 259.537C597.079 264.658 578.904 269.938 563.702 278.347C545.821 288.223 535.669 300.641 532.661 316.311C526.546 348.163 544.255 376.178 574.783 382.924C580.653 384.22 586.524 384.88 592.223 384.88C613.932 384.88 633.709 375.518 649.756 357.721C652.153 365.348 656.384 371.704 662.17 376.324C669.178 381.934 678.338 384.892 688.649 384.892C689.908 384.892 691.193 384.843 692.477 384.758C702.653 384.061 716.143 379.172 723.334 369.81C725.609 366.852 727.052 363.625 727.701 360.239C729.645 369.748 735.418 377.974 744.628 384.061L744.738 384.134L744.848 384.196L752.724 388.486C741.387 393.057 731.896 399.547 725.022 407.468C717.231 416.439 713.158 427.048 713.538 437.328C714.296 457.703 731.455 473.898 759.439 480.657C771.449 483.554 785.245 485.082 799.335 485.082C818.231 485.082 836.736 482.368 852.868 477.235C871.397 471.343 886.073 462.592 896.494 451.237C909.678 436.875 915.439 418.957 913.616 397.995C911.574 374.503 899.184 359.384 875.714 351.781L875.702 351.793ZM902.634 176.41C902.634 176.41 902.572 176.41 902.548 176.41C902.083 176.41 901.618 176.386 901.166 176.337C901.655 176.386 902.144 176.41 902.634 176.41ZM897.166 138.495C897.264 138.495 897.362 138.495 897.472 138.495C897.032 138.495 896.604 138.495 896.164 138.52C896.494 138.52 896.824 138.483 897.166 138.483V138.495ZM809.046 315.406C808.789 315.406 808.52 315.394 808.263 315.394C808.948 315.394 809.62 315.394 810.305 315.394C809.89 315.394 809.461 315.406 809.046 315.406ZM807.908 166.351C808.214 166.351 808.532 166.351 808.838 166.363C808.422 166.363 808.006 166.363 807.59 166.363C807.7 166.363 807.798 166.363 807.908 166.363V166.351ZM776.769 221.61C778.641 208.702 786.297 183.597 801.915 180.933C803.909 180.59 805.878 180.419 807.749 180.419C815.589 180.419 829.862 183.842 837.286 206.735C840.588 216.928 842.398 233.013 841.909 247.729C841.297 265.77 837.408 280.816 830.938 290.105C825.801 297.476 819.001 301.399 810.697 301.741C810.244 301.766 809.804 301.766 809.364 301.766C801.524 301.766 794.895 298.71 789.672 292.672C775.192 275.952 774.066 240.213 776.769 221.622V221.61ZM563.506 236.448C563.323 236.448 563.151 236.436 562.98 236.424C563.445 236.424 563.922 236.424 564.411 236.424C564.105 236.424 563.8 236.448 563.506 236.448ZM589.178 199.291C588.75 200.44 588.383 201.638 588.053 202.872C588.383 201.65 588.75 200.452 589.178 199.291C589.508 198.387 589.875 197.519 590.254 196.663C589.875 197.507 589.508 198.387 589.178 199.291ZM624.793 166.363C625.013 166.363 625.233 166.363 625.454 166.363C625.661 166.363 625.857 166.363 626.065 166.363C625.637 166.363 625.209 166.363 624.793 166.363ZM584.567 332.909C584.2 331.565 583.894 330.257 583.65 328.961C583.907 330.257 584.212 331.565 584.567 332.909C584.604 333.019 584.64 333.129 584.665 333.239C584.628 333.129 584.592 333.019 584.567 332.909ZM592.187 381.824C592.187 381.824 592.174 381.824 592.162 381.824C592.199 381.824 592.236 381.824 592.272 381.824C592.248 381.824 592.211 381.824 592.187 381.824ZM647.004 336.16C639.482 346.55 626.75 353.223 614.287 353.223C600.895 353.223 591.147 345.523 587.527 332.115C584.408 320.528 585.435 310.175 590.597 301.338C598.791 287.294 617.259 276.489 647.004 268.374V336.16ZM688.612 381.849C688.612 381.849 688.551 381.849 688.526 381.849C688.624 381.849 688.722 381.849 688.808 381.849C688.746 381.849 688.673 381.849 688.612 381.849ZM799.31 482.038C799.249 482.038 799.188 482.038 799.127 482.038C800.069 482.038 800.998 482.038 801.94 482.026C801.059 482.026 800.179 482.05 799.31 482.05V482.038ZM855.522 455.906C845.187 462.25 828.162 466.185 811.113 466.185C798.258 466.185 786.872 463.961 779.056 459.915C766.667 453.51 758.962 442.265 757.91 429.065C756.834 415.522 762.912 402.358 774.201 393.644L847.058 396.1C861.307 397.604 871.03 405.28 873.733 417.16C876.974 431.412 869.489 447.338 855.522 455.894V455.906Z" fill="url(#paint2_linear_28_35)"/>
<path d="M1329.01 250.101C1320.51 246.239 1311.72 242.242 1303.92 237.548C1291.83 230.288 1280.54 216.721 1285.08 200.379C1288.41 188.376 1299.5 180.31 1312.69 180.31C1317.3 180.31 1322.12 181.251 1327 183.084C1341.51 188.56 1350.99 207.016 1354.4 214.692C1355.27 216.635 1355.85 218.835 1356.41 220.962C1357.91 226.621 1359.77 233.674 1368.14 233.674C1369.41 233.674 1370.82 233.503 1372.33 233.148L1374.71 232.598V177.645L1373.14 176.765C1357.74 168.16 1337.54 163.234 1317.74 163.234C1291.67 163.234 1268.89 171.583 1255.24 186.14C1244.02 198.093 1238.95 213.604 1240.15 232.231C1242.52 269.022 1269.98 281.428 1296.54 293.43C1306.48 297.928 1316.76 302.573 1325.33 308.428C1340.42 318.743 1344.06 335.171 1340.95 346.88C1337.76 358.956 1328.12 366.534 1314.52 367.659C1313.11 367.781 1311.71 367.83 1310.35 367.83C1296.24 367.83 1284.07 361.547 1274.17 349.141C1266.3 339.278 1259.8 325.319 1255.39 308.794L1254.86 306.814L1252.83 306.545L1240.18 304.895V366.913L1241.64 367.805C1259.31 378.72 1282.97 384.966 1306.53 384.966C1333.21 384.966 1355.74 376.997 1369.97 362.525C1381.59 350.706 1387.32 335.159 1386.99 316.299C1386.28 276.086 1357.18 262.849 1329.04 250.052L1329.01 250.101ZM1368.27 230.618C1368.27 230.618 1368.19 230.618 1368.15 230.618C1368.1 230.618 1368.08 230.618 1368.03 230.618C1368.11 230.618 1368.2 230.618 1368.27 230.618ZM1317.74 166.315C1317.81 166.315 1317.88 166.315 1317.96 166.315C1317.87 166.315 1317.79 166.315 1317.7 166.315C1317.7 166.315 1317.72 166.315 1317.74 166.315ZM1306.52 381.959C1306.45 381.959 1306.39 381.959 1306.31 381.959C1306.61 381.959 1306.9 381.959 1307.19 381.959C1306.97 381.959 1306.74 381.959 1306.52 381.959ZM1383.77 312.938C1383.84 314.062 1383.89 315.223 1383.9 316.397C1383.9 316.397 1383.9 316.397 1383.9 316.409C1383.9 316.409 1383.9 316.409 1383.9 316.397C1383.88 315.223 1383.84 314.062 1383.77 312.938Z" fill="url(#paint3_linear_28_35)"/>
<path d="M296.663 149.178C298.522 149.178 300.466 149.044 302.423 148.763C311.156 147.553 318.213 143.409 322.848 136.809C326.933 130.991 328.878 123.523 328.34 115.786C327.288 100.654 316.317 85.3393 297.384 85.3393C295.696 85.3393 293.96 85.4615 292.211 85.706C283.295 86.9282 276.03 91.1695 271.199 97.9531C266.918 103.954 264.863 111.594 265.401 119.453C266.38 133.778 276.58 149.178 296.663 149.178ZM297.384 88.395C297.445 88.395 297.506 88.395 297.58 88.395C297.409 88.395 297.225 88.395 297.042 88.395C297.152 88.395 297.274 88.3827 297.384 88.3827V88.395ZM296.797 146.11C296.797 146.11 296.711 146.11 296.663 146.11C296.65 146.11 296.638 146.11 296.626 146.11C296.687 146.11 296.748 146.11 296.797 146.11Z" fill="url(#paint4_linear_28_35)"/>
<defs>
<linearGradient id="paint0_linear_28_35" x1="1127.48" y1="-177.736" x2="-38.247" y2="486.134" gradientUnits="userSpaceOnUse">
<stop stop-color="#00F84E"/>
<stop offset="1" stop-color="#00C2A8"/>
</linearGradient>
<linearGradient id="paint1_linear_28_35" x1="1127.48" y1="-177.736" x2="-38.247" y2="486.134" gradientUnits="userSpaceOnUse">
<stop stop-color="#00F84E"/>
<stop offset="1" stop-color="#00C2A8"/>
</linearGradient>
<linearGradient id="paint2_linear_28_35" x1="1127.48" y1="-177.736" x2="-38.247" y2="486.134" gradientUnits="userSpaceOnUse">
<stop stop-color="#00F84E"/>
<stop offset="1" stop-color="#00C2A8"/>
</linearGradient>
<linearGradient id="paint3_linear_28_35" x1="1127.48" y1="-177.736" x2="-38.247" y2="486.134" gradientUnits="userSpaceOnUse">
<stop stop-color="#00F84E"/>
<stop offset="1" stop-color="#00C2A8"/>
</linearGradient>
<linearGradient id="paint4_linear_28_35" x1="1127.48" y1="-177.736" x2="-38.247" y2="486.134" gradientUnits="userSpaceOnUse">
<stop stop-color="#00F84E"/>
<stop offset="1" stop-color="#00C2A8"/>
</linearGradient>
</defs>
</svg>
