<svg width="171" height="51" viewBox="0 0 171 51" fill="none" xmlns="http://www.w3.org/2000/svg">
<path d="M97.2529 15.4043C99.1743 15.4043 100.848 15.885 102.272 16.8457C103.383 17.5522 104.31 18.4995 105.055 19.6865V15.9014H110.322V38.2627C110.322 41.0121 109.759 43.2815 108.633 45.0703C107.54 46.8592 106.098 48.1846 104.31 49.0459C102.521 49.9403 100.582 50.3877 98.4951 50.3877C96.0107 50.3877 93.8904 49.957 92.1348 49.0957C90.3791 48.2675 89.0212 47.0912 88.0605 45.5674C87.133 44.0435 86.6356 42.2875 86.5693 40.2998H91.8867C91.9198 41.3268 92.2014 42.2548 92.7314 43.083C93.2945 43.911 94.0562 44.5568 95.0166 45.0205C95.9773 45.4843 97.0878 45.7168 98.3467 45.7168C99.4728 45.7168 100.549 45.4518 101.576 44.9219C102.603 44.3918 103.431 43.5795 104.061 42.4863C104.723 41.3931 105.055 39.9853 105.055 38.2627V34.7275C104.309 35.9212 103.383 36.8852 102.272 37.6172C100.848 38.5448 99.1743 39.0078 97.2529 39.0078C95.2985 39.0078 93.4599 38.5447 91.7373 37.6172C90.0478 36.6896 88.69 35.3475 87.6631 33.5918C86.6361 31.8361 86.1221 29.716 86.1221 27.2314C86.1221 24.6806 86.6361 22.5439 87.6631 20.8213C88.69 19.0655 90.0478 17.7235 91.7373 16.7959C93.4599 15.8684 95.2985 15.4043 97.2529 15.4043ZM16.9941 28.4238L27.2305 3.97559H33.9883L16.9941 40.6973L0 3.97559H6.75781L16.9941 28.4238ZM161.76 15.4043C163.019 15.4043 164.195 15.5868 165.288 15.9512C166.414 16.3156 167.425 16.7963 168.319 17.3926C169.214 17.9888 169.975 18.6679 170.604 19.4297L167.623 22.6104C166.861 21.716 165.951 20.987 164.891 20.4238C163.831 19.8607 162.737 19.5791 161.61 19.5791C160.849 19.5791 160.22 19.745 159.723 20.0762C159.226 20.4074 158.977 20.8873 158.977 21.5166C158.977 22.0466 159.192 22.5273 159.623 22.958C160.087 23.3555 160.683 23.7195 161.412 24.0508C162.174 24.382 163.019 24.7303 163.946 25.0947C165.205 25.5916 166.365 26.1381 167.425 26.7344C168.485 27.3306 169.33 28.0596 169.959 28.9209C170.621 29.7822 170.952 30.9086 170.952 32.2998C170.952 34.453 170.207 36.1925 168.717 37.5176C167.259 38.8095 165.271 39.455 162.754 39.4551C161.197 39.4551 159.756 39.2235 158.431 38.7598C157.139 38.2629 155.996 37.633 155.002 36.8711C154.041 36.076 153.229 35.248 152.566 34.3867L155.697 31.2568C156.426 32.0518 157.155 32.7475 157.884 33.3438C158.646 33.9068 159.408 34.3376 160.17 34.6357C160.932 34.9006 161.693 35.0332 162.455 35.0332C163.416 35.0332 164.161 34.8174 164.691 34.3867C165.255 33.9561 165.536 33.3596 165.536 32.5977C165.536 31.9353 165.321 31.3719 164.891 30.9082C164.46 30.4113 163.863 29.9973 163.102 29.666C162.34 29.3016 161.445 28.9376 160.418 28.5732C159.391 28.1757 158.364 27.7117 157.337 27.1816C156.343 26.6185 155.515 25.8895 154.853 24.9951C154.223 24.1007 153.908 22.9744 153.908 21.6162C153.908 20.2249 154.256 19.0653 154.952 18.1377C155.681 17.2102 156.642 16.5312 157.834 16.1006C159.06 15.6368 160.368 15.4043 161.76 15.4043ZM74.4492 15.3555C76.3375 15.3555 77.9945 15.637 79.4189 16.2002C80.8764 16.7634 82.0195 17.5748 82.8477 18.6348C83.6757 19.6617 84.0898 20.9372 84.0898 22.4609V38.7598H78.8223V35.6963C78.6763 35.9329 78.5115 36.1601 78.3252 36.375C77.4971 37.3354 76.4371 38.0637 75.1455 38.5605C73.8868 39.0243 72.5945 39.2568 71.2695 39.2568C69.8451 39.2568 68.5196 38.9752 67.2939 38.4121C66.0684 37.849 65.0911 37.0208 64.3623 35.9277C63.6335 34.8346 63.2686 33.5091 63.2686 31.9521C63.2686 29.7326 64.0475 27.9765 65.6045 26.6846C67.1614 25.3596 69.3642 24.6973 72.2129 24.6973C73.7367 24.6973 75.0455 24.8631 76.1387 25.1943C77.2148 25.5108 78.109 25.8887 78.8223 26.3262V23.5049C78.8223 22.7762 78.6898 22.1796 78.4248 21.7158C78.1929 21.252 77.8613 20.8704 77.4307 20.5723C77.0001 20.2743 76.4867 20.0592 75.8906 19.9268C75.2943 19.7942 74.6478 19.7275 73.9521 19.7275C72.8922 19.7276 71.8815 19.86 70.9209 20.125C69.9935 20.3569 69.1819 20.6552 68.4863 21.0195C67.8241 21.3507 67.3274 21.6324 66.9961 21.8643L64.8096 18.0879C65.8364 17.4586 67.1613 16.8462 68.7842 16.25C70.4405 15.6537 72.3291 15.3555 74.4492 15.3555ZM124.68 15.4043C127.098 15.4043 129.152 15.8683 130.842 16.7959C132.531 17.7235 133.823 19.0656 134.718 20.8213C135.645 22.5438 136.108 24.6308 136.108 27.082C136.108 27.347 136.093 27.6287 136.06 27.9268C136.06 28.2249 136.043 28.4407 136.01 28.5732H118.242C118.347 29.621 118.57 30.5485 118.916 31.3555C119.413 32.4817 120.141 33.3432 121.102 33.9395C122.095 34.5357 123.288 34.834 124.68 34.834C126.137 34.834 127.413 34.5358 128.506 33.9395C129.599 33.3432 130.51 32.4327 131.239 31.207L135.86 33.0947C134.668 35.1485 133.127 36.6889 131.239 37.7158C129.351 38.7427 127.082 39.2568 124.432 39.2568C122.113 39.2568 120.058 38.7595 118.27 37.7656C116.514 36.7718 115.156 35.3806 114.195 33.5918C113.235 31.803 112.754 29.7161 112.754 27.3311C112.754 24.9127 113.235 22.8084 114.195 21.0195C115.189 19.2309 116.58 17.8561 118.369 16.8955C120.158 15.9017 122.261 15.4043 124.68 15.4043ZM40.917 38.7598H35.6494V15.9014H40.917V38.7598ZM51.1846 38.7598H45.8174V0H51.1846V38.7598ZM60.9287 38.7598H55.5625V0H60.9287V38.7598ZM149.281 15.4043C150.109 15.4043 150.888 15.5377 151.617 15.8027C152.346 16.0347 152.958 16.4654 153.455 17.0947L150.871 21.6162C150.374 21.2189 149.911 20.9204 149.48 20.7217C149.05 20.5229 148.502 20.4238 147.84 20.4238C146.946 20.4239 146.217 20.6556 145.654 21.1191C145.091 21.5829 144.676 22.2294 144.411 23.0576C144.179 23.8526 144.063 24.7966 144.063 25.8896V38.7598H138.747V15.9014H144.063V18.6475C144.6 17.8545 145.212 17.1872 145.902 16.6475C146.996 15.8193 148.122 15.4043 149.281 15.4043ZM73.5049 28.2256C72.3787 28.2256 71.4681 28.3747 70.7725 28.6729C70.0768 28.9378 69.547 29.3186 69.1826 29.8154C68.8513 30.3123 68.6855 30.9255 68.6855 31.6543C68.6856 32.416 68.8672 33.0786 69.2314 33.6416C69.5958 34.1716 70.0932 34.569 70.7227 34.834C71.3852 35.099 72.1308 35.2314 72.959 35.2314C74.0189 35.2314 74.9796 35.0165 75.8408 34.5859C76.7353 34.1553 77.4475 33.5255 77.9775 32.6973C78.5407 31.836 78.8223 30.8421 78.8223 29.7158V29.3447C78.2912 29.0906 77.7449 28.8823 77.1826 28.7217C76.0231 28.3904 74.7969 28.2256 73.5049 28.2256ZM98.5449 20.0762C97.3193 20.0762 96.1762 20.3578 95.1162 20.9209C94.0894 21.4509 93.2612 22.2457 92.6318 23.3057C92.0024 24.3657 91.6875 25.6744 91.6875 27.2314C91.6875 28.7553 92.0024 30.0474 92.6318 31.1074C93.2612 32.1674 94.0894 32.9788 95.1162 33.542C96.1762 34.072 97.3193 34.3369 98.5449 34.3369C99.5719 34.3369 100.582 34.072 101.576 33.542C102.603 33.012 103.431 32.2171 104.061 31.1572C104.723 30.064 105.055 28.7553 105.055 27.2314C105.055 26.0389 104.856 25.0117 104.458 24.1504C104.094 23.256 103.597 22.5103 102.968 21.9141C102.338 21.2848 101.626 20.8216 100.831 20.5234C100.069 20.2253 99.3069 20.0762 98.5449 20.0762ZM124.63 19.4795C123.272 19.4795 122.112 19.7778 121.151 20.374C120.191 20.9703 119.462 21.8318 118.965 22.958C118.711 23.5343 118.519 24.1804 118.386 24.8955H130.271C130.203 23.9192 129.964 23.0575 129.55 22.3115C129.086 21.4172 128.423 20.7215 127.562 20.2246C126.733 19.7278 125.756 19.4795 124.63 19.4795ZM38.2832 3.52832C39.2439 3.52832 40.0395 3.84323 40.6689 4.47266C41.3314 5.10205 41.6621 5.88111 41.6621 6.80859C41.662 7.70275 41.3312 8.48116 40.6689 9.14355C40.0395 9.77298 39.2439 10.0879 38.2832 10.0879C37.3889 10.0878 36.594 9.77289 35.8984 9.14355C35.236 8.48111 34.9044 7.70285 34.9043 6.80859C34.9043 5.88102 35.2359 5.10208 35.8984 4.47266C36.594 3.84335 37.3889 3.52837 38.2832 3.52832Z" fill="#FDF0DA"/>
</svg>
